  0
SECTION
  2
HEADER
  9
$ACADVER
  1
AC1014
  9
$HANDSEED
  5
FFFF
  9
$MEASUREMENT
 70
     1
  0
ENDSEC
  0
SECTION
  2
TABLES
  0
TABLE
  2
VPORT
  5
8
330
0
100
AcDbSymbolTable
 70
     4
  0
VPORT
  5
2E
330
8
100
AcDbSymbolTableRecord
100
AcDbViewportTableRecord
  2
*ACTIVE
 70
     0
 10
0.0
 20
0.0
 11
1.0
 21
1.0
 12
210.0
 22
148.5
 13
0.0
 23
0.0
 14
10.0
 24
10.0
 15
10.0
 25
10.0
 16
0.0
 26
0.0
 36
1.0
 17
0.0
 27
0.0
 37
0.0
 40
341.0
 41
1.24
 42
50.0
 43
0.0
 44
0.0
 50
0.0
 51
0.0
 71
     0
 72
   100
 73
     1
 74
     3
 75
     0
 76
     0
 77
     0
 78
     0
  0
ENDTAB
  0
TABLE
  2
LTYPE
  5
5
330
0
100
AcDbSymbolTable
 70
     1
  0
LTYPE
  5
14
330
5
100
AcDbSymbolTableRecord
100
AcDbLinetypeTableRecord
  2
BYBLOCK
 70
     0
  3

 72
    65
 73
     0
 40
0.0
  0
LTYPE
  5
15
330
5
100
AcDbSymbolTableRecord
100
AcDbLinetypeTableRecord
  2
BYLAYER
 70
     0
  3

 72
    65
 73
     0
 40
0.0
  0
LTYPE
  5
16
330
5
100
AcDbSymbolTableRecord
100
AcDbLinetypeTableRecord
  2
CONTINUOUS
 70
     0
  3
Solid line
 72
    65
 73
     0
 40
0.0
  0
ENDTAB
  0
TABLE
  2
LAYER
  5
2
100
AcDbSymbolTable
 70
1
  0
LAYER
  5
50
100
AcDbSymbolTableRecord
100
AcDbLayerTableRecord
  2
0
 70
0
  6
CONTINUOUS
  0
ENDTAB
  0
TABLE
  2
STYLE
  5
3
330
0
100
AcDbSymbolTable
 70
     1
  0
STYLE
  5
11
330
3
100
AcDbSymbolTableRecord
100
AcDbTextStyleTableRecord
  2
STANDARD
 70
     0
 40
0.0
 41
1.0
 50
0.0
 71
     0
 42
2.5
  3
txt
  4

  0
ENDTAB
  0
TABLE
  2
VIEW
  5
6
330
0
100
AcDbSymbolTable
 70
     0
  0
ENDTAB
  0
TABLE
  2
UCS
  5
7
330
0
100
AcDbSymbolTable
 70
     0
  0
ENDTAB
  0
TABLE
  2
APPID
  5
9
330
0
100
AcDbSymbolTable
 70
     2
  0
APPID
  5
12
330
9
100
AcDbSymbolTableRecord
100
AcDbRegAppTableRecord
  2
ACAD
 70
     0
  0
ENDTAB
  0
TABLE
  2
DIMSTYLE
  5
A
330
0
100
AcDbSymbolTable
 70
     1
  0
DIMSTYLE
105
27
330
A
100
AcDbSymbolTableRecord
100
AcDbDimStyleTableRecord
  2
ISO-25
 70
     0
  3

  4

  5

  6

  7

 40
1.0
 41
2.5
 42
0.625
 43
3.75
 44
1.25
 45
0.0
 46
0.0
 47
0.0
 48
0.0
140
2.5
141
2.5
142
0.0
143
0.03937007874016
144
1.0
145
0.0
146
1.0
147
0.625
 71
     0
 72
     0
 73
     0
 74
     0
 75
     0
 76
     0
 77
     1
 78
     8
170
     0
171
     3
172
     1
173
     0
174
     0
175
     0
176
     0
177
     0
178
     0
270
     2
271
     2
272
     2
273
     2
274
     3
340
11
275
     0
280
     0
281
     0
282
     0
283
     0
284
     8
285
     0
286
     0
287
     3
288
     0
  0
ENDTAB
  0
TABLE
  2
BLOCK_RECORD
  5
1
330
0
100
AcDbSymbolTable
 70
     1
  0
BLOCK_RECORD
  5
1F
330
1
100
AcDbSymbolTableRecord
100
AcDbBlockTableRecord
  2
*MODEL_SPACE
  0
BLOCK_RECORD
  5
1B
330
1
100
AcDbSymbolTableRecord
100
AcDbBlockTableRecord
  2
*PAPER_SPACE
  0
ENDTAB
  0
ENDSEC
  0
SECTION
  2
BLOCKS
  0
BLOCK
  5
20
330
1F
100
AcDbEntity
  8
0
100
AcDbBlockBegin
  2
*MODEL_SPACE
 70
     0
 10
0.0
 20
0.0
 30
0.0
  3
*MODEL_SPACE
  1

  0
ENDBLK
  5
21
330
1F
100
AcDbEntity
  8
0
100
AcDbBlockEnd
  0
BLOCK
  5
1C
330
1B
100
AcDbEntity
 67
     1
  8
0
100
AcDbBlockBegin
  2
*PAPER_SPACE
  1

  0
ENDBLK
  5
1D
330
1B
100
AcDbEntity
 67
     1
  8
0
100
AcDbBlockEnd
  0
ENDSEC
  0
SECTION
  2
ENTITIES
  0
SPLINE
  5
100
100
AcDbEntity
  8
0
 62
7
100
AcDbSpline
 70
8
 71
3
 72
8
 73
4
 74
0
 40
0
 40
0
 40
0
 40
0
 40
1
 40
1
 40
1
 40
1
 10
168.519128
 20
8.408720
 30
0.0
 10
168.519128
 20
9.830944
 30
0.0
 10
167.985792
 20
10.008720
 30
0.0
 10
163.719128
 20
10.008720
 30
0.0
  0
SPLINE
  5
101
100
AcDbEntity
  8
0
 62
7
100
AcDbSpline
 70
8
 71
3
 72
8
 73
4
 74
0
 40
0
 40
0
 40
0
 40
0
 40
1
 40
1
 40
1
 40
1
 10
152.519128
 20
16.408720
 30
0.0
 10
146.652464
 20
16.408720
 30
0.0
 10
146.119128
 20
16.542056
 30
0.0
 10
146.119128
 20
18.008720
 30
0.0
  0
SPLINE
  5
102
100
AcDbEntity
  8
0
 62
7
100
AcDbSpline
 70
8
 71
3
 72
8
 73
4
 74
0
 40
0
 40
0
 40
0
 40
0
 40
1
 40
1
 40
1
 40
1
 10
146.119128
 20
18.008720
 30
0.0
 10
146.119128
 20
19.342056
 30
0.0
 10
145.585792
 20
19.608720
 30
0.0
 10
142.919128
 20
19.608720
 30
0.0
  0
LWPOLYLINE
  5
103
100
AcDbEntity
  8
0
 62
7
100
AcDbPolyline
 90
5
 70
0
 10
163.719128
 20
10.008720
 30
0.0
 10
158.919128
 20
10.008720
 30
0.0
 10
158.919128
 20
13.208720
 30
0.0
 10
158.919128
 20
16.408720
 30
0.0
 10
152.519128
 20
16.408720
 30
0.0
  0
SPLINE
  5
104
100
AcDbEntity
  8
0
 62
7
100
AcDbSpline
 70
8
 71
3
 72
8
 73
4
 74
0
 40
0
 40
0
 40
0
 40
0
 40
1
 40
1
 40
1
 40
1
 10
139.719128
 20
28.408720
 30
0.0
 10
139.719128
 20
36.675384
 30
0.0
 10
139.816096
 20
37.208720
 30
0.0
 10
141.319128
 20
37.208720
 30
0.0
  0
SPLINE
  5
105
100
AcDbEntity
  8
0
 62
7
100
AcDbSpline
 70
8
 71
3
 72
8
 73
4
 74
0
 40
0
 40
0
 40
0
 40
0
 40
1
 40
1
 40
1
 40
1
 10
141.319128
 20
37.208720
 30
0.0
 10
142.385792
 20
37.208720
 30
0.0
 10
142.919128
 20
37.742056
 30
0.0
 10
142.919128
 20
38.808720
 30
0.0
  0
SPLINE
  5
106
100
AcDbEntity
  8
0
 62
7
100
AcDbSpline
 70
8
 71
3
 72
8
 73
4
 74
0
 40
0
 40
0
 40
0
 40
0
 40
1
 40
1
 40
1
 40
1
 10
142.919128
 20
38.808720
 30
0.0
 10
142.919128
 20
40.230944
 30
0.0
 10
143.452464
 20
40.408720
 30
0.0
 10
147.719128
 20
40.408720
 30
0.0
  0
SPLINE
  5
107
100
AcDbEntity
  8
0
 62
7
100
AcDbSpline
 70
8
 71
3
 72
8
 73
4
 74
0
 40
0
 40
0
 40
0
 40
0
 40
1
 40
1
 40
1
 40
1
 10
147.719128
 20
40.408720
 30
0.0
 10
151.985792
 20
40.408720
 30
0.0
 10
152.519128
 20
40.586496
 30
0.0
 10
152.519128
 20
42.008720
 30
0.0
  0
SPLINE
  5
108
100
AcDbEntity
  8
0
 62
7
100
AcDbSpline
 70
8
 71
3
 72
8
 73
4
 74
0
 40
0
 40
0
 40
0
 40
0
 40
1
 40
1
 40
1
 40
1
 10
152.519128
 20
42.008720
 30
0.0
 10
152.519128
 20
43.395384
 30
0.0
 10
153.052464
 20
43.608720
 30
0.0
 10
156.519128
 20
43.608720
 30
0.0
  0
SPLINE
  5
109
100
AcDbEntity
  8
0
 62
7
100
AcDbSpline
 70
8
 71
3
 72
8
 73
4
 74
0
 40
0
 40
0
 40
0
 40
0
 40
1
 40
1
 40
1
 40
1
 10
156.519128
 20
43.608720
 30
0.0
 10
159.985792
 20
43.608720
 30
0.0
 10
160.519128
 20
43.395384
 30
0.0
 10
160.519128
 20
42.008720
 30
0.0
  0
SPLINE
  5
10a
100
AcDbEntity
  8
0
 62
7
100
AcDbSpline
 70
8
 71
3
 72
8
 73
4
 74
0
 40
0
 40
0
 40
0
 40
0
 40
1
 40
1
 40
1
 40
1
 10
160.519128
 20
42.008720
 30
0.0
 10
160.519128
 20
40.542056
 30
0.0
 10
161.052464
 20
40.408720
 30
0.0
 10
166.919128
 20
40.408720
 30
0.0
  0
SPLINE
  5
10b
100
AcDbEntity
  8
0
 62
7
100
AcDbSpline
 70
8
 71
3
 72
8
 73
4
 74
0
 40
0
 40
0
 40
0
 40
0
 40
1
 40
1
 40
1
 40
1
 10
166.919128
 20
40.408720
 30
0.0
 10
172.785792
 20
40.408720
 30
0.0
 10
173.319128
 20
40.275384
 30
0.0
 10
173.319128
 20
38.808720
 30
0.0
  0
SPLINE
  5
10c
100
AcDbEntity
  8
0
 62
7
100
AcDbSpline
 70
8
 71
3
 72
8
 73
4
 74
0
 40
0
 40
0
 40
0
 40
0
 40
1
 40
1
 40
1
 40
1
 10
173.319128
 20
38.808720
 30
0.0
 10
173.319128
 20
37.422056
 30
0.0
 10
173.852464
 20
37.208720
 30
0.0
 10
177.319128
 20
37.208720
 30
0.0
  0
SPLINE
  5
10d
100
AcDbEntity
  8
0
 62
7
100
AcDbSpline
 70
8
 71
3
 72
8
 73
4
 74
0
 40
0
 40
0
 40
0
 40
0
 40
1
 40
1
 40
1
 40
1
 10
177.319128
 20
37.208720
 30
0.0
 10
180.785792
 20
37.208720
 30
0.0
 10
181.319128
 20
37.422056
 30
0.0
 10
181.319128
 20
38.808720
 30
0.0
  0
SPLINE
  5
10e
100
AcDbEntity
  8
0
 62
7
100
AcDbSpline
 70
8
 71
3
 72
8
 73
4
 74
0
 40
0
 40
0
 40
0
 40
0
 40
1
 40
1
 40
1
 40
1
 10
181.319128
 20
38.808720
 30
0.0
 10
181.319128
 20
39.875384
 30
0.0
 10
181.852464
 20
40.408720
 30
0.0
 10
182.919128
 20
40.408720
 30
0.0
  0
SPLINE
  5
10f
100
AcDbEntity
  8
0
 62
7
100
AcDbSpline
 70
8
 71
3
 72
8
 73
4
 74
0
 40
0
 40
0
 40
0
 40
0
 40
1
 40
1
 40
1
 40
1
 10
182.919128
 20
40.408720
 30
0.0
 10
184.252464
 20
40.408720
 30
0.0
 10
184.519128
 20
40.942056
 30
0.0
 10
184.519128
 20
43.608720
 30
0.0
  0
SPLINE
  5
110
100
AcDbEntity
  8
0
 62
7
100
AcDbSpline
 70
8
 71
3
 72
8
 73
4
 74
0
 40
0
 40
0
 40
0
 40
0
 40
1
 40
1
 40
1
 40
1
 10
184.519128
 20
43.608720
 30
0.0
 10
184.519128
 20
46.275384
 30
0.0
 10
184.785792
 20
46.808720
 30
0.0
 10
186.119128
 20
46.808720
 30
0.0
  0
SPLINE
  5
111
100
AcDbEntity
  8
0
 62
7
100
AcDbSpline
 70
8
 71
3
 72
8
 73
4
 74
0
 40
0
 40
0
 40
0
 40
0
 40
1
 40
1
 40
1
 40
1
 10
186.119128
 20
46.808720
 30
0.0
 10
187.363576
 20
46.808720
 30
0.0
 10
187.719128
 20
47.342056
 30
0.0
 10
187.719128
 20
49.208720
 30
0.0
  0
SPLINE
  5
112
100
AcDbEntity
  8
0
 62
7
100
AcDbSpline
 70
8
 71
3
 72
8
 73
4
 74
0
 40
0
 40
0
 40
0
 40
0
 40
1
 40
1
 40
1
 40
1
 10
187.719128
 20
49.208720
 30
0.0
 10
187.719128
 20
51.075384
 30
0.0
 10
187.363576
 20
51.608720
 30
0.0
 10
186.119128
 20
51.608720
 30
0.0
  0
SPLINE
  5
113
100
AcDbEntity
  8
0
 62
7
100
AcDbSpline
 70
8
 71
3
 72
8
 73
4
 74
0
 40
0
 40
0
 40
0
 40
0
 40
1
 40
1
 40
1
 40
1
 10
186.119128
 20
51.608720
 30
0.0
 10
185.052464
 20
51.608720
 30
0.0
 10
184.519128
 20
52.142056
 30
0.0
 10
184.519128
 20
53.208720
 30
0.0
  0
SPLINE
  5
114
100
AcDbEntity
  8
0
 62
7
100
AcDbSpline
 70
8
 71
3
 72
8
 73
4
 74
0
 40
0
 40
0
 40
0
 40
0
 40
1
 40
1
 40
1
 40
1
 10
184.519128
 20
53.208720
 30
0.0
 10
184.519128
 20
54.275384
 30
0.0
 10
183.985792
 20
54.808720
 30
0.0
 10
182.919128
 20
54.808720
 30
0.0
  0
SPLINE
  5
115
100
AcDbEntity
  8
0
 62
7
100
AcDbSpline
 70
8
 71
3
 72
8
 73
4
 74
0
 40
0
 40
0
 40
0
 40
0
 40
1
 40
1
 40
1
 40
1
 10
182.919128
 20
54.808720
 30
0.0
 10
181.437648
 20
54.808720
 30
0.0
 10
181.319128
 20
55.342056
 30
0.0
 10
181.319128
 20
62.008720
 30
0.0
  0
SPLINE
  5
116
100
AcDbEntity
  8
0
 62
7
100
AcDbSpline
 70
8
 71
3
 72
8
 73
4
 74
0
 40
0
 40
0
 40
0
 40
0
 40
1
 40
1
 40
1
 40
1
 10
181.319128
 20
62.008720
 30
0.0
 10
181.319128
 20
68.675384
 30
0.0
 10
181.437648
 20
69.208720
 30
0.0
 10
182.919128
 20
69.208720
 30
0.0
  0
SPLINE
  5
117
100
AcDbEntity
  8
0
 62
7
100
AcDbSpline
 70
8
 71
3
 72
8
 73
4
 74
0
 40
0
 40
0
 40
0
 40
0
 40
1
 40
1
 40
1
 40
1
 10
182.919128
 20
69.208720
 30
0.0
 10
184.498616
 20
69.208720
 30
0.0
 10
184.519128
 20
69.742056
 30
0.0
 10
184.519128
 20
110.808720
 30
0.0
  0
SPLINE
  5
118
100
AcDbEntity
  8
0
 62
7
100
AcDbSpline
 70
8
 71
3
 72
8
 73
4
 74
0
 40
0
 40
0
 40
0
 40
0
 40
1
 40
1
 40
1
 40
1
 10
184.519128
 20
110.808720
 30
0.0
 10
184.519128
 20
151.875384
 30
0.0
 10
184.539608
 20
152.408717
 30
0.0
 10
186.119128
 20
152.408717
 30
0.0
  0
SPLINE
  5
119
100
AcDbEntity
  8
0
 62
7
100
AcDbSpline
 70
8
 71
3
 72
8
 73
4
 74
0
 40
0
 40
0
 40
0
 40
0
 40
1
 40
1
 40
1
 40
1
 10
186.119128
 20
152.408717
 30
0.0
 10
187.452464
 20
152.408717
 30
0.0
 10
187.719128
 20
152.942053
 30
0.0
 10
187.719128
 20
155.608717
 30
0.0
  0
SPLINE
  5
11a
100
AcDbEntity
  8
0
 62
7
100
AcDbSpline
 70
8
 71
3
 72
8
 73
4
 74
0
 40
0
 40
0
 40
0
 40
0
 40
1
 40
1
 40
1
 40
1
 10
187.719128
 20
155.608717
 30
0.0
 10
187.719128
 20
158.275383
 30
0.0
 10
187.985792
 20
158.808717
 30
0.0
 10
189.319128
 20
158.808717
 30
0.0
  0
SPLINE
  5
11b
100
AcDbEntity
  8
0
 62
7
100
AcDbSpline
 70
8
 71
3
 72
8
 73
4
 74
0
 40
0
 40
0
 40
0
 40
0
 40
1
 40
1
 40
1
 40
1
 10
189.319128
 20
158.808717
 30
0.0
 10
190.652464
 20
158.808717
 30
0.0
 10
190.919128
 20
159.342050
 30
0.0
 10
190.919128
 20
162.008717
 30
0.0
  0
SPLINE
  5
11c
100
AcDbEntity
  8
0
 62
7
100
AcDbSpline
 70
8
 71
3
 72
8
 73
4
 74
0
 40
0
 40
0
 40
0
 40
0
 40
1
 40
1
 40
1
 40
1
 10
190.919128
 20
162.008717
 30
0.0
 10
190.919128
 20
164.675383
 30
0.0
 10
191.185792
 20
165.208717
 30
0.0
 10
192.519128
 20
165.208717
 30
0.0
  0
SPLINE
  5
11d
100
AcDbEntity
  8
0
 62
7
100
AcDbSpline
 70
8
 71
3
 72
8
 73
4
 74
0
 40
0
 40
0
 40
0
 40
0
 40
1
 40
1
 40
1
 40
1
 10
192.519128
 20
165.208717
 30
0.0
 10
193.852464
 20
165.208717
 30
0.0
 10
194.119128
 20
165.742050
 30
0.0
 10
194.119128
 20
168.408717
 30
0.0
  0
SPLINE
  5
11e
100
AcDbEntity
  8
0
 62
7
100
AcDbSpline
 70
8
 71
3
 72
8
 73
4
 74
0
 40
0
 40
0
 40
0
 40
0
 40
1
 40
1
 40
1
 40
1
 10
194.119128
 20
168.408717
 30
0.0
 10
194.119128
 20
171.075383
 30
0.0
 10
194.385792
 20
171.608717
 30
0.0
 10
195.719128
 20
171.608717
 30
0.0
  0
SPLINE
  5
11f
100
AcDbEntity
  8
0
 62
7
100
AcDbSpline
 70
8
 71
3
 72
8
 73
4
 74
0
 40
0
 40
0
 40
0
 40
0
 40
1
 40
1
 40
1
 40
1
 10
195.719128
 20
171.608717
 30
0.0
 10
197.052464
 20
171.608717
 30
0.0
 10
197.319128
 20
172.142050
 30
0.0
 10
197.319128
 20
174.808717
 30
0.0
  0
SPLINE
  5
120
100
AcDbEntity
  8
0
 62
7
100
AcDbSpline
 70
8
 71
3
 72
8
 73
4
 74
0
 40
0
 40
0
 40
0
 40
0
 40
1
 40
1
 40
1
 40
1
 10
197.319128
 20
174.808717
 30
0.0
 10
197.319128
 20
177.475383
 30
0.0
 10
197.585792
 20
178.008717
 30
0.0
 10
198.919128
 20
178.008717
 30
0.0
  0
SPLINE
  5
121
100
AcDbEntity
  8
0
 62
7
100
AcDbSpline
 70
8
 71
3
 72
8
 73
4
 74
0
 40
0
 40
0
 40
0
 40
0
 40
1
 40
1
 40
1
 40
1
 10
198.919128
 20
178.008717
 30
0.0
 10
200.163576
 20
178.008717
 30
0.0
 10
200.519128
 20
178.542050
 30
0.0
 10
200.519128
 20
180.408717
 30
0.0
  0
SPLINE
  5
122
100
AcDbEntity
  8
0
 62
7
100
AcDbSpline
 70
8
 71
3
 72
8
 73
4
 74
0
 40
0
 40
0
 40
0
 40
0
 40
1
 40
1
 40
1
 40
1
 10
200.519128
 20
180.408717
 30
0.0
 10
200.519128
 20
182.275383
 30
0.0
 10
200.163576
 20
182.808717
 30
0.0
 10
198.919128
 20
182.808717
 30
0.0
  0
SPLINE
  5
123
100
AcDbEntity
  8
0
 62
7
100
AcDbSpline
 70
8
 71
3
 72
8
 73
4
 74
0
 40
0
 40
0
 40
0
 40
0
 40
1
 40
1
 40
1
 40
1
 10
198.919128
 20
182.808717
 30
0.0
 10
197.471512
 20
182.808717
 30
0.0
 10
197.319128
 20
183.342050
 30
0.0
 10
197.319128
 20
188.408717
 30
0.0
  0
LWPOLYLINE
  5
124
100
AcDbEntity
  8
0
 62
7
100
AcDbPolyline
 90
3
 70
0
 10
142.919128
 20
19.608720
 30
0.0
 10
139.719128
 20
19.608720
 30
0.0
 10
139.719128
 20
28.408720
 30
0.0
  0
SPLINE
  5
125
100
AcDbEntity
  8
0
 62
7
100
AcDbSpline
 70
8
 71
3
 72
8
 73
4
 74
0
 40
0
 40
0
 40
0
 40
0
 40
1
 40
1
 40
1
 40
1
 10
200.519128
 20
194.008717
 30
0.0
 10
203.185792
 20
194.008717
 30
0.0
 10
203.719128
 20
194.275383
 30
0.0
 10
203.719128
 20
195.608717
 30
0.0
  0
SPLINE
  5
126
100
AcDbEntity
  8
0
 62
7
100
AcDbSpline
 70
8
 71
3
 72
8
 73
4
 74
0
 40
0
 40
0
 40
0
 40
0
 40
1
 40
1
 40
1
 40
1
 10
203.719128
 20
195.608717
 30
0.0
 10
203.719128
 20
196.675383
 30
0.0
 10
204.252464
 20
197.208717
 30
0.0
 10
205.319128
 20
197.208717
 30
0.0
  0
SPLINE
  5
127
100
AcDbEntity
  8
0
 62
7
100
AcDbSpline
 70
8
 71
3
 72
8
 73
4
 74
0
 40
0
 40
0
 40
0
 40
0
 40
1
 40
1
 40
1
 40
1
 10
205.319128
 20
197.208717
 30
0.0
 10
206.385792
 20
197.208717
 30
0.0
 10
206.919128
 20
197.742050
 30
0.0
 10
206.919128
 20
198.808717
 30
0.0
  0
SPLINE
  5
128
100
AcDbEntity
  8
0
 62
7
100
AcDbSpline
 70
8
 71
3
 72
8
 73
4
 74
0
 40
0
 40
0
 40
0
 40
0
 40
1
 40
1
 40
1
 40
1
 10
206.919128
 20
198.808717
 30
0.0
 10
206.919128
 20
200.359104
 30
0.0
 10
207.452464
 20
200.408717
 30
0.0
 10
224.119128
 20
200.408717
 30
0.0
  0
SPLINE
  5
129
100
AcDbEntity
  8
0
 62
7
100
AcDbSpline
 70
8
 71
3
 72
8
 73
4
 74
0
 40
0
 40
0
 40
0
 40
0
 40
1
 40
1
 40
1
 40
1
 10
224.119128
 20
200.408717
 30
0.0
 10
235.052464
 20
200.408717
 30
0.0
 10
241.319128
 20
200.117243
 30
0.0
 10
241.319128
 20
199.608717
 30
0.0
  0
SPLINE
  5
12a
100
AcDbEntity
  8
0
 62
7
100
AcDbSpline
 70
8
 71
3
 72
8
 73
4
 74
0
 40
0
 40
0
 40
0
 40
0
 40
1
 40
1
 40
1
 40
1
 10
241.319128
 20
199.608717
 30
0.0
 10
241.319128
 20
199.101400
 30
0.0
 10
235.319128
 20
198.808717
 30
0.0
 10
224.919128
 20
198.808717
 30
0.0
  0
SPLINE
  5
12b
100
AcDbEntity
  8
0
 62
7
100
AcDbSpline
 70
8
 71
3
 72
8
 73
4
 74
0
 40
0
 40
0
 40
0
 40
0
 40
1
 40
1
 40
1
 40
1
 10
224.919128
 20
198.808717
 30
0.0
 10
209.052464
 20
198.808717
 30
0.0
 10
208.519128
 20
198.756685
 30
0.0
 10
208.519128
 20
197.208717
 30
0.0
  0
SPLINE
  5
12c
100
AcDbEntity
  8
0
 62
7
100
AcDbSpline
 70
8
 71
3
 72
8
 73
4
 74
0
 40
0
 40
0
 40
0
 40
0
 40
1
 40
1
 40
1
 40
1
 10
208.519128
 20
197.208717
 30
0.0
 10
208.519128
 20
196.142050
 30
0.0
 10
207.985792
 20
195.608717
 30
0.0
 10
206.919128
 20
195.608717
 30
0.0
  0
SPLINE
  5
12d
100
AcDbEntity
  8
0
 62
7
100
AcDbSpline
 70
8
 71
3
 72
8
 73
4
 74
0
 40
0
 40
0
 40
0
 40
0
 40
1
 40
1
 40
1
 40
1
 10
206.919128
 20
195.608717
 30
0.0
 10
205.852464
 20
195.608717
 30
0.0
 10
205.319128
 20
195.075383
 30
0.0
 10
205.319128
 20
194.008717
 30
0.0
  0
SPLINE
  5
12e
100
AcDbEntity
  8
0
 62
7
100
AcDbSpline
 70
8
 71
3
 72
8
 73
4
 74
0
 40
0
 40
0
 40
0
 40
0
 40
1
 40
1
 40
1
 40
1
 10
205.319128
 20
194.008717
 30
0.0
 10
205.319128
 20
192.675383
 30
0.0
 10
204.785792
 20
192.408717
 30
0.0
 10
202.119128
 20
192.408717
 30
0.0
  0
LWPOLYLINE
  5
12f
100
AcDbEntity
  8
0
 62
7
100
AcDbPolyline
 90
3
 70
0
 10
197.319128
 20
188.408717
 30
0.0
 10
197.319128
 20
194.008717
 30
0.0
 10
200.519128
 20
194.008717
 30
0.0
  0
SPLINE
  5
130
100
AcDbEntity
  8
0
 62
7
100
AcDbSpline
 70
8
 71
3
 72
8
 73
4
 74
0
 40
0
 40
0
 40
0
 40
0
 40
1
 40
1
 40
1
 40
1
 10
198.919128
 20
188.408717
 30
0.0
 10
198.919128
 20
184.942050
 30
0.0
 10
199.132464
 20
184.408717
 30
0.0
 10
200.519128
 20
184.408717
 30
0.0
  0
SPLINE
  5
131
100
AcDbEntity
  8
0
 62
7
100
AcDbSpline
 70
8
 71
3
 72
8
 73
4
 74
0
 40
0
 40
0
 40
0
 40
0
 40
1
 40
1
 40
1
 40
1
 10
200.519128
 20
184.408717
 30
0.0
 10
201.905792
 20
184.408717
 30
0.0
 10
202.119128
 20
183.875383
 30
0.0
 10
202.119128
 20
180.408717
 30
0.0
  0
SPLINE
  5
132
100
AcDbEntity
  8
0
 62
7
100
AcDbSpline
 70
8
 71
3
 72
8
 73
4
 74
0
 40
0
 40
0
 40
0
 40
0
 40
1
 40
1
 40
1
 40
1
 10
202.119128
 20
180.408717
 30
0.0
 10
202.119128
 20
176.942050
 30
0.0
 10
201.905792
 20
176.408717
 30
0.0
 10
200.519128
 20
176.408717
 30
0.0
  0
SPLINE
  5
133
100
AcDbEntity
  8
0
 62
7
100
AcDbSpline
 70
8
 71
3
 72
8
 73
4
 74
0
 40
0
 40
0
 40
0
 40
0
 40
1
 40
1
 40
1
 40
1
 10
200.519128
 20
176.408717
 30
0.0
 10
199.185792
 20
176.408717
 30
0.0
 10
198.919128
 20
175.875383
 30
0.0
 10
198.919128
 20
173.208717
 30
0.0
  0
SPLINE
  5
134
100
AcDbEntity
  8
0
 62
7
100
AcDbSpline
 70
8
 71
3
 72
8
 73
4
 74
0
 40
0
 40
0
 40
0
 40
0
 40
1
 40
1
 40
1
 40
1
 10
198.919128
 20
173.208717
 30
0.0
 10
198.919128
 20
170.542050
 30
0.0
 10
198.652464
 20
170.008717
 30
0.0
 10
197.319128
 20
170.008717
 30
0.0
  0
SPLINE
  5
135
100
AcDbEntity
  8
0
 62
7
100
AcDbSpline
 70
8
 71
3
 72
8
 73
4
 74
0
 40
0
 40
0
 40
0
 40
0
 40
1
 40
1
 40
1
 40
1
 10
197.319128
 20
170.008717
 30
0.0
 10
195.985792
 20
170.008717
 30
0.0
 10
195.719128
 20
169.475383
 30
0.0
 10
195.719128
 20
166.808717
 30
0.0
  0
SPLINE
  5
136
100
AcDbEntity
  8
0
 62
7
100
AcDbSpline
 70
8
 71
3
 72
8
 73
4
 74
0
 40
0
 40
0
 40
0
 40
0
 40
1
 40
1
 40
1
 40
1
 10
195.719128
 20
166.808717
 30
0.0
 10
195.719128
 20
164.142050
 30
0.0
 10
195.452464
 20
163.608717
 30
0.0
 10
194.119128
 20
163.608717
 30
0.0
  0
SPLINE
  5
137
100
AcDbEntity
  8
0
 62
7
100
AcDbSpline
 70
8
 71
3
 72
8
 73
4
 74
0
 40
0
 40
0
 40
0
 40
0
 40
1
 40
1
 40
1
 40
1
 10
194.119128
 20
163.608717
 30
0.0
 10
192.785792
 20
163.608717
 30
0.0
 10
192.519128
 20
163.075383
 30
0.0
 10
192.519128
 20
160.408717
 30
0.0
  0
SPLINE
  5
138
100
AcDbEntity
  8
0
 62
7
100
AcDbSpline
 70
8
 71
3
 72
8
 73
4
 74
0
 40
0
 40
0
 40
0
 40
0
 40
1
 40
1
 40
1
 40
1
 10
192.519128
 20
160.408717
 30
0.0
 10
192.519128
 20
157.742050
 30
0.0
 10
192.252464
 20
157.208717
 30
0.0
 10
190.919128
 20
157.208717
 30
0.0
  0
SPLINE
  5
139
100
AcDbEntity
  8
0
 62
7
100
AcDbSpline
 70
8
 71
3
 72
8
 73
4
 74
0
 40
0
 40
0
 40
0
 40
0
 40
1
 40
1
 40
1
 40
1
 10
190.919128
 20
157.208717
 30
0.0
 10
189.585792
 20
157.208717
 30
0.0
 10
189.319128
 20
156.675383
 30
0.0
 10
189.319128
 20
154.008717
 30
0.0
  0
SPLINE
  5
13a
100
AcDbEntity
  8
0
 62
7
100
AcDbSpline
 70
8
 71
3
 72
8
 73
4
 74
0
 40
0
 40
0
 40
0
 40
0
 40
1
 40
1
 40
1
 40
1
 10
189.319128
 20
154.008717
 30
0.0
 10
189.319128
 20
151.342056
 30
0.0
 10
189.052464
 20
150.808720
 30
0.0
 10
187.719128
 20
150.808720
 30
0.0
  0
SPLINE
  5
13b
100
AcDbEntity
  8
0
 62
7
100
AcDbSpline
 70
8
 71
3
 72
8
 73
4
 74
0
 40
0
 40
0
 40
0
 40
0
 40
1
 40
1
 40
1
 40
1
 10
187.719128
 20
150.808720
 30
0.0
 10
186.139640
 20
150.808720
 30
0.0
 10
186.119128
 20
150.275384
 30
0.0
 10
186.119128
 20
109.208720
 30
0.0
  0
SPLINE
  5
13c
100
AcDbEntity
  8
0
 62
7
100
AcDbSpline
 70
8
 71
3
 72
8
 73
4
 74
0
 40
0
 40
0
 40
0
 40
0
 40
1
 40
1
 40
1
 40
1
 10
186.119128
 20
109.208720
 30
0.0
 10
186.119128
 20
68.142056
 30
0.0
 10
186.098648
 20
67.608720
 30
0.0
 10
184.519128
 20
67.608720
 30
0.0
  0
SPLINE
  5
13d
100
AcDbEntity
  8
0
 62
7
100
AcDbSpline
 70
8
 71
3
 72
8
 73
4
 74
0
 40
0
 40
0
 40
0
 40
0
 40
1
 40
1
 40
1
 40
1
 10
184.519128
 20
67.608720
 30
0.0
 10
183.071512
 20
67.608720
 30
0.0
 10
182.919128
 20
67.075384
 30
0.0
 10
182.919128
 20
62.008720
 30
0.0
  0
SPLINE
  5
13e
100
AcDbEntity
  8
0
 62
7
100
AcDbSpline
 70
8
 71
3
 72
8
 73
4
 74
0
 40
0
 40
0
 40
0
 40
0
 40
1
 40
1
 40
1
 40
1
 10
182.919128
 20
62.008720
 30
0.0
 10
182.919128
 20
56.942056
 30
0.0
 10
183.071512
 20
56.408720
 30
0.0
 10
184.519128
 20
56.408720
 30
0.0
  0
SPLINE
  5
13f
100
AcDbEntity
  8
0
 62
7
100
AcDbSpline
 70
8
 71
3
 72
8
 73
4
 74
0
 40
0
 40
0
 40
0
 40
0
 40
1
 40
1
 40
1
 40
1
 10
184.519128
 20
56.408720
 30
0.0
 10
185.585792
 20
56.408720
 30
0.0
 10
186.119128
 20
55.875384
 30
0.0
 10
186.119128
 20
54.808720
 30
0.0
  0
SPLINE
  5
140
100
AcDbEntity
  8
0
 62
7
100
AcDbSpline
 70
8
 71
3
 72
8
 73
4
 74
0
 40
0
 40
0
 40
0
 40
0
 40
1
 40
1
 40
1
 40
1
 10
186.119128
 20
54.808720
 30
0.0
 10
186.119128
 20
53.742056
 30
0.0
 10
186.652464
 20
53.208720
 30
0.0
 10
187.719128
 20
53.208720
 30
0.0
  0
SPLINE
  5
141
100
AcDbEntity
  8
0
 62
7
100
AcDbSpline
 70
8
 71
3
 72
8
 73
4
 74
0
 40
0
 40
0
 40
0
 40
0
 40
1
 40
1
 40
1
 40
1
 10
187.719128
 20
53.208720
 30
0.0
 10
189.105792
 20
53.208720
 30
0.0
 10
189.319128
 20
52.675384
 30
0.0
 10
189.319128
 20
49.208720
 30
0.0
  0
SPLINE
  5
142
100
AcDbEntity
  8
0
 62
7
100
AcDbSpline
 70
8
 71
3
 72
8
 73
4
 74
0
 40
0
 40
0
 40
0
 40
0
 40
1
 40
1
 40
1
 40
1
 10
189.319128
 20
49.208720
 30
0.0
 10
189.319128
 20
45.742056
 30
0.0
 10
189.105792
 20
45.208720
 30
0.0
 10
187.719128
 20
45.208720
 30
0.0
  0
SPLINE
  5
143
100
AcDbEntity
  8
0
 62
7
100
AcDbSpline
 70
8
 71
3
 72
8
 73
4
 74
0
 40
0
 40
0
 40
0
 40
0
 40
1
 40
1
 40
1
 40
1
 10
187.719128
 20
45.208720
 30
0.0
 10
186.385792
 20
45.208720
 30
0.0
 10
186.119128
 20
44.675384
 30
0.0
 10
186.119128
 20
42.008720
 30
0.0
  0
SPLINE
  5
144
100
AcDbEntity
  8
0
 62
7
100
AcDbSpline
 70
8
 71
3
 72
8
 73
4
 74
0
 40
0
 40
0
 40
0
 40
0
 40
1
 40
1
 40
1
 40
1
 10
186.119128
 20
42.008720
 30
0.0
 10
186.119128
 20
39.342056
 30
0.0
 10
185.852464
 20
38.808720
 30
0.0
 10
184.519128
 20
38.808720
 30
0.0
  0
SPLINE
  5
145
100
AcDbEntity
  8
0
 62
7
100
AcDbSpline
 70
8
 71
3
 72
8
 73
4
 74
0
 40
0
 40
0
 40
0
 40
0
 40
1
 40
1
 40
1
 40
1
 10
184.519128
 20
38.808720
 30
0.0
 10
183.452464
 20
38.808720
 30
0.0
 10
182.919128
 20
38.275384
 30
0.0
 10
182.919128
 20
37.208720
 30
0.0
  0
SPLINE
  5
146
100
AcDbEntity
  8
0
 62
7
100
AcDbSpline
 70
8
 71
3
 72
8
 73
4
 74
0
 40
0
 40
0
 40
0
 40
0
 40
1
 40
1
 40
1
 40
1
 10
182.919128
 20
37.208720
 30
0.0
 10
182.919128
 20
35.761104
 30
0.0
 10
182.385792
 20
35.608720
 30
0.0
 10
177.319128
 20
35.608720
 30
0.0
  0
SPLINE
  5
147
100
AcDbEntity
  8
0
 62
7
100
AcDbSpline
 70
8
 71
3
 72
8
 73
4
 74
0
 40
0
 40
0
 40
0
 40
0
 40
1
 40
1
 40
1
 40
1
 10
177.319128
 20
35.608720
 30
0.0
 10
172.252464
 20
35.608720
 30
0.0
 10
171.719128
 20
35.761104
 30
0.0
 10
171.719128
 20
37.208720
 30
0.0
  0
SPLINE
  5
148
100
AcDbEntity
  8
0
 62
7
100
AcDbSpline
 70
8
 71
3
 72
8
 73
4
 74
0
 40
0
 40
0
 40
0
 40
0
 40
1
 40
1
 40
1
 40
1
 10
171.719128
 20
37.208720
 30
0.0
 10
171.719128
 20
38.675384
 30
0.0
 10
171.185792
 20
38.808720
 30
0.0
 10
165.319128
 20
38.808720
 30
0.0
  0
SPLINE
  5
149
100
AcDbEntity
  8
0
 62
7
100
AcDbSpline
 70
8
 71
3
 72
8
 73
4
 74
0
 40
0
 40
0
 40
0
 40
0
 40
1
 40
1
 40
1
 40
1
 10
165.319128
 20
38.808720
 30
0.0
 10
159.452464
 20
38.808720
 30
0.0
 10
158.919128
 20
38.942056
 30
0.0
 10
158.919128
 20
40.408720
 30
0.0
  0
SPLINE
  5
14a
100
AcDbEntity
  8
0
 62
7
100
AcDbSpline
 70
8
 71
3
 72
8
 73
4
 74
0
 40
0
 40
0
 40
0
 40
0
 40
1
 40
1
 40
1
 40
1
 10
158.919128
 20
40.408720
 30
0.0
 10
158.919128
 20
41.653168
 30
0.0
 10
158.385792
 20
42.008720
 30
0.0
 10
156.519128
 20
42.008720
 30
0.0
  0
SPLINE
  5
14b
100
AcDbEntity
  8
0
 62
7
100
AcDbSpline
 70
8
 71
3
 72
8
 73
4
 74
0
 40
0
 40
0
 40
0
 40
0
 40
1
 40
1
 40
1
 40
1
 10
156.519128
 20
42.008720
 30
0.0
 10
154.652464
 20
42.008720
 30
0.0
 10
154.119128
 20
41.653168
 30
0.0
 10
154.119128
 20
40.408720
 30
0.0
  0
SPLINE
  5
14c
100
AcDbEntity
  8
0
 62
7
100
AcDbSpline
 70
8
 71
3
 72
8
 73
4
 74
0
 40
0
 40
0
 40
0
 40
0
 40
1
 40
1
 40
1
 40
1
 10
154.119128
 20
40.408720
 30
0.0
 10
154.119128
 20
38.986496
 30
0.0
 10
153.585792
 20
38.808720
 30
0.0
 10
149.319128
 20
38.808720
 30
0.0
  0
SPLINE
  5
14d
100
AcDbEntity
  8
0
 62
7
100
AcDbSpline
 70
8
 71
3
 72
8
 73
4
 74
0
 40
0
 40
0
 40
0
 40
0
 40
1
 40
1
 40
1
 40
1
 10
149.319128
 20
38.808720
 30
0.0
 10
145.052464
 20
38.808720
 30
0.0
 10
144.519128
 20
38.630944
 30
0.0
 10
144.519128
 20
37.208720
 30
0.0
  0
SPLINE
  5
14e
100
AcDbEntity
  8
0
 62
7
100
AcDbSpline
 70
8
 71
3
 72
8
 73
4
 74
0
 40
0
 40
0
 40
0
 40
0
 40
1
 40
1
 40
1
 40
1
 10
144.519128
 20
37.208720
 30
0.0
 10
144.519128
 20
36.142056
 30
0.0
 10
143.985792
 20
35.608720
 30
0.0
 10
142.919128
 20
35.608720
 30
0.0
  0
SPLINE
  5
14f
100
AcDbEntity
  8
0
 62
7
100
AcDbSpline
 70
8
 71
3
 72
8
 73
4
 74
0
 40
0
 40
0
 40
0
 40
0
 40
1
 40
1
 40
1
 40
1
 10
142.919128
 20
35.608720
 30
0.0
 10
141.437648
 20
35.608720
 30
0.0
 10
141.319128
 20
35.075384
 30
0.0
 10
141.319128
 20
28.408720
 30
0.0
  0
LWPOLYLINE
  5
150
100
AcDbEntity
  8
0
 62
7
100
AcDbPolyline
 90
3
 70
0
 10
202.119128
 20
192.408717
 30
0.0
 10
198.919128
 20
192.408717
 30
0.0
 10
198.919128
 20
188.408717
 30
0.0
  0
SPLINE
  5
151
100
AcDbEntity
  8
0
 62
7
100
AcDbSpline
 70
8
 71
3
 72
8
 73
4
 74
0
 40
0
 40
0
 40
0
 40
0
 40
1
 40
1
 40
1
 40
1
 10
144.519128
 20
21.208720
 30
0.0
 10
147.185792
 20
21.208720
 30
0.0
 10
147.719128
 20
20.942056
 30
0.0
 10
147.719128
 20
19.608720
 30
0.0
  0
SPLINE
  5
152
100
AcDbEntity
  8
0
 62
7
100
AcDbSpline
 70
8
 71
3
 72
8
 73
4
 74
0
 40
0
 40
0
 40
0
 40
0
 40
1
 40
1
 40
1
 40
1
 10
147.719128
 20
19.608720
 30
0.0
 10
147.719128
 20
18.142056
 30
0.0
 10
148.252464
 20
18.008720
 30
0.0
 10
154.119128
 20
18.008720
 30
0.0
  0
LWPOLYLINE
  5
153
100
AcDbEntity
  8
0
 62
7
100
AcDbPolyline
 90
3
 70
0
 10
141.319128
 20
28.408720
 30
0.0
 10
141.319128
 20
21.208720
 30
0.0
 10
144.519128
 20
21.208720
 30
0.0
  0
SPLINE
  5
154
100
AcDbEntity
  8
0
 62
7
100
AcDbSpline
 70
8
 71
3
 72
8
 73
4
 74
0
 40
0
 40
0
 40
0
 40
0
 40
1
 40
1
 40
1
 40
1
 10
165.319128
 20
11.608720
 30
0.0
 10
169.585792
 20
11.608720
 30
0.0
 10
170.119128
 20
11.430944
 30
0.0
 10
170.119128
 20
10.008720
 30
0.0
  0
SPLINE
  5
155
100
AcDbEntity
  8
0
 62
7
100
AcDbSpline
 70
8
 71
3
 72
8
 73
4
 74
0
 40
0
 40
0
 40
0
 40
0
 40
1
 40
1
 40
1
 40
1
 10
170.119128
 20
10.008720
 30
0.0
 10
170.119128
 20
8.764272
 30
0.0
 10
170.652464
 20
8.408720
 30
0.0
 10
172.519128
 20
8.408720
 30
0.0
  0
SPLINE
  5
156
100
AcDbEntity
  8
0
 62
7
100
AcDbSpline
 70
8
 71
3
 72
8
 73
4
 74
0
 40
0
 40
0
 40
0
 40
0
 40
1
 40
1
 40
1
 40
1
 10
172.519128
 20
8.408720
 30
0.0
 10
174.385792
 20
8.408720
 30
0.0
 10
174.919128
 20
8.764272
 30
0.0
 10
174.919128
 20
10.008720
 30
0.0
  0
SPLINE
  5
157
100
AcDbEntity
  8
0
 62
7
100
AcDbSpline
 70
8
 71
3
 72
8
 73
4
 74
0
 40
0
 40
0
 40
0
 40
0
 40
1
 40
1
 40
1
 40
1
 10
174.919128
 20
10.008720
 30
0.0
 10
174.919128
 20
11.075384
 30
0.0
 10
175.452464
 20
11.608720
 30
0.0
 10
176.519128
 20
11.608720
 30
0.0
  0
SPLINE
  5
158
100
AcDbEntity
  8
0
 62
7
100
AcDbSpline
 70
8
 71
3
 72
8
 73
4
 74
0
 40
0
 40
0
 40
0
 40
0
 40
1
 40
1
 40
1
 40
1
 10
176.519128
 20
11.608720
 30
0.0
 10
177.585792
 20
11.608720
 30
0.0
 10
178.119128
 20
12.142056
 30
0.0
 10
178.119128
 20
13.208720
 30
0.0
  0
SPLINE
  5
159
100
AcDbEntity
  8
0
 62
7
100
AcDbSpline
 70
8
 71
3
 72
8
 73
4
 74
0
 40
0
 40
0
 40
0
 40
0
 40
1
 40
1
 40
1
 40
1
 10
178.119128
 20
13.208720
 30
0.0
 10
178.119128
 20
14.275384
 30
0.0
 10
178.652464
 20
14.808720
 30
0.0
 10
179.719128
 20
14.808720
 30
0.0
  0
SPLINE
  5
15a
100
AcDbEntity
  8
0
 62
7
100
AcDbSpline
 70
8
 71
3
 72
8
 73
4
 74
0
 40
0
 40
0
 40
0
 40
0
 40
1
 40
1
 40
1
 40
1
 10
179.719128
 20
14.808720
 30
0.0
 10
180.785792
 20
14.808720
 30
0.0
 10
181.319128
 20
15.342056
 30
0.0
 10
181.319128
 20
16.408720
 30
0.0
  0
SPLINE
  5
15b
100
AcDbEntity
  8
0
 62
7
100
AcDbSpline
 70
8
 71
3
 72
8
 73
4
 74
0
 40
0
 40
0
 40
0
 40
0
 40
1
 40
1
 40
1
 40
1
 10
181.319128
 20
16.408720
 30
0.0
 10
181.319128
 20
17.475384
 30
0.0
 10
181.852464
 20
18.008720
 30
0.0
 10
182.919128
 20
18.008720
 30
0.0
  0
SPLINE
  5
15c
100
AcDbEntity
  8
0
 62
7
100
AcDbSpline
 70
8
 71
3
 72
8
 73
4
 74
0
 40
0
 40
0
 40
0
 40
0
 40
1
 40
1
 40
1
 40
1
 10
182.919128
 20
18.008720
 30
0.0
 10
183.985792
 20
18.008720
 30
0.0
 10
184.519128
 20
18.542056
 30
0.0
 10
184.519128
 20
19.608720
 30
0.0
  0
SPLINE
  5
15d
100
AcDbEntity
  8
0
 62
7
100
AcDbSpline
 70
8
 71
3
 72
8
 73
4
 74
0
 40
0
 40
0
 40
0
 40
0
 40
1
 40
1
 40
1
 40
1
 10
184.519128
 20
19.608720
 30
0.0
 10
184.519128
 20
20.942056
 30
0.0
 10
185.052464
 20
21.208720
 30
0.0
 10
187.719128
 20
21.208720
 30
0.0
  0
SPLINE
  5
15e
100
AcDbEntity
  8
0
 62
7
100
AcDbSpline
 70
8
 71
3
 72
8
 73
4
 74
0
 40
0
 40
0
 40
0
 40
0
 40
1
 40
1
 40
1
 40
1
 10
187.719128
 20
21.208720
 30
0.0
 10
190.385792
 20
21.208720
 30
0.0
 10
190.919128
 20
21.475384
 30
0.0
 10
190.919128
 20
22.808720
 30
0.0
  0
SPLINE
  5
15f
100
AcDbEntity
  8
0
 62
7
100
AcDbSpline
 70
8
 71
3
 72
8
 73
4
 74
0
 40
0
 40
0
 40
0
 40
0
 40
1
 40
1
 40
1
 40
1
 10
190.919128
 20
22.808720
 30
0.0
 10
190.919128
 20
24.195384
 30
0.0
 10
191.452464
 20
24.408720
 30
0.0
 10
194.919128
 20
24.408720
 30
0.0
  0
SPLINE
  5
160
100
AcDbEntity
  8
0
 62
7
100
AcDbSpline
 70
8
 71
3
 72
8
 73
4
 74
0
 40
0
 40
0
 40
0
 40
0
 40
1
 40
1
 40
1
 40
1
 10
194.919128
 20
24.408720
 30
0.0
 10
198.385792
 20
24.408720
 30
0.0
 10
198.919128
 20
24.195384
 30
0.0
 10
198.919128
 20
22.808720
 30
0.0
  0
SPLINE
  5
161
100
AcDbEntity
  8
0
 62
7
100
AcDbSpline
 70
8
 71
3
 72
8
 73
4
 74
0
 40
0
 40
0
 40
0
 40
0
 40
1
 40
1
 40
1
 40
1
 10
198.919128
 20
22.808720
 30
0.0
 10
198.919128
 20
21.928720
 30
0.0
 10
199.279128
 20
21.208720
 30
0.0
 10
199.719128
 20
21.208720
 30
0.0
  0
SPLINE
  5
162
100
AcDbEntity
  8
0
 62
7
100
AcDbSpline
 70
8
 71
3
 72
8
 73
4
 74
0
 40
0
 40
0
 40
0
 40
0
 40
1
 40
1
 40
1
 40
1
 10
199.719128
 20
21.208720
 30
0.0
 10
200.159128
 20
21.208720
 30
0.0
 10
200.519128
 20
21.928720
 30
0.0
 10
200.519128
 20
22.808720
 30
0.0
  0
SPLINE
  5
163
100
AcDbEntity
  8
0
 62
7
100
AcDbSpline
 70
8
 71
3
 72
8
 73
4
 74
0
 40
0
 40
0
 40
0
 40
0
 40
1
 40
1
 40
1
 40
1
 10
200.519128
 20
22.808720
 30
0.0
 10
200.519128
 20
23.875384
 30
0.0
 10
201.052464
 20
24.408720
 30
0.0
 10
202.119128
 20
24.408720
 30
0.0
  0
SPLINE
  5
164
100
AcDbEntity
  8
0
 62
7
100
AcDbSpline
 70
8
 71
3
 72
8
 73
4
 74
0
 40
0
 40
0
 40
0
 40
0
 40
1
 40
1
 40
1
 40
1
 10
202.119128
 20
24.408720
 30
0.0
 10
203.185792
 20
24.408720
 30
0.0
 10
203.719128
 20
24.942056
 30
0.0
 10
203.719128
 20
26.008720
 30
0.0
  0
SPLINE
  5
165
100
AcDbEntity
  8
0
 62
7
100
AcDbSpline
 70
8
 71
3
 72
8
 73
4
 74
0
 40
0
 40
0
 40
0
 40
0
 40
1
 40
1
 40
1
 40
1
 10
203.719128
 20
26.008720
 30
0.0
 10
203.719128
 20
27.075384
 30
0.0
 10
204.252464
 20
27.608720
 30
0.0
 10
205.319128
 20
27.608720
 30
0.0
  0
SPLINE
  5
166
100
AcDbEntity
  8
0
 62
7
100
AcDbSpline
 70
8
 71
3
 72
8
 73
4
 74
0
 40
0
 40
0
 40
0
 40
0
 40
1
 40
1
 40
1
 40
1
 10
205.319128
 20
27.608720
 30
0.0
 10
206.822160
 20
27.608720
 30
0.0
 10
206.919128
 20
28.142056
 30
0.0
 10
206.919128
 20
36.408720
 30
0.0
  0
SPLINE
  5
167
100
AcDbEntity
  8
0
 62
7
100
AcDbSpline
 70
8
 71
3
 72
8
 73
4
 74
0
 40
0
 40
0
 40
0
 40
0
 40
1
 40
1
 40
1
 40
1
 10
206.919128
 20
36.408720
 30
0.0
 10
206.919128
 20
44.675384
 30
0.0
 10
206.822160
 20
45.208720
 30
0.0
 10
205.319128
 20
45.208720
 30
0.0
  0
SPLINE
  5
168
100
AcDbEntity
  8
0
 62
7
100
AcDbSpline
 70
8
 71
3
 72
8
 73
4
 74
0
 40
0
 40
0
 40
0
 40
0
 40
1
 40
1
 40
1
 40
1
 10
205.319128
 20
45.208720
 30
0.0
 10
204.252464
 20
45.208720
 30
0.0
 10
203.719128
 20
45.742056
 30
0.0
 10
203.719128
 20
46.808720
 30
0.0
  0
SPLINE
  5
169
100
AcDbEntity
  8
0
 62
7
100
AcDbSpline
 70
8
 71
3
 72
8
 73
4
 74
0
 40
0
 40
0
 40
0
 40
0
 40
1
 40
1
 40
1
 40
1
 10
203.719128
 20
46.808720
 30
0.0
 10
203.719128
 20
48.142056
 30
0.0
 10
203.185792
 20
48.408720
 30
0.0
 10
200.519128
 20
48.408720
 30
0.0
  0
SPLINE
  5
16a
100
AcDbEntity
  8
0
 62
7
100
AcDbSpline
 70
8
 71
3
 72
8
 73
4
 74
0
 40
0
 40
0
 40
0
 40
0
 40
1
 40
1
 40
1
 40
1
 10
200.519128
 20
48.408720
 30
0.0
 10
197.852464
 20
48.408720
 30
0.0
 10
197.319128
 20
48.675384
 30
0.0
 10
197.319128
 20
50.008720
 30
0.0
  0
SPLINE
  5
16b
100
AcDbEntity
  8
0
 62
7
100
AcDbSpline
 70
8
 71
3
 72
8
 73
4
 74
0
 40
0
 40
0
 40
0
 40
0
 40
1
 40
1
 40
1
 40
1
 10
197.319128
 20
50.008720
 30
0.0
 10
197.319128
 20
51.342056
 30
0.0
 10
196.785792
 20
51.608720
 30
0.0
 10
194.119128
 20
51.608720
 30
0.0
  0
LWPOLYLINE
  5
16c
100
AcDbEntity
  8
0
 62
7
100
AcDbPolyline
 90
5
 70
0
 10
154.119128
 20
18.008720
 30
0.0
 10
160.519128
 20
18.008720
 30
0.0
 10
160.519128
 20
14.808720
 30
0.0
 10
160.519128
 20
11.608720
 30
0.0
 10
165.319128
 20
11.608720
 30
0.0
  0
SPLINE
  5
16d
100
AcDbEntity
  8
0
 62
7
100
AcDbSpline
 70
8
 71
3
 72
8
 73
4
 74
0
 40
0
 40
0
 40
0
 40
0
 40
1
 40
1
 40
1
 40
1
 10
198.919128
 20
78.808720
 30
0.0
 10
198.919128
 20
77.048720
 30
0.0
 10
199.279128
 20
75.608720
 30
0.0
 10
199.719128
 20
75.608720
 30
0.0
  0
SPLINE
  5
16e
100
AcDbEntity
  8
0
 62
7
100
AcDbSpline
 70
8
 71
3
 72
8
 73
4
 74
0
 40
0
 40
0
 40
0
 40
0
 40
1
 40
1
 40
1
 40
1
 10
199.719128
 20
75.608720
 30
0.0
 10
200.185792
 20
75.608720
 30
0.0
 10
200.519128
 20
78.275384
 30
0.0
 10
200.519128
 20
82.008720
 30
0.0
  0
SPLINE
  5
16f
100
AcDbEntity
  8
0
 62
7
100
AcDbSpline
 70
8
 71
3
 72
8
 73
4
 74
0
 40
0
 40
0
 40
0
 40
0
 40
1
 40
1
 40
1
 40
1
 10
200.519128
 20
82.008720
 30
0.0
 10
200.519128
 20
87.875384
 30
0.0
 10
200.652464
 20
88.408720
 30
0.0
 10
202.119128
 20
88.408720
 30
0.0
  0
SPLINE
  5
170
100
AcDbEntity
  8
0
 62
7
100
AcDbSpline
 70
8
 71
3
 72
8
 73
4
 74
0
 40
0
 40
0
 40
0
 40
0
 40
1
 40
1
 40
1
 40
1
 10
202.119128
 20
88.408720
 30
0.0
 10
203.452464
 20
88.408720
 30
0.0
 10
203.719128
 20
88.942056
 30
0.0
 10
203.719128
 20
91.608720
 30
0.0
  0
LWPOLYLINE
  5
171
100
AcDbEntity
  8
0
 62
7
100
AcDbPolyline
 90
7
 70
0
 10
194.119128
 20
51.608720
 30
0.0
 10
190.919128
 20
51.608720
 30
0.0
 10
190.919128
 20
66.808720
 30
0.0
 10
190.919128
 20
82.008720
 30
0.0
 10
194.919128
 20
82.008720
 30
0.0
 10
198.919128
 20
82.008720
 30
0.0
 10
198.919128
 20
78.808720
 30
0.0
  0
SPLINE
  5
172
100
AcDbEntity
  8
0
 62
7
100
AcDbSpline
 70
8
 71
3
 72
8
 73
4
 74
0
 40
0
 40
0
 40
0
 40
0
 40
1
 40
1
 40
1
 40
1
 10
208.519128
 20
94.808720
 30
0.0
 10
212.785792
 20
94.808720
 30
0.0
 10
213.319128
 20
94.986496
 30
0.0
 10
213.319128
 20
96.408720
 30
0.0
  0
SPLINE
  5
173
100
AcDbEntity
  8
0
 62
7
100
AcDbSpline
 70
8
 71
3
 72
8
 73
4
 74
0
 40
0
 40
0
 40
0
 40
0
 40
1
 40
1
 40
1
 40
1
 10
213.319128
 20
96.408720
 30
0.0
 10
213.319128
 20
97.475384
 30
0.0
 10
213.852464
 20
98.008720
 30
0.0
 10
214.919128
 20
98.008720
 30
0.0
  0
SPLINE
  5
174
100
AcDbEntity
  8
0
 62
7
100
AcDbSpline
 70
8
 71
3
 72
8
 73
4
 74
0
 40
0
 40
0
 40
0
 40
0
 40
1
 40
1
 40
1
 40
1
 10
214.919128
 20
98.008720
 30
0.0
 10
216.305792
 20
98.008720
 30
0.0
 10
216.519128
 20
98.542056
 30
0.0
 10
216.519128
 20
102.008720
 30
0.0
  0
SPLINE
  5
175
100
AcDbEntity
  8
0
 62
7
100
AcDbSpline
 70
8
 71
3
 72
8
 73
4
 74
0
 40
0
 40
0
 40
0
 40
0
 40
1
 40
1
 40
1
 40
1
 10
216.519128
 20
102.008720
 30
0.0
 10
216.519128
 20
105.475384
 30
0.0
 10
216.305792
 20
106.008720
 30
0.0
 10
214.919128
 20
106.008720
 30
0.0
  0
SPLINE
  5
176
100
AcDbEntity
  8
0
 62
7
100
AcDbSpline
 70
8
 71
3
 72
8
 73
4
 74
0
 40
0
 40
0
 40
0
 40
0
 40
1
 40
1
 40
1
 40
1
 10
214.919128
 20
106.008720
 30
0.0
 10
213.585792
 20
106.008720
 30
0.0
 10
213.319128
 20
106.542056
 30
0.0
 10
213.319128
 20
109.208720
 30
0.0
  0
SPLINE
  5
177
100
AcDbEntity
  8
0
 62
7
100
AcDbSpline
 70
8
 71
3
 72
8
 73
4
 74
0
 40
0
 40
0
 40
0
 40
0
 40
1
 40
1
 40
1
 40
1
 10
213.319128
 20
109.208720
 30
0.0
 10
213.319128
 20
111.875384
 30
0.0
 10
213.052464
 20
112.408720
 30
0.0
 10
211.719128
 20
112.408720
 30
0.0
  0
SPLINE
  5
178
100
AcDbEntity
  8
0
 62
7
100
AcDbSpline
 70
8
 71
3
 72
8
 73
4
 74
0
 40
0
 40
0
 40
0
 40
0
 40
1
 40
1
 40
1
 40
1
 10
211.719128
 20
112.408720
 30
0.0
 10
210.296904
 20
112.408720
 30
0.0
 10
210.119128
 20
112.942056
 30
0.0
 10
210.119128
 20
117.208720
 30
0.0
  0
SPLINE
  5
179
100
AcDbEntity
  8
0
 62
7
100
AcDbSpline
 70
8
 71
3
 72
8
 73
4
 74
0
 40
0
 40
0
 40
0
 40
0
 40
1
 40
1
 40
1
 40
1
 10
210.119128
 20
117.208720
 30
0.0
 10
210.119128
 20
121.475384
 30
0.0
 10
209.941352
 20
122.008720
 30
0.0
 10
208.519128
 20
122.008720
 30
0.0
  0
SPLINE
  5
17a
100
AcDbEntity
  8
0
 62
7
100
AcDbSpline
 70
8
 71
3
 72
8
 73
4
 74
0
 40
0
 40
0
 40
0
 40
0
 40
1
 40
1
 40
1
 40
1
 10
208.519128
 20
122.008720
 30
0.0
 10
207.025792
 20
122.008720
 30
0.0
 10
206.919128
 20
122.542056
 30
0.0
 10
206.919128
 20
130.008720
 30
0.0
  0
SPLINE
  5
17b
100
AcDbEntity
  8
0
 62
7
100
AcDbSpline
 70
8
 71
3
 72
8
 73
4
 74
0
 40
0
 40
0
 40
0
 40
0
 40
1
 40
1
 40
1
 40
1
 10
206.919128
 20
130.008720
 30
0.0
 10
206.919128
 20
137.475384
 30
0.0
 10
206.812464
 20
138.008720
 30
0.0
 10
205.319128
 20
138.008720
 30
0.0
  0
SPLINE
  5
17c
100
AcDbEntity
  8
0
 62
7
100
AcDbSpline
 70
8
 71
3
 72
8
 73
4
 74
0
 40
0
 40
0
 40
0
 40
0
 40
1
 40
1
 40
1
 40
1
 10
205.319128
 20
138.008720
 30
0.0
 10
203.837648
 20
138.008720
 30
0.0
 10
203.719128
 20
138.542056
 30
0.0
 10
203.719128
 20
145.208720
 30
0.0
  0
SPLINE
  5
17d
100
AcDbEntity
  8
0
 62
7
100
AcDbSpline
 70
8
 71
3
 72
8
 73
4
 74
0
 40
0
 40
0
 40
0
 40
0
 40
1
 40
1
 40
1
 40
1
 10
203.719128
 20
145.208720
 30
0.0
 10
203.719128
 20
151.875384
 30
0.0
 10
203.837648
 20
152.408717
 30
0.0
 10
205.319128
 20
152.408717
 30
0.0
  0
SPLINE
  5
17e
100
AcDbEntity
  8
0
 62
7
100
AcDbSpline
 70
8
 71
3
 72
8
 73
4
 74
0
 40
0
 40
0
 40
0
 40
0
 40
1
 40
1
 40
1
 40
1
 10
205.319128
 20
152.408717
 30
0.0
 10
206.652464
 20
152.408717
 30
0.0
 10
206.919128
 20
152.942053
 30
0.0
 10
206.919128
 20
155.608717
 30
0.0
  0
SPLINE
  5
17f
100
AcDbEntity
  8
0
 62
7
100
AcDbSpline
 70
8
 71
3
 72
8
 73
4
 74
0
 40
0
 40
0
 40
0
 40
0
 40
1
 40
1
 40
1
 40
1
 10
206.919128
 20
155.608717
 30
0.0
 10
206.919128
 20
158.275383
 30
0.0
 10
207.185792
 20
158.808717
 30
0.0
 10
208.519128
 20
158.808717
 30
0.0
  0
SPLINE
  5
180
100
AcDbEntity
  8
0
 62
7
100
AcDbSpline
 70
8
 71
3
 72
8
 73
4
 74
0
 40
0
 40
0
 40
0
 40
0
 40
1
 40
1
 40
1
 40
1
 10
208.519128
 20
158.808717
 30
0.0
 10
209.852464
 20
158.808717
 30
0.0
 10
210.119128
 20
159.342050
 30
0.0
 10
210.119128
 20
162.008717
 30
0.0
  0
SPLINE
  5
181
100
AcDbEntity
  8
0
 62
7
100
AcDbSpline
 70
8
 71
3
 72
8
 73
4
 74
0
 40
0
 40
0
 40
0
 40
0
 40
1
 40
1
 40
1
 40
1
 10
210.119128
 20
162.008717
 30
0.0
 10
210.119128
 20
164.675383
 30
0.0
 10
210.385792
 20
165.208717
 30
0.0
 10
211.719128
 20
165.208717
 30
0.0
  0
SPLINE
  5
182
100
AcDbEntity
  8
0
 62
7
100
AcDbSpline
 70
8
 71
3
 72
8
 73
4
 74
0
 40
0
 40
0
 40
0
 40
0
 40
1
 40
1
 40
1
 40
1
 10
211.719128
 20
165.208717
 30
0.0
 10
213.105792
 20
165.208717
 30
0.0
 10
213.319128
 20
165.742050
 30
0.0
 10
213.319128
 20
169.208717
 30
0.0
  0
SPLINE
  5
183
100
AcDbEntity
  8
0
 62
7
100
AcDbSpline
 70
8
 71
3
 72
8
 73
4
 74
0
 40
0
 40
0
 40
0
 40
0
 40
1
 40
1
 40
1
 40
1
 10
213.319128
 20
169.208717
 30
0.0
 10
213.319128
 20
172.675383
 30
0.0
 10
213.105792
 20
173.208717
 30
0.0
 10
211.719128
 20
173.208717
 30
0.0
  0
SPLINE
  5
184
100
AcDbEntity
  8
0
 62
7
100
AcDbSpline
 70
8
 71
3
 72
8
 73
4
 74
0
 40
0
 40
0
 40
0
 40
0
 40
1
 40
1
 40
1
 40
1
 10
211.719128
 20
173.208717
 30
0.0
 10
210.332464
 20
173.208717
 30
0.0
 10
210.119128
 20
173.742050
 30
0.0
 10
210.119128
 20
177.208717
 30
0.0
  0
SPLINE
  5
185
100
AcDbEntity
  8
0
 62
7
100
AcDbSpline
 70
8
 71
3
 72
8
 73
4
 74
0
 40
0
 40
0
 40
0
 40
0
 40
1
 40
1
 40
1
 40
1
 10
210.119128
 20
177.208717
 30
0.0
 10
210.119128
 20
181.119828
 30
0.0
 10
210.172488
 20
181.208717
 30
0.0
 10
212.519128
 20
181.208717
 30
0.0
  0
SPLINE
  5
186
100
AcDbEntity
  8
0
 62
7
100
AcDbSpline
 70
8
 71
3
 72
8
 73
4
 74
0
 40
0
 40
0
 40
0
 40
0
 40
1
 40
1
 40
1
 40
1
 10
212.519128
 20
181.208717
 30
0.0
 10
214.385792
 20
181.208717
 30
0.0
 10
214.919128
 20
180.853162
 30
0.0
 10
214.919128
 20
179.608717
 30
0.0
  0
SPLINE
  5
187
100
AcDbEntity
  8
0
 62
7
100
AcDbSpline
 70
8
 71
3
 72
8
 73
4
 74
0
 40
0
 40
0
 40
0
 40
0
 40
1
 40
1
 40
1
 40
1
 10
214.919128
 20
179.608717
 30
0.0
 10
214.919128
 20
178.542050
 30
0.0
 10
215.452464
 20
178.008717
 30
0.0
 10
216.519128
 20
178.008717
 30
0.0
  0
SPLINE
  5
188
100
AcDbEntity
  8
0
 62
7
100
AcDbSpline
 70
8
 71
3
 72
8
 73
4
 74
0
 40
0
 40
0
 40
0
 40
0
 40
1
 40
1
 40
1
 40
1
 10
216.519128
 20
178.008717
 30
0.0
 10
217.585792
 20
178.008717
 30
0.0
 10
218.119128
 20
177.475383
 30
0.0
 10
218.119128
 20
176.408717
 30
0.0
  0
SPLINE
  5
189
100
AcDbEntity
  8
0
 62
7
100
AcDbSpline
 70
8
 71
3
 72
8
 73
4
 74
0
 40
0
 40
0
 40
0
 40
0
 40
1
 40
1
 40
1
 40
1
 10
218.119128
 20
176.408717
 30
0.0
 10
218.119128
 20
175.075383
 30
0.0
 10
218.652464
 20
174.808717
 30
0.0
 10
221.319128
 20
174.808717
 30
0.0
  0
LWPOLYLINE
  5
18a
100
AcDbEntity
  8
0
 62
7
100
AcDbPolyline
 90
3
 70
0
 10
203.719128
 20
91.608720
 30
0.0
 10
203.719128
 20
94.808720
 30
0.0
 10
208.519128
 20
94.808720
 30
0.0
  0
SPLINE
  5
18b
100
AcDbEntity
  8
0
 62
7
100
AcDbSpline
 70
8
 71
3
 72
8
 73
4
 74
0
 40
0
 40
0
 40
0
 40
0
 40
1
 40
1
 40
1
 40
1
 10
224.519128
 20
170.808717
 30
0.0
 10
224.519128
 20
167.342050
 30
0.0
 10
224.305792
 20
166.808717
 30
0.0
 10
222.919128
 20
166.808717
 30
0.0
  0
SPLINE
  5
18c
100
AcDbEntity
  8
0
 62
7
100
AcDbSpline
 70
8
 71
3
 72
8
 73
4
 74
0
 40
0
 40
0
 40
0
 40
0
 40
1
 40
1
 40
1
 40
1
 10
222.919128
 20
166.808717
 30
0.0
 10
221.852464
 20
166.808717
 30
0.0
 10
221.319128
 20
166.275383
 30
0.0
 10
221.319128
 20
165.208717
 30
0.0
  0
SPLINE
  5
18d
100
AcDbEntity
  8
0
 62
7
100
AcDbSpline
 70
8
 71
3
 72
8
 73
4
 74
0
 40
0
 40
0
 40
0
 40
0
 40
1
 40
1
 40
1
 40
1
 10
221.319128
 20
165.208717
 30
0.0
 10
221.319128
 20
164.142050
 30
0.0
 10
220.785792
 20
163.608717
 30
0.0
 10
219.719128
 20
163.608717
 30
0.0
  0
SPLINE
  5
18e
100
AcDbEntity
  8
0
 62
7
100
AcDbSpline
 70
8
 71
3
 72
8
 73
4
 74
0
 40
0
 40
0
 40
0
 40
0
 40
1
 40
1
 40
1
 40
1
 10
219.719128
 20
163.608717
 30
0.0
 10
218.474680
 20
163.608717
 30
0.0
 10
218.119128
 20
163.075383
 30
0.0
 10
218.119128
 20
161.208717
 30
0.0
  0
SPLINE
  5
18f
100
AcDbEntity
  8
0
 62
7
100
AcDbSpline
 70
8
 71
3
 72
8
 73
4
 74
0
 40
0
 40
0
 40
0
 40
0
 40
1
 40
1
 40
1
 40
1
 10
218.119128
 20
161.208717
 30
0.0
 10
218.119128
 20
158.942050
 30
0.0
 10
218.296904
 20
158.808717
 30
0.0
 10
221.319128
 20
158.808717
 30
0.0
  0
SPLINE
  5
190
100
AcDbEntity
  8
0
 62
7
100
AcDbSpline
 70
8
 71
3
 72
8
 73
4
 74
0
 40
0
 40
0
 40
0
 40
0
 40
1
 40
1
 40
1
 40
1
 10
221.319128
 20
158.808717
 30
0.0
 10
223.985792
 20
158.808717
 30
0.0
 10
224.519128
 20
158.542050
 30
0.0
 10
224.519128
 20
157.208717
 30
0.0
  0
SPLINE
  5
191
100
AcDbEntity
  8
0
 62
7
100
AcDbSpline
 70
8
 71
3
 72
8
 73
4
 74
0
 40
0
 40
0
 40
0
 40
0
 40
1
 40
1
 40
1
 40
1
 10
224.519128
 20
157.208717
 30
0.0
 10
224.519128
 20
156.328717
 30
0.0
 10
224.879128
 20
155.608717
 30
0.0
 10
225.319128
 20
155.608717
 30
0.0
  0
SPLINE
  5
192
100
AcDbEntity
  8
0
 62
7
100
AcDbSpline
 70
8
 71
3
 72
8
 73
4
 74
0
 40
0
 40
0
 40
0
 40
0
 40
1
 40
1
 40
1
 40
1
 10
225.319128
 20
155.608717
 30
0.0
 10
225.759128
 20
155.608717
 30
0.0
 10
226.119128
 20
156.328717
 30
0.0
 10
226.119128
 20
157.208717
 30
0.0
  0
SPLINE
  5
193
100
AcDbEntity
  8
0
 62
7
100
AcDbSpline
 70
8
 71
3
 72
8
 73
4
 74
0
 40
0
 40
0
 40
0
 40
0
 40
1
 40
1
 40
1
 40
1
 10
226.119128
 20
157.208717
 30
0.0
 10
226.119128
 20
158.275383
 30
0.0
 10
226.652464
 20
158.808717
 30
0.0
 10
227.719128
 20
158.808717
 30
0.0
  0
SPLINE
  5
194
100
AcDbEntity
  8
0
 62
7
100
AcDbSpline
 70
8
 71
3
 72
8
 73
4
 74
0
 40
0
 40
0
 40
0
 40
0
 40
1
 40
1
 40
1
 40
1
 10
227.719128
 20
158.808717
 30
0.0
 10
228.785792
 20
158.808717
 30
0.0
 10
229.319128
 20
159.342050
 30
0.0
 10
229.319128
 20
160.408717
 30
0.0
  0
SPLINE
  5
195
100
AcDbEntity
  8
0
 62
7
100
AcDbSpline
 70
8
 71
3
 72
8
 73
4
 74
0
 40
0
 40
0
 40
0
 40
0
 40
1
 40
1
 40
1
 40
1
 10
229.319128
 20
160.408717
 30
0.0
 10
229.319128
 20
161.742050
 30
0.0
 10
229.852464
 20
162.008717
 30
0.0
 10
232.519128
 20
162.008717
 30
0.0
  0
SPLINE
  5
196
100
AcDbEntity
  8
0
 62
7
100
AcDbSpline
 70
8
 71
3
 72
8
 73
4
 74
0
 40
0
 40
0
 40
0
 40
0
 40
1
 40
1
 40
1
 40
1
 10
232.519128
 20
162.008717
 30
0.0
 10
235.185792
 20
162.008717
 30
0.0
 10
235.719128
 20
162.275383
 30
0.0
 10
235.719128
 20
163.608717
 30
0.0
  0
SPLINE
  5
197
100
AcDbEntity
  8
0
 62
7
100
AcDbSpline
 70
8
 71
3
 72
8
 73
4
 74
0
 40
0
 40
0
 40
0
 40
0
 40
1
 40
1
 40
1
 40
1
 10
235.719128
 20
163.608717
 30
0.0
 10
235.719128
 20
164.675383
 30
0.0
 10
236.252464
 20
165.208717
 30
0.0
 10
237.319128
 20
165.208717
 30
0.0
  0
SPLINE
  5
198
100
AcDbEntity
  8
0
 62
7
100
AcDbSpline
 70
8
 71
3
 72
8
 73
4
 74
0
 40
0
 40
0
 40
0
 40
0
 40
1
 40
1
 40
1
 40
1
 10
237.319128
 20
165.208717
 30
0.0
 10
238.385792
 20
165.208717
 30
0.0
 10
238.919128
 20
165.742050
 30
0.0
 10
238.919128
 20
166.808717
 30
0.0
  0
SPLINE
  5
199
100
AcDbEntity
  8
0
 62
7
100
AcDbSpline
 70
8
 71
3
 72
8
 73
4
 74
0
 40
0
 40
0
 40
0
 40
0
 40
1
 40
1
 40
1
 40
1
 10
238.919128
 20
166.808717
 30
0.0
 10
238.919128
 20
167.744950
 30
0.0
 10
239.452464
 20
168.408717
 30
0.0
 10
240.204720
 20
168.408717
 30
0.0
  0
SPLINE
  5
19a
100
AcDbEntity
  8
0
 62
7
100
AcDbSpline
 70
8
 71
3
 72
8
 73
4
 74
0
 40
0
 40
0
 40
0
 40
0
 40
1
 40
1
 40
1
 40
1
 10
240.204720
 20
168.408717
 30
0.0
 10
241.048336
 20
168.408717
 30
0.0
 10
241.323368
 20
167.973674
 30
0.0
 10
241.004720
 20
167.143286
 30
0.0
  0
SPLINE
  5
19b
100
AcDbEntity
  8
0
 62
7
100
AcDbSpline
 70
8
 71
3
 72
8
 73
4
 74
0
 40
0
 40
0
 40
0
 40
0
 40
1
 40
1
 40
1
 40
1
 10
241.004720
 20
167.143286
 30
0.0
 10
240.737640
 20
166.447299
 30
0.0
 10
240.519128
 20
165.367300
 30
0.0
 10
240.519128
 20
164.743286
 30
0.0
  0
SPLINE
  5
19c
100
AcDbEntity
  8
0
 62
7
100
AcDbSpline
 70
8
 71
3
 72
8
 73
4
 74
0
 40
0
 40
0
 40
0
 40
0
 40
1
 40
1
 40
1
 40
1
 10
240.519128
 20
164.743286
 30
0.0
 10
240.519128
 20
164.119273
 30
0.0
 10
239.799128
 20
163.608717
 30
0.0
 10
238.919128
 20
163.608717
 30
0.0
  0
SPLINE
  5
19d
100
AcDbEntity
  8
0
 62
7
100
AcDbSpline
 70
8
 71
3
 72
8
 73
4
 74
0
 40
0
 40
0
 40
0
 40
0
 40
1
 40
1
 40
1
 40
1
 10
238.919128
 20
163.608717
 30
0.0
 10
237.852464
 20
163.608717
 30
0.0
 10
237.319128
 20
163.075383
 30
0.0
 10
237.319128
 20
162.008717
 30
0.0
  0
SPLINE
  5
19e
100
AcDbEntity
  8
0
 62
7
100
AcDbSpline
 70
8
 71
3
 72
8
 73
4
 74
0
 40
0
 40
0
 40
0
 40
0
 40
1
 40
1
 40
1
 40
1
 10
237.319128
 20
162.008717
 30
0.0
 10
237.319128
 20
160.675383
 30
0.0
 10
236.785792
 20
160.408717
 30
0.0
 10
234.119128
 20
160.408717
 30
0.0
  0
SPLINE
  5
19f
100
AcDbEntity
  8
0
 62
7
100
AcDbSpline
 70
8
 71
3
 72
8
 73
4
 74
0
 40
0
 40
0
 40
0
 40
0
 40
1
 40
1
 40
1
 40
1
 10
234.119128
 20
160.408717
 30
0.0
 10
231.452464
 20
160.408717
 30
0.0
 10
230.919128
 20
160.142050
 30
0.0
 10
230.919128
 20
158.808717
 30
0.0
  0
SPLINE
  5
1a0
100
AcDbEntity
  8
0
 62
7
100
AcDbSpline
 70
8
 71
3
 72
8
 73
4
 74
0
 40
0
 40
0
 40
0
 40
0
 40
1
 40
1
 40
1
 40
1
 10
230.919128
 20
158.808717
 30
0.0
 10
230.919128
 20
157.742050
 30
0.0
 10
230.385792
 20
157.208717
 30
0.0
 10
229.319128
 20
157.208717
 30
0.0
  0
SPLINE
  5
1a1
100
AcDbEntity
  8
0
 62
7
100
AcDbSpline
 70
8
 71
3
 72
8
 73
4
 74
0
 40
0
 40
0
 40
0
 40
0
 40
1
 40
1
 40
1
 40
1
 10
229.319128
 20
157.208717
 30
0.0
 10
228.252464
 20
157.208717
 30
0.0
 10
227.719128
 20
156.675383
 30
0.0
 10
227.719128
 20
155.608717
 30
0.0
  0
SPLINE
  5
1a2
100
AcDbEntity
  8
0
 62
7
100
AcDbSpline
 70
8
 71
3
 72
8
 73
4
 74
0
 40
0
 40
0
 40
0
 40
0
 40
1
 40
1
 40
1
 40
1
 10
227.719128
 20
155.608717
 30
0.0
 10
227.719128
 20
154.364269
 30
0.0
 10
227.185792
 20
154.008717
 30
0.0
 10
225.319128
 20
154.008717
 30
0.0
  0
SPLINE
  5
1a3
100
AcDbEntity
  8
0
 62
7
100
AcDbSpline
 70
8
 71
3
 72
8
 73
4
 74
0
 40
0
 40
0
 40
0
 40
0
 40
1
 40
1
 40
1
 40
1
 10
225.319128
 20
154.008717
 30
0.0
 10
223.452464
 20
154.008717
 30
0.0
 10
222.919128
 20
154.364269
 30
0.0
 10
222.919128
 20
155.608717
 30
0.0
  0
SPLINE
  5
1a4
100
AcDbEntity
  8
0
 62
7
100
AcDbSpline
 70
8
 71
3
 72
8
 73
4
 74
0
 40
0
 40
0
 40
0
 40
0
 40
1
 40
1
 40
1
 40
1
 10
222.919128
 20
155.608717
 30
0.0
 10
222.919128
 20
156.942050
 30
0.0
 10
222.385792
 20
157.208717
 30
0.0
 10
219.719128
 20
157.208717
 30
0.0
  0
LWPOLYLINE
  5
1a5
100
AcDbEntity
  8
0
 62
7
100
AcDbPolyline
 90
3
 70
0
 10
221.319128
 20
174.808717
 30
0.0
 10
224.519128
 20
174.808717
 30
0.0
 10
224.519128
 20
170.808717
 30
0.0
  0
SPLINE
  5
1a6
100
AcDbEntity
  8
0
 62
7
100
AcDbSpline
 70
8
 71
3
 72
8
 73
4
 74
0
 40
0
 40
0
 40
0
 40
0
 40
1
 40
1
 40
1
 40
1
 10
216.519128
 20
161.208717
 30
0.0
 10
216.519128
 20
164.675383
 30
0.0
 10
216.732464
 20
165.208717
 30
0.0
 10
218.119128
 20
165.208717
 30
0.0
  0
SPLINE
  5
1a7
100
AcDbEntity
  8
0
 62
7
100
AcDbSpline
 70
8
 71
3
 72
8
 73
4
 74
0
 40
0
 40
0
 40
0
 40
0
 40
1
 40
1
 40
1
 40
1
 10
218.119128
 20
165.208717
 30
0.0
 10
219.185792
 20
165.208717
 30
0.0
 10
219.719128
 20
165.742050
 30
0.0
 10
219.719128
 20
166.808717
 30
0.0
  0
SPLINE
  5
1a8
100
AcDbEntity
  8
0
 62
7
100
AcDbSpline
 70
8
 71
3
 72
8
 73
4
 74
0
 40
0
 40
0
 40
0
 40
0
 40
1
 40
1
 40
1
 40
1
 10
219.719128
 20
166.808717
 30
0.0
 10
219.719128
 20
167.875383
 30
0.0
 10
220.252464
 20
168.408717
 30
0.0
 10
221.319128
 20
168.408717
 30
0.0
  0
SPLINE
  5
1a9
100
AcDbEntity
  8
0
 62
7
100
AcDbSpline
 70
8
 71
3
 72
8
 73
4
 74
0
 40
0
 40
0
 40
0
 40
0
 40
1
 40
1
 40
1
 40
1
 10
221.319128
 20
168.408717
 30
0.0
 10
222.563576
 20
168.408717
 30
0.0
 10
222.919128
 20
168.942050
 30
0.0
 10
222.919128
 20
170.808717
 30
0.0
  0
SPLINE
  5
1aa
100
AcDbEntity
  8
0
 62
7
100
AcDbSpline
 70
8
 71
3
 72
8
 73
4
 74
0
 40
0
 40
0
 40
0
 40
0
 40
1
 40
1
 40
1
 40
1
 10
222.919128
 20
170.808717
 30
0.0
 10
222.919128
 20
173.075383
 30
0.0
 10
222.741352
 20
173.208717
 30
0.0
 10
219.719128
 20
173.208717
 30
0.0
  0
SPLINE
  5
1ab
100
AcDbEntity
  8
0
 62
7
100
AcDbSpline
 70
8
 71
3
 72
8
 73
4
 74
0
 40
0
 40
0
 40
0
 40
0
 40
1
 40
1
 40
1
 40
1
 10
219.719128
 20
173.208717
 30
0.0
 10
217.052464
 20
173.208717
 30
0.0
 10
216.519128
 20
173.475383
 30
0.0
 10
216.519128
 20
174.808717
 30
0.0
  0
SPLINE
  5
1ac
100
AcDbEntity
  8
0
 62
7
100
AcDbSpline
 70
8
 71
3
 72
8
 73
4
 74
0
 40
0
 40
0
 40
0
 40
0
 40
1
 40
1
 40
1
 40
1
 10
216.519128
 20
174.808717
 30
0.0
 10
216.519128
 20
175.875383
 30
0.0
 10
215.985792
 20
176.408717
 30
0.0
 10
214.919128
 20
176.408717
 30
0.0
  0
SPLINE
  5
1ad
100
AcDbEntity
  8
0
 62
7
100
AcDbSpline
 70
8
 71
3
 72
8
 73
4
 74
0
 40
0
 40
0
 40
0
 40
0
 40
1
 40
1
 40
1
 40
1
 10
214.919128
 20
176.408717
 30
0.0
 10
213.852464
 20
176.408717
 30
0.0
 10
213.319128
 20
176.942050
 30
0.0
 10
213.319128
 20
178.008717
 30
0.0
  0
SPLINE
  5
1ae
100
AcDbEntity
  8
0
 62
7
100
AcDbSpline
 70
8
 71
3
 72
8
 73
4
 74
0
 40
0
 40
0
 40
0
 40
0
 40
1
 40
1
 40
1
 40
1
 10
213.319128
 20
178.008717
 30
0.0
 10
213.319128
 20
178.888716
 30
0.0
 10
212.959128
 20
179.608717
 30
0.0
 10
212.519128
 20
179.608717
 30
0.0
  0
SPLINE
  5
1af
100
AcDbEntity
  8
0
 62
7
100
AcDbSpline
 70
8
 71
3
 72
8
 73
4
 74
0
 40
0
 40
0
 40
0
 40
0
 40
1
 40
1
 40
1
 40
1
 10
212.519128
 20
179.608717
 30
0.0
 10
212.079128
 20
179.608717
 30
0.0
 10
211.719128
 20
178.528717
 30
0.0
 10
211.719128
 20
177.208717
 30
0.0
  0
SPLINE
  5
1b0
100
AcDbEntity
  8
0
 62
7
100
AcDbSpline
 70
8
 71
3
 72
8
 73
4
 74
0
 40
0
 40
0
 40
0
 40
0
 40
1
 40
1
 40
1
 40
1
 10
211.719128
 20
177.208717
 30
0.0
 10
211.719128
 20
175.342050
 30
0.0
 10
212.074680
 20
174.808717
 30
0.0
 10
213.319128
 20
174.808717
 30
0.0
  0
SPLINE
  5
1b1
100
AcDbEntity
  8
0
 62
7
100
AcDbSpline
 70
8
 71
3
 72
8
 73
4
 74
0
 40
0
 40
0
 40
0
 40
0
 40
1
 40
1
 40
1
 40
1
 10
213.319128
 20
174.808717
 30
0.0
 10
214.766744
 20
174.808717
 30
0.0
 10
214.919128
 20
174.275383
 30
0.0
 10
214.919128
 20
169.208717
 30
0.0
  0
SPLINE
  5
1b2
100
AcDbEntity
  8
0
 62
7
100
AcDbSpline
 70
8
 71
3
 72
8
 73
4
 74
0
 40
0
 40
0
 40
0
 40
0
 40
1
 40
1
 40
1
 40
1
 10
214.919128
 20
169.208717
 30
0.0
 10
214.919128
 20
164.142050
 30
0.0
 10
214.766744
 20
163.608717
 30
0.0
 10
213.319128
 20
163.608717
 30
0.0
  0
SPLINE
  5
1b3
100
AcDbEntity
  8
0
 62
7
100
AcDbSpline
 70
8
 71
3
 72
8
 73
4
 74
0
 40
0
 40
0
 40
0
 40
0
 40
1
 40
1
 40
1
 40
1
 10
213.319128
 20
163.608717
 30
0.0
 10
211.985792
 20
163.608717
 30
0.0
 10
211.719128
 20
163.075383
 30
0.0
 10
211.719128
 20
160.408717
 30
0.0
  0
SPLINE
  5
1b4
100
AcDbEntity
  8
0
 62
7
100
AcDbSpline
 70
8
 71
3
 72
8
 73
4
 74
0
 40
0
 40
0
 40
0
 40
0
 40
1
 40
1
 40
1
 40
1
 10
211.719128
 20
160.408717
 30
0.0
 10
211.719128
 20
157.742050
 30
0.0
 10
211.452464
 20
157.208717
 30
0.0
 10
210.119128
 20
157.208717
 30
0.0
  0
SPLINE
  5
1b5
100
AcDbEntity
  8
0
 62
7
100
AcDbSpline
 70
8
 71
3
 72
8
 73
4
 74
0
 40
0
 40
0
 40
0
 40
0
 40
1
 40
1
 40
1
 40
1
 10
210.119128
 20
157.208717
 30
0.0
 10
208.785792
 20
157.208717
 30
0.0
 10
208.519128
 20
156.675383
 30
0.0
 10
208.519128
 20
154.008717
 30
0.0
  0
SPLINE
  5
1b6
100
AcDbEntity
  8
0
 62
7
100
AcDbSpline
 70
8
 71
3
 72
8
 73
4
 74
0
 40
0
 40
0
 40
0
 40
0
 40
1
 40
1
 40
1
 40
1
 10
208.519128
 20
154.008717
 30
0.0
 10
208.519128
 20
151.342056
 30
0.0
 10
208.252464
 20
150.808720
 30
0.0
 10
206.919128
 20
150.808720
 30
0.0
  0
SPLINE
  5
1b7
100
AcDbEntity
  8
0
 62
7
100
AcDbSpline
 70
8
 71
3
 72
8
 73
4
 74
0
 40
0
 40
0
 40
0
 40
0
 40
1
 40
1
 40
1
 40
1
 10
206.919128
 20
150.808720
 30
0.0
 10
205.471512
 20
150.808720
 30
0.0
 10
205.319128
 20
150.275384
 30
0.0
 10
205.319128
 20
145.208720
 30
0.0
  0
SPLINE
  5
1b8
100
AcDbEntity
  8
0
 62
7
100
AcDbSpline
 70
8
 71
3
 72
8
 73
4
 74
0
 40
0
 40
0
 40
0
 40
0
 40
1
 40
1
 40
1
 40
1
 10
205.319128
 20
145.208720
 30
0.0
 10
205.319128
 20
140.142056
 30
0.0
 10
205.471512
 20
139.608720
 30
0.0
 10
206.919128
 20
139.608720
 30
0.0
  0
SPLINE
  5
1b9
100
AcDbEntity
  8
0
 62
7
100
AcDbSpline
 70
8
 71
3
 72
8
 73
4
 74
0
 40
0
 40
0
 40
0
 40
0
 40
1
 40
1
 40
1
 40
1
 10
206.919128
 20
139.608720
 30
0.0
 10
208.412464
 20
139.608720
 30
0.0
 10
208.519128
 20
139.075384
 30
0.0
 10
208.519128
 20
131.608720
 30
0.0
  0
SPLINE
  5
1ba
100
AcDbEntity
  8
0
 62
7
100
AcDbSpline
 70
8
 71
3
 72
8
 73
4
 74
0
 40
0
 40
0
 40
0
 40
0
 40
1
 40
1
 40
1
 40
1
 10
208.519128
 20
131.608720
 30
0.0
 10
208.519128
 20
124.142056
 30
0.0
 10
208.625792
 20
123.608720
 30
0.0
 10
210.119128
 20
123.608720
 30
0.0
  0
SPLINE
  5
1bb
100
AcDbEntity
  8
0
 62
7
100
AcDbSpline
 70
8
 71
3
 72
8
 73
4
 74
0
 40
0
 40
0
 40
0
 40
0
 40
1
 40
1
 40
1
 40
1
 10
210.119128
 20
123.608720
 30
0.0
 10
211.541352
 20
123.608720
 30
0.0
 10
211.719128
 20
123.075384
 30
0.0
 10
211.719128
 20
118.808720
 30
0.0
  0
SPLINE
  5
1bc
100
AcDbEntity
  8
0
 62
7
100
AcDbSpline
 70
8
 71
3
 72
8
 73
4
 74
0
 40
0
 40
0
 40
0
 40
0
 40
1
 40
1
 40
1
 40
1
 10
211.719128
 20
118.808720
 30
0.0
 10
211.719128
 20
114.542056
 30
0.0
 10
211.896904
 20
114.008720
 30
0.0
 10
213.319128
 20
114.008720
 30
0.0
  0
SPLINE
  5
1bd
100
AcDbEntity
  8
0
 62
7
100
AcDbSpline
 70
8
 71
3
 72
8
 73
4
 74
0
 40
0
 40
0
 40
0
 40
0
 40
1
 40
1
 40
1
 40
1
 10
213.319128
 20
114.008720
 30
0.0
 10
214.652464
 20
114.008720
 30
0.0
 10
214.919128
 20
113.475384
 30
0.0
 10
214.919128
 20
110.808720
 30
0.0
  0
SPLINE
  5
1be
100
AcDbEntity
  8
0
 62
7
100
AcDbSpline
 70
8
 71
3
 72
8
 73
4
 74
0
 40
0
 40
0
 40
0
 40
0
 40
1
 40
1
 40
1
 40
1
 10
214.919128
 20
110.808720
 30
0.0
 10
214.919128
 20
108.142056
 30
0.0
 10
215.185792
 20
107.608720
 30
0.0
 10
216.519128
 20
107.608720
 30
0.0
  0
SPLINE
  5
1bf
100
AcDbEntity
  8
0
 62
7
100
AcDbSpline
 70
8
 71
3
 72
8
 73
4
 74
0
 40
0
 40
0
 40
0
 40
0
 40
1
 40
1
 40
1
 40
1
 10
216.519128
 20
107.608720
 30
0.0
 10
217.966744
 20
107.608720
 30
0.0
 10
218.119128
 20
107.075384
 30
0.0
 10
218.119128
 20
102.008720
 30
0.0
  0
SPLINE
  5
1c0
100
AcDbEntity
  8
0
 62
7
100
AcDbSpline
 70
8
 71
3
 72
8
 73
4
 74
0
 40
0
 40
0
 40
0
 40
0
 40
1
 40
1
 40
1
 40
1
 10
218.119128
 20
102.008720
 30
0.0
 10
218.119128
 20
96.942056
 30
0.0
 10
217.966744
 20
96.408720
 30
0.0
 10
216.519128
 20
96.408720
 30
0.0
  0
SPLINE
  5
1c1
100
AcDbEntity
  8
0
 62
7
100
AcDbSpline
 70
8
 71
3
 72
8
 73
4
 74
0
 40
0
 40
0
 40
0
 40
0
 40
1
 40
1
 40
1
 40
1
 10
216.519128
 20
96.408720
 30
0.0
 10
215.452464
 20
96.408720
 30
0.0
 10
214.919128
 20
95.875384
 30
0.0
 10
214.919128
 20
94.808720
 30
0.0
  0
SPLINE
  5
1c2
100
AcDbEntity
  8
0
 62
7
100
AcDbSpline
 70
8
 71
3
 72
8
 73
4
 74
0
 40
0
 40
0
 40
0
 40
0
 40
1
 40
1
 40
1
 40
1
 10
214.919128
 20
94.808720
 30
0.0
 10
214.919128
 20
93.386496
 30
0.0
 10
214.385792
 20
93.208720
 30
0.0
 10
210.119128
 20
93.208720
 30
0.0
  0
LWPOLYLINE
  5
1c3
100
AcDbEntity
  8
0
 62
7
100
AcDbPolyline
 90
3
 70
0
 10
219.719128
 20
157.208717
 30
0.0
 10
216.519128
 20
157.208717
 30
0.0
 10
216.519128
 20
161.208717
 30
0.0
  0
SPLINE
  5
1c4
100
AcDbEntity
  8
0
 62
7
100
AcDbSpline
 70
8
 71
3
 72
8
 73
4
 74
0
 40
0
 40
0
 40
0
 40
0
 40
1
 40
1
 40
1
 40
1
 10
205.319128
 20
90.008720
 30
0.0
 10
205.319128
 20
87.342056
 30
0.0
 10
205.052464
 20
86.808720
 30
0.0
 10
203.719128
 20
86.808720
 30
0.0
  0
SPLINE
  5
1c5
100
AcDbEntity
  8
0
 62
7
100
AcDbSpline
 70
8
 71
3
 72
8
 73
4
 74
0
 40
0
 40
0
 40
0
 40
0
 40
1
 40
1
 40
1
 40
1
 10
203.719128
 20
86.808720
 30
0.0
 10
202.252464
 20
86.808720
 30
0.0
 10
202.119128
 20
86.275384
 30
0.0
 10
202.119128
 20
80.408720
 30
0.0
  0
LWPOLYLINE
  5
1c6
100
AcDbEntity
  8
0
 62
7
100
AcDbPolyline
 90
3
 70
0
 10
210.119128
 20
93.208720
 30
0.0
 10
205.319128
 20
93.208720
 30
0.0
 10
205.319128
 20
90.008720
 30
0.0
  0
SPLINE
  5
1c7
100
AcDbEntity
  8
0
 62
7
100
AcDbSpline
 70
8
 71
3
 72
8
 73
4
 74
0
 40
0
 40
0
 40
0
 40
0
 40
1
 40
1
 40
1
 40
1
 10
199.719128
 20
74.008720
 30
0.0
 10
197.452464
 20
74.008720
 30
0.0
 10
197.319128
 20
74.186496
 30
0.0
 10
197.319128
 20
77.208720
 30
0.0
  0
SPLINE
  5
1c8
100
AcDbEntity
  8
0
 62
7
100
AcDbSpline
 70
8
 71
3
 72
8
 73
4
 74
0
 40
0
 40
0
 40
0
 40
0
 40
1
 40
1
 40
1
 40
1
 10
197.319128
 20
77.208720
 30
0.0
 10
197.319128
 20
80.230944
 30
0.0
 10
197.185792
 20
80.408720
 30
0.0
 10
194.919128
 20
80.408720
 30
0.0
  0
LWPOLYLINE
  5
1c9
100
AcDbEntity
  8
0
 62
7
100
AcDbPolyline
 90
3
 70
0
 10
202.119128
 20
80.408720
 30
0.0
 10
202.119128
 20
74.008720
 30
0.0
 10
199.719128
 20
74.008720
 30
0.0
  0
SPLINE
  5
1ca
100
AcDbEntity
  8
0
 62
7
100
AcDbSpline
 70
8
 71
3
 72
8
 73
4
 74
0
 40
0
 40
0
 40
0
 40
0
 40
1
 40
1
 40
1
 40
1
 10
195.719128
 20
53.208720
 30
0.0
 10
198.385792
 20
53.208720
 30
0.0
 10
198.919128
 20
52.942056
 30
0.0
 10
198.919128
 20
51.608720
 30
0.0
  0
SPLINE
  5
1cb
100
AcDbEntity
  8
0
 62
7
100
AcDbSpline
 70
8
 71
3
 72
8
 73
4
 74
0
 40
0
 40
0
 40
0
 40
0
 40
1
 40
1
 40
1
 40
1
 10
198.919128
 20
51.608720
 30
0.0
 10
198.919128
 20
50.275384
 30
0.0
 10
199.452464
 20
50.008720
 30
0.0
 10
202.119128
 20
50.008720
 30
0.0
  0
SPLINE
  5
1cc
100
AcDbEntity
  8
0
 62
7
100
AcDbSpline
 70
8
 71
3
 72
8
 73
4
 74
0
 40
0
 40
0
 40
0
 40
0
 40
1
 40
1
 40
1
 40
1
 10
202.119128
 20
50.008720
 30
0.0
 10
204.785792
 20
50.008720
 30
0.0
 10
205.319128
 20
49.742056
 30
0.0
 10
205.319128
 20
48.408720
 30
0.0
  0
SPLINE
  5
1cd
100
AcDbEntity
  8
0
 62
7
100
AcDbSpline
 70
8
 71
3
 72
8
 73
4
 74
0
 40
0
 40
0
 40
0
 40
0
 40
1
 40
1
 40
1
 40
1
 10
205.319128
 20
48.408720
 30
0.0
 10
205.319128
 20
47.342056
 30
0.0
 10
205.852464
 20
46.808720
 30
0.0
 10
206.919128
 20
46.808720
 30
0.0
  0
SPLINE
  5
1ce
100
AcDbEntity
  8
0
 62
7
100
AcDbSpline
 70
8
 71
3
 72
8
 73
4
 74
0
 40
0
 40
0
 40
0
 40
0
 40
1
 40
1
 40
1
 40
1
 10
206.919128
 20
46.808720
 30
0.0
 10
208.437080
 20
46.808720
 30
0.0
 10
208.519128
 20
46.275384
 30
0.0
 10
208.519128
 20
36.408720
 30
0.0
  0
SPLINE
  5
1cf
100
AcDbEntity
  8
0
 62
7
100
AcDbSpline
 70
8
 71
3
 72
8
 73
4
 74
0
 40
0
 40
0
 40
0
 40
0
 40
1
 40
1
 40
1
 40
1
 10
208.519128
 20
36.408720
 30
0.0
 10
208.519128
 20
26.542056
 30
0.0
 10
208.437080
 20
26.008720
 30
0.0
 10
206.919128
 20
26.008720
 30
0.0
  0
SPLINE
  5
1d0
100
AcDbEntity
  8
0
 62
7
100
AcDbSpline
 70
8
 71
3
 72
8
 73
4
 74
0
 40
0
 40
0
 40
0
 40
0
 40
1
 40
1
 40
1
 40
1
 10
206.919128
 20
26.008720
 30
0.0
 10
205.852464
 20
26.008720
 30
0.0
 10
205.319128
 20
25.475384
 30
0.0
 10
205.319128
 20
24.408720
 30
0.0
  0
SPLINE
  5
1d1
100
AcDbEntity
  8
0
 62
7
100
AcDbSpline
 70
8
 71
3
 72
8
 73
4
 74
0
 40
0
 40
0
 40
0
 40
0
 40
1
 40
1
 40
1
 40
1
 10
205.319128
 20
24.408720
 30
0.0
 10
205.319128
 20
23.342056
 30
0.0
 10
204.785792
 20
22.808720
 30
0.0
 10
203.719128
 20
22.808720
 30
0.0
  0
SPLINE
  5
1d2
100
AcDbEntity
  8
0
 62
7
100
AcDbSpline
 70
8
 71
3
 72
8
 73
4
 74
0
 40
0
 40
0
 40
0
 40
0
 40
1
 40
1
 40
1
 40
1
 10
203.719128
 20
22.808720
 30
0.0
 10
202.652464
 20
22.808720
 30
0.0
 10
202.119128
 20
22.275384
 30
0.0
 10
202.119128
 20
21.208720
 30
0.0
  0
SPLINE
  5
1d3
100
AcDbEntity
  8
0
 62
7
100
AcDbSpline
 70
8
 71
3
 72
8
 73
4
 74
0
 40
0
 40
0
 40
0
 40
0
 40
1
 40
1
 40
1
 40
1
 10
202.119128
 20
21.208720
 30
0.0
 10
202.119128
 20
19.964272
 30
0.0
 10
201.585792
 20
19.608720
 30
0.0
 10
199.719128
 20
19.608720
 30
0.0
  0
SPLINE
  5
1d4
100
AcDbEntity
  8
0
 62
7
100
AcDbSpline
 70
8
 71
3
 72
8
 73
4
 74
0
 40
0
 40
0
 40
0
 40
0
 40
1
 40
1
 40
1
 40
1
 10
199.719128
 20
19.608720
 30
0.0
 10
197.852464
 20
19.608720
 30
0.0
 10
197.319128
 20
19.964272
 30
0.0
 10
197.319128
 20
21.208720
 30
0.0
  0
SPLINE
  5
1d5
100
AcDbEntity
  8
0
 62
7
100
AcDbSpline
 70
8
 71
3
 72
8
 73
4
 74
0
 40
0
 40
0
 40
0
 40
0
 40
1
 40
1
 40
1
 40
1
 10
197.319128
 20
21.208720
 30
0.0
 10
197.319128
 20
22.453168
 30
0.0
 10
196.785792
 20
22.808720
 30
0.0
 10
194.919128
 20
22.808720
 30
0.0
  0
SPLINE
  5
1d6
100
AcDbEntity
  8
0
 62
7
100
AcDbSpline
 70
8
 71
3
 72
8
 73
4
 74
0
 40
0
 40
0
 40
0
 40
0
 40
1
 40
1
 40
1
 40
1
 10
194.919128
 20
22.808720
 30
0.0
 10
193.052464
 20
22.808720
 30
0.0
 10
192.519128
 20
22.453168
 30
0.0
 10
192.519128
 20
21.208720
 30
0.0
  0
SPLINE
  5
1d7
100
AcDbEntity
  8
0
 62
7
100
AcDbSpline
 70
8
 71
3
 72
8
 73
4
 74
0
 40
0
 40
0
 40
0
 40
0
 40
1
 40
1
 40
1
 40
1
 10
192.519128
 20
21.208720
 30
0.0
 10
192.519128
 20
19.875384
 30
0.0
 10
191.985792
 20
19.608720
 30
0.0
 10
189.319128
 20
19.608720
 30
0.0
  0
SPLINE
  5
1d8
100
AcDbEntity
  8
0
 62
7
100
AcDbSpline
 70
8
 71
3
 72
8
 73
4
 74
0
 40
0
 40
0
 40
0
 40
0
 40
1
 40
1
 40
1
 40
1
 10
189.319128
 20
19.608720
 30
0.0
 10
186.652464
 20
19.608720
 30
0.0
 10
186.119128
 20
19.342056
 30
0.0
 10
186.119128
 20
18.008720
 30
0.0
  0
SPLINE
  5
1d9
100
AcDbEntity
  8
0
 62
7
100
AcDbSpline
 70
8
 71
3
 72
8
 73
4
 74
0
 40
0
 40
0
 40
0
 40
0
 40
1
 40
1
 40
1
 40
1
 10
186.119128
 20
18.008720
 30
0.0
 10
186.119128
 20
16.942056
 30
0.0
 10
185.585792
 20
16.408720
 30
0.0
 10
184.519128
 20
16.408720
 30
0.0
  0
SPLINE
  5
1da
100
AcDbEntity
  8
0
 62
7
100
AcDbSpline
 70
8
 71
3
 72
8
 73
4
 74
0
 40
0
 40
0
 40
0
 40
0
 40
1
 40
1
 40
1
 40
1
 10
184.519128
 20
16.408720
 30
0.0
 10
183.452464
 20
16.408720
 30
0.0
 10
182.919128
 20
15.875384
 30
0.0
 10
182.919128
 20
14.808720
 30
0.0
  0
SPLINE
  5
1db
100
AcDbEntity
  8
0
 62
7
100
AcDbSpline
 70
8
 71
3
 72
8
 73
4
 74
0
 40
0
 40
0
 40
0
 40
0
 40
1
 40
1
 40
1
 40
1
 10
182.919128
 20
14.808720
 30
0.0
 10
182.919128
 20
13.742056
 30
0.0
 10
182.385792
 20
13.208720
 30
0.0
 10
181.319128
 20
13.208720
 30
0.0
  0
SPLINE
  5
1dc
100
AcDbEntity
  8
0
 62
7
100
AcDbSpline
 70
8
 71
3
 72
8
 73
4
 74
0
 40
0
 40
0
 40
0
 40
0
 40
1
 40
1
 40
1
 40
1
 10
181.319128
 20
13.208720
 30
0.0
 10
180.252464
 20
13.208720
 30
0.0
 10
179.719128
 20
12.675384
 30
0.0
 10
179.719128
 20
11.608720
 30
0.0
  0
SPLINE
  5
1dd
100
AcDbEntity
  8
0
 62
7
100
AcDbSpline
 70
8
 71
3
 72
8
 73
4
 74
0
 40
0
 40
0
 40
0
 40
0
 40
1
 40
1
 40
1
 40
1
 10
179.719128
 20
11.608720
 30
0.0
 10
179.719128
 20
10.542056
 30
0.0
 10
179.185792
 20
10.008720
 30
0.0
 10
178.119128
 20
10.008720
 30
0.0
  0
SPLINE
  5
1de
100
AcDbEntity
  8
0
 62
7
100
AcDbSpline
 70
8
 71
3
 72
8
 73
4
 74
0
 40
0
 40
0
 40
0
 40
0
 40
1
 40
1
 40
1
 40
1
 10
178.119128
 20
10.008720
 30
0.0
 10
177.052464
 20
10.008720
 30
0.0
 10
176.519128
 20
9.475384
 30
0.0
 10
176.519128
 20
8.408720
 30
0.0
  0
SPLINE
  5
1df
100
AcDbEntity
  8
0
 62
7
100
AcDbSpline
 70
8
 71
3
 72
8
 73
4
 74
0
 40
0
 40
0
 40
0
 40
0
 40
1
 40
1
 40
1
 40
1
 10
176.519128
 20
8.408720
 30
0.0
 10
176.519128
 20
7.022056
 30
0.0
 10
175.985792
 20
6.808720
 30
0.0
 10
172.519128
 20
6.808720
 30
0.0
  0
SPLINE
  5
1e0
100
AcDbEntity
  8
0
 62
7
100
AcDbSpline
 70
8
 71
3
 72
8
 73
4
 74
0
 40
0
 40
0
 40
0
 40
0
 40
1
 40
1
 40
1
 40
1
 10
172.519128
 20
6.808720
 30
0.0
 10
169.052464
 20
6.808720
 30
0.0
 10
168.519128
 20
7.022056
 30
0.0
 10
168.519128
 20
8.408720
 30
0.0
  0
LWPOLYLINE
  5
1e1
100
AcDbEntity
  8
0
 62
7
100
AcDbPolyline
 90
5
 70
0
 10
194.919128
 20
80.408720
 30
0.0
 10
192.519128
 20
80.408720
 30
0.0
 10
192.519128
 20
66.808720
 30
0.0
 10
192.519128
 20
53.208720
 30
0.0
 10
195.719128
 20
53.208720
 30
0.0
  0
SPLINE
  5
1e2
100
AcDbEntity
  8
0
 62
7
100
AcDbSpline
 70
8
 71
3
 72
8
 73
4
 74
0
 40
0
 40
0
 40
0
 40
0
 40
1
 40
1
 40
1
 40
1
 10
82.119128
 20
124.408720
 30
0.0
 10
82.119128
 20
126.275384
 30
0.0
 10
82.474680
 20
126.808720
 30
0.0
 10
83.719128
 20
126.808720
 30
0.0
  0
SPLINE
  5
1e3
100
AcDbEntity
  8
0
 62
7
100
AcDbSpline
 70
8
 71
3
 72
8
 73
4
 74
0
 40
0
 40
0
 40
0
 40
0
 40
1
 40
1
 40
1
 40
1
 10
83.719128
 20
126.808720
 30
0.0
 10
84.785792
 20
126.808720
 30
0.0
 10
85.319128
 20
127.342056
 30
0.0
 10
85.319128
 20
128.408720
 30
0.0
  0
SPLINE
  5
1e4
100
AcDbEntity
  8
0
 62
7
100
AcDbSpline
 70
8
 71
3
 72
8
 73
4
 74
0
 40
0
 40
0
 40
0
 40
0
 40
1
 40
1
 40
1
 40
1
 10
85.319128
 20
128.408720
 30
0.0
 10
85.319128
 20
129.902056
 30
0.0
 10
85.852464
 20
130.008720
 30
0.0
 10
93.319128
 20
130.008720
 30
0.0
  0
SPLINE
  5
1e5
100
AcDbEntity
  8
0
 62
7
100
AcDbSpline
 70
8
 71
3
 72
8
 73
4
 74
0
 40
0
 40
0
 40
0
 40
0
 40
1
 40
1
 40
1
 40
1
 10
93.319128
 20
130.008720
 30
0.0
 10
100.785792
 20
130.008720
 30
0.0
 10
101.319128
 20
130.115384
 30
0.0
 10
101.319128
 20
131.608720
 30
0.0
  0
SPLINE
  5
1e6
100
AcDbEntity
  8
0
 62
7
100
AcDbSpline
 70
8
 71
3
 72
8
 73
4
 74
0
 40
0
 40
0
 40
0
 40
0
 40
1
 40
1
 40
1
 40
1
 10
101.319128
 20
131.608720
 30
0.0
 10
101.319128
 20
133.056336
 30
0.0
 10
101.852464
 20
133.208720
 30
0.0
 10
106.919128
 20
133.208720
 30
0.0
  0
SPLINE
  5
1e7
100
AcDbEntity
  8
0
 62
7
100
AcDbSpline
 70
8
 71
3
 72
8
 73
4
 74
0
 40
0
 40
0
 40
0
 40
0
 40
1
 40
1
 40
1
 40
1
 10
106.919128
 20
133.208720
 30
0.0
 10
111.985792
 20
133.208720
 30
0.0
 10
112.519128
 20
133.056336
 30
0.0
 10
112.519128
 20
131.608720
 30
0.0
  0
SPLINE
  5
1e8
100
AcDbEntity
  8
0
 62
7
100
AcDbSpline
 70
8
 71
3
 72
8
 73
4
 74
0
 40
0
 40
0
 40
0
 40
0
 40
1
 40
1
 40
1
 40
1
 10
112.519128
 20
131.608720
 30
0.0
 10
112.519128
 20
130.542056
 30
0.0
 10
113.052464
 20
130.008720
 30
0.0
 10
114.119128
 20
130.008720
 30
0.0
  0
SPLINE
  5
1e9
100
AcDbEntity
  8
0
 62
7
100
AcDbSpline
 70
8
 71
3
 72
8
 73
4
 74
0
 40
0
 40
0
 40
0
 40
0
 40
1
 40
1
 40
1
 40
1
 10
114.119128
 20
130.008720
 30
0.0
 10
115.363576
 20
130.008720
 30
0.0
 10
115.719128
 20
129.475384
 30
0.0
 10
115.719128
 20
127.608720
 30
0.0
  0
SPLINE
  5
1ea
100
AcDbEntity
  8
0
 62
7
100
AcDbSpline
 70
8
 71
3
 72
8
 73
4
 74
0
 40
0
 40
0
 40
0
 40
0
 40
1
 40
1
 40
1
 40
1
 10
115.719128
 20
127.608720
 30
0.0
 10
115.719128
 20
125.342056
 30
0.0
 10
115.541352
 20
125.208720
 30
0.0
 10
112.519128
 20
125.208720
 30
0.0
  0
SPLINE
  5
1eb
100
AcDbEntity
  8
0
 62
7
100
AcDbSpline
 70
8
 71
3
 72
8
 73
4
 74
0
 40
0
 40
0
 40
0
 40
0
 40
1
 40
1
 40
1
 40
1
 10
112.519128
 20
125.208720
 30
0.0
 10
109.852464
 20
125.208720
 30
0.0
 10
109.319128
 20
124.942056
 30
0.0
 10
109.319128
 20
123.608720
 30
0.0
  0
SPLINE
  5
1ec
100
AcDbEntity
  8
0
 62
7
100
AcDbSpline
 70
8
 71
3
 72
8
 73
4
 74
0
 40
0
 40
0
 40
0
 40
0
 40
1
 40
1
 40
1
 40
1
 10
109.319128
 20
123.608720
 30
0.0
 10
109.319128
 20
122.071464
 30
0.0
 10
108.785792
 20
122.008720
 30
0.0
 10
95.719128
 20
122.008720
 30
0.0
  0
LWPOLYLINE
  5
1ed
100
AcDbEntity
  8
0
 62
7
100
AcDbPolyline
 90
2
 70
0
 10
168.519128
 20
8.408720
 30
0.0
 10
168.519128
 20
8.408720
 30
0.0
  0
SPLINE
  5
1ee
100
AcDbEntity
  8
0
 62
7
100
AcDbSpline
 70
8
 71
3
 72
8
 73
4
 74
0
 40
0
 40
0
 40
0
 40
0
 40
1
 40
1
 40
1
 40
1
 10
107.719128
 20
125.208720
 30
0.0
 10
107.719128
 20
126.542056
 30
0.0
 10
108.252464
 20
126.808720
 30
0.0
 10
110.919128
 20
126.808720
 30
0.0
  0
SPLINE
  5
1ef
100
AcDbEntity
  8
0
 62
7
100
AcDbSpline
 70
8
 71
3
 72
8
 73
4
 74
0
 40
0
 40
0
 40
0
 40
0
 40
1
 40
1
 40
1
 40
1
 10
110.919128
 20
126.808720
 30
0.0
 10
112.679128
 20
126.808720
 30
0.0
 10
114.119128
 20
127.168720
 30
0.0
 10
114.119128
 20
127.608720
 30
0.0
  0
SPLINE
  5
1f0
100
AcDbEntity
  8
0
 62
7
100
AcDbSpline
 70
8
 71
3
 72
8
 73
4
 74
0
 40
0
 40
0
 40
0
 40
0
 40
1
 40
1
 40
1
 40
1
 10
114.119128
 20
127.608720
 30
0.0
 10
114.119128
 20
128.048720
 30
0.0
 10
113.399128
 20
128.408720
 30
0.0
 10
112.519128
 20
128.408720
 30
0.0
  0
SPLINE
  5
1f1
100
AcDbEntity
  8
0
 62
7
100
AcDbSpline
 70
8
 71
3
 72
8
 73
4
 74
0
 40
0
 40
0
 40
0
 40
0
 40
1
 40
1
 40
1
 40
1
 10
112.519128
 20
128.408720
 30
0.0
 10
111.452464
 20
128.408720
 30
0.0
 10
110.919128
 20
128.942056
 30
0.0
 10
110.919128
 20
130.008720
 30
0.0
  0
SPLINE
  5
1f2
100
AcDbEntity
  8
0
 62
7
100
AcDbSpline
 70
8
 71
3
 72
8
 73
4
 74
0
 40
0
 40
0
 40
0
 40
0
 40
1
 40
1
 40
1
 40
1
 10
110.919128
 20
130.008720
 30
0.0
 10
110.919128
 20
131.395384
 30
0.0
 10
110.385792
 20
131.608720
 30
0.0
 10
106.919128
 20
131.608720
 30
0.0
  0
SPLINE
  5
1f3
100
AcDbEntity
  8
0
 62
7
100
AcDbSpline
 70
8
 71
3
 72
8
 73
4
 74
0
 40
0
 40
0
 40
0
 40
0
 40
1
 40
1
 40
1
 40
1
 10
106.919128
 20
131.608720
 30
0.0
 10
103.452464
 20
131.608720
 30
0.0
 10
102.919128
 20
131.395384
 30
0.0
 10
102.919128
 20
130.008720
 30
0.0
  0
SPLINE
  5
1f4
100
AcDbEntity
  8
0
 62
7
100
AcDbSpline
 70
8
 71
3
 72
8
 73
4
 74
0
 40
0
 40
0
 40
0
 40
0
 40
1
 40
1
 40
1
 40
1
 10
102.919128
 20
130.008720
 30
0.0
 10
102.919128
 20
128.515384
 30
0.0
 10
102.385792
 20
128.408720
 30
0.0
 10
94.919128
 20
128.408720
 30
0.0
  0
SPLINE
  5
1f5
100
AcDbEntity
  8
0
 62
7
100
AcDbSpline
 70
8
 71
3
 72
8
 73
4
 74
0
 40
0
 40
0
 40
0
 40
0
 40
1
 40
1
 40
1
 40
1
 10
94.919128
 20
128.408720
 30
0.0
 10
87.452464
 20
128.408720
 30
0.0
 10
86.919128
 20
128.302056
 30
0.0
 10
86.919128
 20
126.808720
 30
0.0
  0
SPLINE
  5
1f6
100
AcDbEntity
  8
0
 62
7
100
AcDbSpline
 70
8
 71
3
 72
8
 73
4
 74
0
 40
0
 40
0
 40
0
 40
0
 40
1
 40
1
 40
1
 40
1
 10
86.919128
 20
126.808720
 30
0.0
 10
86.919128
 20
125.742056
 30
0.0
 10
86.385792
 20
125.208720
 30
0.0
 10
85.319128
 20
125.208720
 30
0.0
  0
SPLINE
  5
1f7
100
AcDbEntity
  8
0
 62
7
100
AcDbSpline
 70
8
 71
3
 72
8
 73
4
 74
0
 40
0
 40
0
 40
0
 40
0
 40
1
 40
1
 40
1
 40
1
 10
85.319128
 20
125.208720
 30
0.0
 10
84.439128
 20
125.208720
 30
0.0
 10
83.719128
 20
124.848720
 30
0.0
 10
83.719128
 20
124.408720
 30
0.0
  0
SPLINE
  5
1f8
100
AcDbEntity
  8
0
 62
7
100
AcDbSpline
 70
8
 71
3
 72
8
 73
4
 74
0
 40
0
 40
0
 40
0
 40
0
 40
1
 40
1
 40
1
 40
1
 10
83.719128
 20
124.408720
 30
0.0
 10
83.719128
 20
123.910944
 30
0.0
 10
88.252464
 20
123.608720
 30
0.0
 10
95.719128
 20
123.608720
 30
0.0
  0
SPLINE
  5
1f9
100
AcDbEntity
  8
0
 62
7
100
AcDbSpline
 70
8
 71
3
 72
8
 73
4
 74
0
 40
0
 40
0
 40
0
 40
0
 40
1
 40
1
 40
1
 40
1
 10
95.719128
 20
123.608720
 30
0.0
 10
107.185792
 20
123.608720
 30
0.0
 10
107.719128
 20
123.679840
 30
0.0
 10
107.719128
 20
125.208720
 30
0.0
  0
LWPOLYLINE
  5
1fa
100
AcDbEntity
  8
0
 62
7
100
AcDbPolyline
 90
4
 70
0
 10
95.719128
 20
122.008720
 30
0.0
 10
82.119128
 20
122.008720
 30
0.0
 10
82.119128
 20
124.408720
 30
0.0
 10
82.119128
 20
124.408720
 30
0.0
  0
SPLINE
  5
1fb
100
AcDbEntity
  8
0
 62
7
100
AcDbSpline
 70
8
 71
3
 72
8
 73
4
 74
0
 40
0
 40
0
 40
0
 40
0
 40
1
 40
1
 40
1
 40
1
 10
219.719128
 20
129.208720
 30
0.0
 10
219.719128
 20
132.675384
 30
0.0
 10
219.932464
 20
133.208720
 30
0.0
 10
221.319128
 20
133.208720
 30
0.0
  0
SPLINE
  5
1fc
100
AcDbEntity
  8
0
 62
7
100
AcDbSpline
 70
8
 71
3
 72
8
 73
4
 74
0
 40
0
 40
0
 40
0
 40
0
 40
1
 40
1
 40
1
 40
1
 10
221.319128
 20
133.208720
 30
0.0
 10
222.385792
 20
133.208720
 30
0.0
 10
222.919128
 20
133.742056
 30
0.0
 10
222.919128
 20
134.808720
 30
0.0
  0
SPLINE
  5
1fd
100
AcDbEntity
  8
0
 62
7
100
AcDbSpline
 70
8
 71
3
 72
8
 73
4
 74
0
 40
0
 40
0
 40
0
 40
0
 40
1
 40
1
 40
1
 40
1
 10
222.919128
 20
134.808720
 30
0.0
 10
222.919128
 20
136.195384
 30
0.0
 10
223.452464
 20
136.408720
 30
0.0
 10
226.919128
 20
136.408720
 30
0.0
  0
SPLINE
  5
1fe
100
AcDbEntity
  8
0
 62
7
100
AcDbSpline
 70
8
 71
3
 72
8
 73
4
 74
0
 40
0
 40
0
 40
0
 40
0
 40
1
 40
1
 40
1
 40
1
 10
226.919128
 20
136.408720
 30
0.0
 10
230.385792
 20
136.408720
 30
0.0
 10
230.919128
 20
136.195384
 30
0.0
 10
230.919128
 20
134.808720
 30
0.0
  0
SPLINE
  5
1ff
100
AcDbEntity
  8
0
 62
7
100
AcDbSpline
 70
8
 71
3
 72
8
 73
4
 74
0
 40
0
 40
0
 40
0
 40
0
 40
1
 40
1
 40
1
 40
1
 10
230.919128
 20
134.808720
 30
0.0
 10
230.919128
 20
133.386496
 30
0.0
 10
231.452464
 20
133.208720
 30
0.0
 10
235.719128
 20
133.208720
 30
0.0
  0
SPLINE
  5
200
100
AcDbEntity
  8
0
 62
7
100
AcDbSpline
 70
8
 71
3
 72
8
 73
4
 74
0
 40
0
 40
0
 40
0
 40
0
 40
1
 40
1
 40
1
 40
1
 10
235.719128
 20
133.208720
 30
0.0
 10
239.329432
 20
133.208720
 30
0.0
 10
240.519128
 20
132.927512
 30
0.0
 10
240.519128
 20
132.074152
 30
0.0
  0
SPLINE
  5
201
100
AcDbEntity
  8
0
 62
7
100
AcDbSpline
 70
8
 71
3
 72
8
 73
4
 74
0
 40
0
 40
0
 40
0
 40
0
 40
1
 40
1
 40
1
 40
1
 10
240.519128
 20
132.074152
 30
0.0
 10
240.519128
 20
131.450136
 30
0.0
 10
240.737640
 20
130.370136
 30
0.0
 10
241.004720
 20
129.674152
 30
0.0
  0
SPLINE
  5
202
100
AcDbEntity
  8
0
 62
7
100
AcDbSpline
 70
8
 71
3
 72
8
 73
4
 74
0
 40
0
 40
0
 40
0
 40
0
 40
1
 40
1
 40
1
 40
1
 10
241.004720
 20
129.674152
 30
0.0
 10
241.323368
 20
128.843760
 30
0.0
 10
241.048320
 20
128.408720
 30
0.0
 10
240.204720
 20
128.408720
 30
0.0
  0
SPLINE
  5
203
100
AcDbEntity
  8
0
 62
7
100
AcDbSpline
 70
8
 71
3
 72
8
 73
4
 74
0
 40
0
 40
0
 40
0
 40
0
 40
1
 40
1
 40
1
 40
1
 10
240.204720
 20
128.408720
 30
0.0
 10
239.452464
 20
128.408720
 30
0.0
 10
238.919128
 20
129.072488
 30
0.0
 10
238.919128
 20
130.008720
 30
0.0
  0
SPLINE
  5
204
100
AcDbEntity
  8
0
 62
7
100
AcDbSpline
 70
8
 71
3
 72
8
 73
4
 74
0
 40
0
 40
0
 40
0
 40
0
 40
1
 40
1
 40
1
 40
1
 10
238.919128
 20
130.008720
 30
0.0
 10
238.919128
 20
131.430944
 30
0.0
 10
238.385792
 20
131.608720
 30
0.0
 10
234.119128
 20
131.608720
 30
0.0
  0
SPLINE
  5
205
100
AcDbEntity
  8
0
 62
7
100
AcDbSpline
 70
8
 71
3
 72
8
 73
4
 74
0
 40
0
 40
0
 40
0
 40
0
 40
1
 40
1
 40
1
 40
1
 10
234.119128
 20
131.608720
 30
0.0
 10
229.852464
 20
131.608720
 30
0.0
 10
229.319128
 20
131.786496
 30
0.0
 10
229.319128
 20
133.208720
 30
0.0
  0
SPLINE
  5
206
100
AcDbEntity
  8
0
 62
7
100
AcDbSpline
 70
8
 71
3
 72
8
 73
4
 74
0
 40
0
 40
0
 40
0
 40
0
 40
1
 40
1
 40
1
 40
1
 10
229.319128
 20
133.208720
 30
0.0
 10
229.319128
 20
134.453168
 30
0.0
 10
228.785792
 20
134.808720
 30
0.0
 10
226.919128
 20
134.808720
 30
0.0
  0
SPLINE
  5
207
100
AcDbEntity
  8
0
 62
7
100
AcDbSpline
 70
8
 71
3
 72
8
 73
4
 74
0
 40
0
 40
0
 40
0
 40
0
 40
1
 40
1
 40
1
 40
1
 10
226.919128
 20
134.808720
 30
0.0
 10
225.052464
 20
134.808720
 30
0.0
 10
224.519128
 20
134.453168
 30
0.0
 10
224.519128
 20
133.208720
 30
0.0
  0
SPLINE
  5
208
100
AcDbEntity
  8
0
 62
7
100
AcDbSpline
 70
8
 71
3
 72
8
 73
4
 74
0
 40
0
 40
0
 40
0
 40
0
 40
1
 40
1
 40
1
 40
1
 10
224.519128
 20
133.208720
 30
0.0
 10
224.519128
 20
132.142056
 30
0.0
 10
223.985792
 20
131.608720
 30
0.0
 10
222.919128
 20
131.608720
 30
0.0
  0
SPLINE
  5
209
100
AcDbEntity
  8
0
 62
7
100
AcDbSpline
 70
8
 71
3
 72
8
 73
4
 74
0
 40
0
 40
0
 40
0
 40
0
 40
1
 40
1
 40
1
 40
1
 10
222.919128
 20
131.608720
 30
0.0
 10
221.674680
 20
131.608720
 30
0.0
 10
221.319128
 20
131.075384
 30
0.0
 10
221.319128
 20
129.208720
 30
0.0
  0
LWPOLYLINE
  5
20a
100
AcDbEntity
  8
0
 62
7
100
AcDbPolyline
 90
2
 70
0
 10
107.719128
 20
125.208720
 30
0.0
 10
107.719128
 20
125.208720
 30
0.0
  0
SPLINE
  5
20b
100
AcDbEntity
  8
0
 62
7
100
AcDbSpline
 70
8
 71
3
 72
8
 73
4
 74
0
 40
0
 40
0
 40
0
 40
0
 40
1
 40
1
 40
1
 40
1
 10
231.319128
 20
126.808720
 30
0.0
 10
237.452464
 20
126.808720
 30
0.0
 10
241.319128
 20
126.499384
 30
0.0
 10
241.319128
 20
126.008720
 30
0.0
  0
SPLINE
  5
20c
100
AcDbEntity
  8
0
 62
7
100
AcDbSpline
 70
8
 71
3
 72
8
 73
4
 74
0
 40
0
 40
0
 40
0
 40
0
 40
1
 40
1
 40
1
 40
1
 10
241.319128
 20
126.008720
 30
0.0
 10
241.319128
 20
125.514896
 30
0.0
 10
237.185792
 20
125.208720
 30
0.0
 10
230.519128
 20
125.208720
 30
0.0
  0
LWPOLYLINE
  5
20d
100
AcDbEntity
  8
0
 62
7
100
AcDbPolyline
 90
3
 70
0
 10
221.319128
 20
129.208720
 30
0.0
 10
221.319128
 20
126.808720
 30
0.0
 10
231.319128
 20
126.808720
 30
0.0
  0
SPLINE
  5
20e
100
AcDbEntity
  8
0
 62
7
100
AcDbSpline
 70
8
 71
3
 72
8
 73
4
 74
0
 40
0
 40
0
 40
0
 40
0
 40
1
 40
1
 40
1
 40
1
 10
75.719130
 20
133.208720
 30
0.0
 10
75.719130
 20
134.755384
 30
0.0
 10
75.185797
 20
134.808720
 30
0.0
 10
59.719130
 20
134.808720
 30
0.0
  0
SPLINE
  5
20f
100
AcDbEntity
  8
0
 62
7
100
AcDbSpline
 70
8
 71
3
 72
8
 73
4
 74
0
 40
0
 40
0
 40
0
 40
0
 40
1
 40
1
 40
1
 40
1
 10
59.719130
 20
134.808720
 30
0.0
 10
44.252464
 20
134.808720
 30
0.0
 10
43.719130
 20
134.862080
 30
0.0
 10
43.719130
 20
136.408720
 30
0.0
  0
SPLINE
  5
210
100
AcDbEntity
  8
0
 62
7
100
AcDbSpline
 70
8
 71
3
 72
8
 73
4
 74
0
 40
0
 40
0
 40
0
 40
0
 40
1
 40
1
 40
1
 40
1
 10
43.719130
 20
136.408720
 30
0.0
 10
43.719130
 20
137.475384
 30
0.0
 10
43.185797
 20
138.008720
 30
0.0
 10
42.119130
 20
138.008720
 30
0.0
  0
SPLINE
  5
211
100
AcDbEntity
  8
0
 62
7
100
AcDbSpline
 70
8
 71
3
 72
8
 73
4
 74
0
 40
0
 40
0
 40
0
 40
0
 40
1
 40
1
 40
1
 40
1
 10
42.119130
 20
138.008720
 30
0.0
 10
40.671511
 20
138.008720
 30
0.0
 10
40.519130
 20
138.542056
 30
0.0
 10
40.519130
 20
143.608720
 30
0.0
  0
LWPOLYLINE
  5
212
100
AcDbEntity
  8
0
 62
7
100
AcDbPolyline
 90
4
 70
0
 10
230.519128
 20
125.208720
 30
0.0
 10
219.719128
 20
125.208720
 30
0.0
 10
219.719128
 20
129.208720
 30
0.0
 10
219.719128
 20
129.208720
 30
0.0
  0
SPLINE
  5
213
100
AcDbEntity
  8
0
 62
7
100
AcDbSpline
 70
8
 71
3
 72
8
 73
4
 74
0
 40
0
 40
0
 40
0
 40
0
 40
1
 40
1
 40
1
 40
1
 10
44.519130
 20
149.208720
 30
0.0
 10
47.985797
 20
149.208720
 30
0.0
 10
48.519130
 20
148.995384
 30
0.0
 10
48.519130
 20
147.608720
 30
0.0
  0
SPLINE
  5
214
100
AcDbEntity
  8
0
 62
7
100
AcDbSpline
 70
8
 71
3
 72
8
 73
4
 74
0
 40
0
 40
0
 40
0
 40
0
 40
1
 40
1
 40
1
 40
1
 10
48.519130
 20
147.608720
 30
0.0
 10
48.519130
 20
146.542056
 30
0.0
 10
49.052464
 20
146.008720
 30
0.0
 10
50.119130
 20
146.008720
 30
0.0
  0
SPLINE
  5
215
100
AcDbEntity
  8
0
 62
7
100
AcDbSpline
 70
8
 71
3
 72
8
 73
4
 74
0
 40
0
 40
0
 40
0
 40
0
 40
1
 40
1
 40
1
 40
1
 10
50.119130
 20
146.008720
 30
0.0
 10
51.185797
 20
146.008720
 30
0.0
 10
51.719130
 20
145.475384
 30
0.0
 10
51.719130
 20
144.408720
 30
0.0
  0
SPLINE
  5
216
100
AcDbEntity
  8
0
 62
7
100
AcDbSpline
 70
8
 71
3
 72
8
 73
4
 74
0
 40
0
 40
0
 40
0
 40
0
 40
1
 40
1
 40
1
 40
1
 10
51.719130
 20
144.408720
 30
0.0
 10
51.719130
 20
142.927240
 30
0.0
 10
52.252464
 20
142.808720
 30
0.0
 10
58.919130
 20
142.808720
 30
0.0
  0
SPLINE
  5
217
100
AcDbEntity
  8
0
 62
7
100
AcDbSpline
 70
8
 71
3
 72
8
 73
4
 74
0
 40
0
 40
0
 40
0
 40
0
 40
1
 40
1
 40
1
 40
1
 10
58.919130
 20
142.808720
 30
0.0
 10
63.185797
 20
142.808720
 30
0.0
 10
66.119130
 20
143.134648
 30
0.0
 10
66.119130
 20
143.608720
 30
0.0
  0
SPLINE
  5
218
100
AcDbEntity
  8
0
 62
7
100
AcDbSpline
 70
8
 71
3
 72
8
 73
4
 74
0
 40
0
 40
0
 40
0
 40
0
 40
1
 40
1
 40
1
 40
1
 10
66.119130
 20
143.608720
 30
0.0
 10
66.119130
 20
144.048720
 30
0.0
 10
65.399130
 20
144.408720
 30
0.0
 10
64.519130
 20
144.408720
 30
0.0
  0
SPLINE
  5
219
100
AcDbEntity
  8
0
 62
7
100
AcDbSpline
 70
8
 71
3
 72
8
 73
4
 74
0
 40
0
 40
0
 40
0
 40
0
 40
1
 40
1
 40
1
 40
1
 10
64.519130
 20
144.408720
 30
0.0
 10
63.185797
 20
144.408720
 30
0.0
 10
62.919130
 20
144.942056
 30
0.0
 10
62.919130
 20
147.608720
 30
0.0
  0
SPLINE
  5
21a
100
AcDbEntity
  8
0
 62
7
100
AcDbSpline
 70
8
 71
3
 72
8
 73
4
 74
0
 40
0
 40
0
 40
0
 40
0
 40
1
 40
1
 40
1
 40
1
 10
62.919130
 20
147.608720
 30
0.0
 10
62.919130
 20
150.275384
 30
0.0
 10
62.652464
 20
150.808720
 30
0.0
 10
61.319130
 20
150.808720
 30
0.0
  0
SPLINE
  5
21b
100
AcDbEntity
  8
0
 62
7
100
AcDbSpline
 70
8
 71
3
 72
8
 73
4
 74
0
 40
0
 40
0
 40
0
 40
0
 40
1
 40
1
 40
1
 40
1
 10
61.319130
 20
150.808720
 30
0.0
 10
60.252464
 20
150.808720
 30
0.0
 10
59.719130
 20
151.342056
 30
0.0
 10
59.719130
 20
152.408717
 30
0.0
  0
SPLINE
  5
21c
100
AcDbEntity
  8
0
 62
7
100
AcDbSpline
 70
8
 71
3
 72
8
 73
4
 74
0
 40
0
 40
0
 40
0
 40
0
 40
1
 40
1
 40
1
 40
1
 10
59.719130
 20
152.408717
 30
0.0
 10
59.719130
 20
153.475381
 30
0.0
 10
59.185797
 20
154.008717
 30
0.0
 10
58.119130
 20
154.008717
 30
0.0
  0
SPLINE
  5
21d
100
AcDbEntity
  8
0
 62
7
100
AcDbSpline
 70
8
 71
3
 72
8
 73
4
 74
0
 40
0
 40
0
 40
0
 40
0
 40
1
 40
1
 40
1
 40
1
 10
58.119130
 20
154.008717
 30
0.0
 10
56.696908
 20
154.008717
 30
0.0
 10
56.519130
 20
154.542053
 30
0.0
 10
56.519130
 20
158.808717
 30
0.0
  0
SPLINE
  5
21e
100
AcDbEntity
  8
0
 62
7
100
AcDbSpline
 70
8
 71
3
 72
8
 73
4
 74
0
 40
0
 40
0
 40
0
 40
0
 40
1
 40
1
 40
1
 40
1
 10
56.519130
 20
158.808717
 30
0.0
 10
56.519130
 20
163.608717
 30
0.0
 10
56.519130
 20
163.608717
 30
0.0
 10
54.119130
 20
163.608717
 30
0.0
  0
SPLINE
  5
21f
100
AcDbEntity
  8
0
 62
7
100
AcDbSpline
 70
8
 71
3
 72
8
 73
4
 74
0
 40
0
 40
0
 40
0
 40
0
 40
1
 40
1
 40
1
 40
1
 10
54.119130
 20
163.608717
 30
0.0
 10
52.252464
 20
163.608717
 30
0.0
 10
51.719130
 20
163.253162
 30
0.0
 10
51.719130
 20
162.008717
 30
0.0
  0
SPLINE
  5
220
100
AcDbEntity
  8
0
 62
7
100
AcDbSpline
 70
8
 71
3
 72
8
 73
4
 74
0
 40
0
 40
0
 40
0
 40
0
 40
1
 40
1
 40
1
 40
1
 10
51.719130
 20
162.008717
 30
0.0
 10
51.719130
 20
160.942050
 30
0.0
 10
51.185797
 20
160.408717
 30
0.0
 10
50.119130
 20
160.408717
 30
0.0
  0
SPLINE
  5
221
100
AcDbEntity
  8
0
 62
7
100
AcDbSpline
 70
8
 71
3
 72
8
 73
4
 74
0
 40
0
 40
0
 40
0
 40
0
 40
1
 40
1
 40
1
 40
1
 10
50.119130
 20
160.408717
 30
0.0
 10
49.052464
 20
160.408717
 30
0.0
 10
48.519130
 20
159.875383
 30
0.0
 10
48.519130
 20
158.808717
 30
0.0
  0
SPLINE
  5
222
100
AcDbEntity
  8
0
 62
7
100
AcDbSpline
 70
8
 71
3
 72
8
 73
4
 74
0
 40
0
 40
0
 40
0
 40
0
 40
1
 40
1
 40
1
 40
1
 10
48.519130
 20
158.808717
 30
0.0
 10
48.519130
 20
157.475383
 30
0.0
 10
47.985797
 20
157.208717
 30
0.0
 10
45.319130
 20
157.208717
 30
0.0
  0
SPLINE
  5
223
100
AcDbEntity
  8
0
 62
7
100
AcDbSpline
 70
8
 71
3
 72
8
 73
4
 74
0
 40
0
 40
0
 40
0
 40
0
 40
1
 40
1
 40
1
 40
1
 10
45.319130
 20
157.208717
 30
0.0
 10
42.652464
 20
157.208717
 30
0.0
 10
42.119130
 20
156.942050
 30
0.0
 10
42.119130
 20
155.608717
 30
0.0
  0
SPLINE
  5
224
100
AcDbEntity
  8
0
 62
7
100
AcDbSpline
 70
8
 71
3
 72
8
 73
4
 74
0
 40
0
 40
0
 40
0
 40
0
 40
1
 40
1
 40
1
 40
1
 10
42.119130
 20
155.608717
 30
0.0
 10
42.119130
 20
154.161100
 30
0.0
 10
41.585797
 20
154.008717
 30
0.0
 10
36.519130
 20
154.008717
 30
0.0
  0
LWPOLYLINE
  5
225
100
AcDbEntity
  8
0
 62
7
100
AcDbPolyline
 90
3
 70
0
 10
40.519130
 20
143.608720
 30
0.0
 10
40.519130
 20
149.208720
 30
0.0
 10
44.519130
 20
149.208720
 30
0.0
  0
SPLINE
  5
226
100
AcDbEntity
  8
0
 62
7
100
AcDbSpline
 70
8
 71
3
 72
8
 73
4
 74
0
 40
0
 40
0
 40
0
 40
0
 40
1
 40
1
 40
1
 40
1
 10
30.919130
 20
161.208717
 30
0.0
 10
30.919130
 20
167.875383
 30
0.0
 10
31.037649
 20
168.408717
 30
0.0
 10
32.519130
 20
168.408717
 30
0.0
  0
SPLINE
  5
227
100
AcDbEntity
  8
0
 62
7
100
AcDbSpline
 70
8
 71
3
 72
8
 73
4
 74
0
 40
0
 40
0
 40
0
 40
0
 40
1
 40
1
 40
1
 40
1
 10
32.519130
 20
168.408717
 30
0.0
 10
33.585797
 20
168.408717
 30
0.0
 10
34.119130
 20
168.942050
 30
0.0
 10
34.119130
 20
170.008717
 30
0.0
  0
SPLINE
  5
228
100
AcDbEntity
  8
0
 62
7
100
AcDbSpline
 70
8
 71
3
 72
8
 73
4
 74
0
 40
0
 40
0
 40
0
 40
0
 40
1
 40
1
 40
1
 40
1
 10
34.119130
 20
170.008717
 30
0.0
 10
34.119130
 20
171.075383
 30
0.0
 10
34.652464
 20
171.608717
 30
0.0
 10
35.719130
 20
171.608717
 30
0.0
  0
SPLINE
  5
229
100
AcDbEntity
  8
0
 62
7
100
AcDbSpline
 70
8
 71
3
 72
8
 73
4
 74
0
 40
0
 40
0
 40
0
 40
0
 40
1
 40
1
 40
1
 40
1
 10
35.719130
 20
171.608717
 30
0.0
 10
36.785797
 20
171.608717
 30
0.0
 10
37.319130
 20
172.142050
 30
0.0
 10
37.319130
 20
173.208717
 30
0.0
  0
SPLINE
  5
22a
100
AcDbEntity
  8
0
 62
7
100
AcDbSpline
 70
8
 71
3
 72
8
 73
4
 74
0
 40
0
 40
0
 40
0
 40
0
 40
1
 40
1
 40
1
 40
1
 10
37.319130
 20
173.208717
 30
0.0
 10
37.319130
 20
174.542050
 30
0.0
 10
37.852464
 20
174.808717
 30
0.0
 10
40.519130
 20
174.808717
 30
0.0
  0
SPLINE
  5
22b
100
AcDbEntity
  8
0
 62
7
100
AcDbSpline
 70
8
 71
3
 72
8
 73
4
 74
0
 40
0
 40
0
 40
0
 40
0
 40
1
 40
1
 40
1
 40
1
 10
40.519130
 20
174.808717
 30
0.0
 10
43.185797
 20
174.808717
 30
0.0
 10
43.719130
 20
175.075383
 30
0.0
 10
43.719130
 20
176.408717
 30
0.0
  0
SPLINE
  5
22c
100
AcDbEntity
  8
0
 62
7
100
AcDbSpline
 70
8
 71
3
 72
8
 73
4
 74
0
 40
0
 40
0
 40
0
 40
0
 40
1
 40
1
 40
1
 40
1
 10
43.719130
 20
176.408717
 30
0.0
 10
43.719130
 20
177.475383
 30
0.0
 10
44.252464
 20
178.008717
 30
0.0
 10
45.319130
 20
178.008717
 30
0.0
  0
SPLINE
  5
22d
100
AcDbEntity
  8
0
 62
7
100
AcDbSpline
 70
8
 71
3
 72
8
 73
4
 74
0
 40
0
 40
0
 40
0
 40
0
 40
1
 40
1
 40
1
 40
1
 10
45.319130
 20
178.008717
 30
0.0
 10
46.563575
 20
178.008717
 30
0.0
 10
46.919130
 20
178.542050
 30
0.0
 10
46.919130
 20
180.408717
 30
0.0
  0
SPLINE
  5
22e
100
AcDbEntity
  8
0
 62
7
100
AcDbSpline
 70
8
 71
3
 72
8
 73
4
 74
0
 40
0
 40
0
 40
0
 40
0
 40
1
 40
1
 40
1
 40
1
 10
46.919130
 20
180.408717
 30
0.0
 10
46.919130
 20
182.275383
 30
0.0
 10
46.563575
 20
182.808717
 30
0.0
 10
45.319130
 20
182.808717
 30
0.0
  0
SPLINE
  5
22f
100
AcDbEntity
  8
0
 62
7
100
AcDbSpline
 70
8
 71
3
 72
8
 73
4
 74
0
 40
0
 40
0
 40
0
 40
0
 40
1
 40
1
 40
1
 40
1
 10
45.319130
 20
182.808717
 30
0.0
 10
44.252464
 20
182.808717
 30
0.0
 10
43.719130
 20
183.342050
 30
0.0
 10
43.719130
 20
184.408717
 30
0.0
  0
SPLINE
  5
230
100
AcDbEntity
  8
0
 62
7
100
AcDbSpline
 70
8
 71
3
 72
8
 73
4
 74
0
 40
0
 40
0
 40
0
 40
0
 40
1
 40
1
 40
1
 40
1
 10
43.719130
 20
184.408717
 30
0.0
 10
43.719130
 20
185.955382
 30
0.0
 10
43.185797
 20
186.008717
 30
0.0
 10
27.719130
 20
186.008717
 30
0.0
  0
LWPOLYLINE
  5
231
100
AcDbEntity
  8
0
 62
7
100
AcDbPolyline
 90
3
 70
0
 10
36.519130
 20
154.008717
 30
0.0
 10
30.919130
 20
154.008717
 30
0.0
 10
30.919130
 20
161.208717
 30
0.0
  0
SPLINE
  5
232
100
AcDbEntity
  8
0
 62
7
100
AcDbSpline
 70
8
 71
3
 72
8
 73
4
 74
0
 40
0
 40
0
 40
0
 40
0
 40
1
 40
1
 40
1
 40
1
 10
11.719130
 20
191.608717
 30
0.0
 10
11.719130
 20
196.675383
 30
0.0
 10
11.871511
 20
197.208717
 30
0.0
 10
13.319130
 20
197.208717
 30
0.0
  0
SPLINE
  5
233
100
AcDbEntity
  8
0
 62
7
100
AcDbSpline
 70
8
 71
3
 72
8
 73
4
 74
0
 40
0
 40
0
 40
0
 40
0
 40
1
 40
1
 40
1
 40
1
 10
13.319130
 20
197.208717
 30
0.0
 10
14.385797
 20
197.208717
 30
0.0
 10
14.919130
 20
197.742050
 30
0.0
 10
14.919130
 20
198.808717
 30
0.0
  0
SPLINE
  5
234
100
AcDbEntity
  8
0
 62
7
100
AcDbSpline
 70
8
 71
3
 72
8
 73
4
 74
0
 40
0
 40
0
 40
0
 40
0
 40
1
 40
1
 40
1
 40
1
 10
14.919130
 20
198.808717
 30
0.0
 10
14.919130
 20
199.875383
 30
0.0
 10
15.452464
 20
200.408717
 30
0.0
 10
16.519130
 20
200.408717
 30
0.0
  0
SPLINE
  5
235
100
AcDbEntity
  8
0
 62
7
100
AcDbSpline
 70
8
 71
3
 72
8
 73
4
 74
0
 40
0
 40
0
 40
0
 40
0
 40
1
 40
1
 40
1
 40
1
 10
16.519130
 20
200.408717
 30
0.0
 10
17.585797
 20
200.408717
 30
0.0
 10
18.119130
 20
200.942050
 30
0.0
 10
18.119130
 20
202.008717
 30
0.0
  0
SPLINE
  5
236
100
AcDbEntity
  8
0
 62
7
100
AcDbSpline
 70
8
 71
3
 72
8
 73
4
 74
0
 40
0
 40
0
 40
0
 40
0
 40
1
 40
1
 40
1
 40
1
 10
18.119130
 20
202.008717
 30
0.0
 10
18.119130
 20
203.075383
 30
0.0
 10
18.652464
 20
203.608717
 30
0.0
 10
19.719130
 20
203.608717
 30
0.0
  0
SPLINE
  5
237
100
AcDbEntity
  8
0
 62
7
100
AcDbSpline
 70
8
 71
3
 72
8
 73
4
 74
0
 40
0
 40
0
 40
0
 40
0
 40
1
 40
1
 40
1
 40
1
 10
19.719130
 20
203.608717
 30
0.0
 10
20.785797
 20
203.608717
 30
0.0
 10
21.319130
 20
204.142050
 30
0.0
 10
21.319130
 20
205.208717
 30
0.0
  0
SPLINE
  5
238
100
AcDbEntity
  8
0
 62
7
100
AcDbSpline
 70
8
 71
3
 72
8
 73
4
 74
0
 40
0
 40
0
 40
0
 40
0
 40
1
 40
1
 40
1
 40
1
 10
21.319130
 20
205.208717
 30
0.0
 10
21.319130
 20
206.275383
 30
0.0
 10
21.852464
 20
206.808717
 30
0.0
 10
22.919130
 20
206.808717
 30
0.0
  0
SPLINE
  5
239
100
AcDbEntity
  8
0
 62
7
100
AcDbSpline
 70
8
 71
3
 72
8
 73
4
 74
0
 40
0
 40
0
 40
0
 40
0
 40
1
 40
1
 40
1
 40
1
 10
22.919130
 20
206.808717
 30
0.0
 10
23.985797
 20
206.808717
 30
0.0
 10
24.519130
 20
207.342050
 30
0.0
 10
24.519130
 20
208.408717
 30
0.0
  0
SPLINE
  5
23a
100
AcDbEntity
  8
0
 62
7
100
AcDbSpline
 70
8
 71
3
 72
8
 73
4
 74
0
 40
0
 40
0
 40
0
 40
0
 40
1
 40
1
 40
1
 40
1
 10
24.519130
 20
208.408717
 30
0.0
 10
24.519130
 20
209.969210
 30
0.0
 10
25.052464
 20
210.008717
 30
0.0
 10
46.119130
 20
210.008717
 30
0.0
  0
SPLINE
  5
23b
100
AcDbEntity
  8
0
 62
7
100
AcDbSpline
 70
8
 71
3
 72
8
 73
4
 74
0
 40
0
 40
0
 40
0
 40
0
 40
1
 40
1
 40
1
 40
1
 10
46.119130
 20
210.008717
 30
0.0
 10
67.185797
 20
210.008717
 30
0.0
 10
67.719130
 20
209.969213
 30
0.0
 10
67.719130
 20
208.408717
 30
0.0
  0
SPLINE
  5
23c
100
AcDbEntity
  8
0
 62
7
100
AcDbSpline
 70
8
 71
3
 72
8
 73
4
 74
0
 40
0
 40
0
 40
0
 40
0
 40
1
 40
1
 40
1
 40
1
 10
67.719130
 20
208.408717
 30
0.0
 10
67.719130
 20
206.846811
 30
0.0
 10
68.252464
 20
206.808717
 30
0.0
 10
90.119128
 20
206.808717
 30
0.0
  0
SPLINE
  5
23d
100
AcDbEntity
  8
0
 62
7
100
AcDbSpline
 70
8
 71
3
 72
8
 73
4
 74
0
 40
0
 40
0
 40
0
 40
0
 40
1
 40
1
 40
1
 40
1
 10
90.119128
 20
206.808717
 30
0.0
 10
111.985792
 20
206.808717
 30
0.0
 10
112.519128
 20
206.770621
 30
0.0
 10
112.519128
 20
205.208717
 30
0.0
  0
SPLINE
  5
23e
100
AcDbEntity
  8
0
 62
7
100
AcDbSpline
 70
8
 71
3
 72
8
 73
4
 74
0
 40
0
 40
0
 40
0
 40
0
 40
1
 40
1
 40
1
 40
1
 10
112.519128
 20
205.208717
 30
0.0
 10
112.519128
 20
203.742050
 30
0.0
 10
113.052464
 20
203.608717
 30
0.0
 10
118.919128
 20
203.608717
 30
0.0
  0
SPLINE
  5
23f
100
AcDbEntity
  8
0
 62
7
100
AcDbSpline
 70
8
 71
3
 72
8
 73
4
 74
0
 40
0
 40
0
 40
0
 40
0
 40
1
 40
1
 40
1
 40
1
 10
118.919128
 20
203.608717
 30
0.0
 10
124.785792
 20
203.608717
 30
0.0
 10
125.319128
 20
203.475383
 30
0.0
 10
125.319128
 20
202.008717
 30
0.0
  0
SPLINE
  5
240
100
AcDbEntity
  8
0
 62
7
100
AcDbSpline
 70
8
 71
3
 72
8
 73
4
 74
0
 40
0
 40
0
 40
0
 40
0
 40
1
 40
1
 40
1
 40
1
 10
125.319128
 20
202.008717
 30
0.0
 10
125.319128
 20
200.542050
 30
0.0
 10
125.852464
 20
200.408717
 30
0.0
 10
131.719128
 20
200.408717
 30
0.0
  0
SPLINE
  5
241
100
AcDbEntity
  8
0
 62
7
100
AcDbSpline
 70
8
 71
3
 72
8
 73
4
 74
0
 40
0
 40
0
 40
0
 40
0
 40
1
 40
1
 40
1
 40
1
 10
131.719128
 20
200.408717
 30
0.0
 10
137.585792
 20
200.408717
 30
0.0
 10
138.119128
 20
200.275383
 30
0.0
 10
138.119128
 20
198.808717
 30
0.0
  0
SPLINE
  5
242
100
AcDbEntity
  8
0
 62
7
100
AcDbSpline
 70
8
 71
3
 72
8
 73
4
 74
0
 40
0
 40
0
 40
0
 40
0
 40
1
 40
1
 40
1
 40
1
 10
138.119128
 20
198.808717
 30
0.0
 10
138.119128
 20
197.475383
 30
0.0
 10
138.652464
 20
197.208717
 30
0.0
 10
141.319128
 20
197.208717
 30
0.0
  0
LWPOLYLINE
  5
243
100
AcDbEntity
  8
0
 62
7
100
AcDbPolyline
 90
3
 70
0
 10
27.719130
 20
186.008717
 30
0.0
 10
11.719130
 20
186.008717
 30
0.0
 10
11.719130
 20
191.608717
 30
0.0
  0
SPLINE
  5
244
100
AcDbEntity
  8
0
 62
7
100
AcDbSpline
 70
8
 71
3
 72
8
 73
4
 74
0
 40
0
 40
0
 40
0
 40
0
 40
1
 40
1
 40
1
 40
1
 10
144.519128
 20
190.008717
 30
0.0
 10
144.519128
 20
183.342050
 30
0.0
 10
144.400608
 20
182.808717
 30
0.0
 10
142.919128
 20
182.808717
 30
0.0
  0
SPLINE
  5
245
100
AcDbEntity
  8
0
 62
7
100
AcDbSpline
 70
8
 71
3
 72
8
 73
4
 74
0
 40
0
 40
0
 40
0
 40
0
 40
1
 40
1
 40
1
 40
1
 10
142.919128
 20
182.808717
 30
0.0
 10
141.585792
 20
182.808717
 30
0.0
 10
141.319128
 20
182.275383
 30
0.0
 10
141.319128
 20
179.608717
 30
0.0
  0
LWPOLYLINE
  5
246
100
AcDbEntity
  8
0
 62
7
100
AcDbPolyline
 90
3
 70
0
 10
141.319128
 20
197.208717
 30
0.0
 10
144.519128
 20
197.208717
 30
0.0
 10
144.519128
 20
190.008717
 30
0.0
  0
SPLINE
  5
247
100
AcDbEntity
  8
0
 62
7
100
AcDbSpline
 70
8
 71
3
 72
8
 73
4
 74
0
 40
0
 40
0
 40
0
 40
0
 40
1
 40
1
 40
1
 40
1
 10
122.119128
 20
174.008717
 30
0.0
 10
122.119128
 20
172.142050
 30
0.0
 10
122.474680
 20
171.608717
 30
0.0
 10
123.719128
 20
171.608717
 30
0.0
  0
SPLINE
  5
248
100
AcDbEntity
  8
0
 62
7
100
AcDbSpline
 70
8
 71
3
 72
8
 73
4
 74
0
 40
0
 40
0
 40
0
 40
0
 40
1
 40
1
 40
1
 40
1
 10
123.719128
 20
171.608717
 30
0.0
 10
125.105792
 20
171.608717
 30
0.0
 10
125.319128
 20
171.075383
 30
0.0
 10
125.319128
 20
167.608717
 30
0.0
  0
SPLINE
  5
249
100
AcDbEntity
  8
0
 62
7
100
AcDbSpline
 70
8
 71
3
 72
8
 73
4
 74
0
 40
0
 40
0
 40
0
 40
0
 40
1
 40
1
 40
1
 40
1
 10
125.319128
 20
167.608717
 30
0.0
 10
125.319128
 20
164.142050
 30
0.0
 10
125.105792
 20
163.608717
 30
0.0
 10
123.719128
 20
163.608717
 30
0.0
  0
SPLINE
  5
24a
100
AcDbEntity
  8
0
 62
7
100
AcDbSpline
 70
8
 71
3
 72
8
 73
4
 74
0
 40
0
 40
0
 40
0
 40
0
 40
1
 40
1
 40
1
 40
1
 10
123.719128
 20
163.608717
 30
0.0
 10
122.385792
 20
163.608717
 30
0.0
 10
122.119128
 20
163.075383
 30
0.0
 10
122.119128
 20
160.408717
 30
0.0
  0
SPLINE
  5
24b
100
AcDbEntity
  8
0
 62
7
100
AcDbSpline
 70
8
 71
3
 72
8
 73
4
 74
0
 40
0
 40
0
 40
0
 40
0
 40
1
 40
1
 40
1
 40
1
 10
122.119128
 20
160.408717
 30
0.0
 10
122.119128
 20
157.742050
 30
0.0
 10
121.852464
 20
157.208717
 30
0.0
 10
120.519128
 20
157.208717
 30
0.0
  0
SPLINE
  5
24c
100
AcDbEntity
  8
0
 62
7
100
AcDbSpline
 70
8
 71
3
 72
8
 73
4
 74
0
 40
0
 40
0
 40
0
 40
0
 40
1
 40
1
 40
1
 40
1
 10
120.519128
 20
157.208717
 30
0.0
 10
119.452464
 20
157.208717
 30
0.0
 10
118.919128
 20
156.675383
 30
0.0
 10
118.919128
 20
155.608717
 30
0.0
  0
SPLINE
  5
24d
100
AcDbEntity
  8
0
 62
7
100
AcDbSpline
 70
8
 71
3
 72
8
 73
4
 74
0
 40
0
 40
0
 40
0
 40
0
 40
1
 40
1
 40
1
 40
1
 10
118.919128
 20
155.608717
 30
0.0
 10
118.919128
 20
154.542053
 30
0.0
 10
118.385792
 20
154.008717
 30
0.0
 10
117.319128
 20
154.008717
 30
0.0
  0
SPLINE
  5
24e
100
AcDbEntity
  8
0
 62
7
100
AcDbSpline
 70
8
 71
3
 72
8
 73
4
 74
0
 40
0
 40
0
 40
0
 40
0
 40
1
 40
1
 40
1
 40
1
 10
117.319128
 20
154.008717
 30
0.0
 10
116.252464
 20
154.008717
 30
0.0
 10
115.719128
 20
153.475381
 30
0.0
 10
115.719128
 20
152.408717
 30
0.0
  0
SPLINE
  5
24f
100
AcDbEntity
  8
0
 62
7
100
AcDbSpline
 70
8
 71
3
 72
8
 73
4
 74
0
 40
0
 40
0
 40
0
 40
0
 40
1
 40
1
 40
1
 40
1
 10
115.719128
 20
152.408717
 30
0.0
 10
115.719128
 20
151.164272
 30
0.0
 10
115.185792
 20
150.808720
 30
0.0
 10
113.319128
 20
150.808720
 30
0.0
  0
SPLINE
  5
250
100
AcDbEntity
  8
0
 62
7
100
AcDbSpline
 70
8
 71
3
 72
8
 73
4
 74
0
 40
0
 40
0
 40
0
 40
0
 40
1
 40
1
 40
1
 40
1
 10
113.319128
 20
150.808720
 30
0.0
 10
111.452464
 20
150.808720
 30
0.0
 10
110.919128
 20
151.164272
 30
0.0
 10
110.919128
 20
152.408717
 30
0.0
  0
SPLINE
  5
251
100
AcDbEntity
  8
0
 62
7
100
AcDbSpline
 70
8
 71
3
 72
8
 73
4
 74
0
 40
0
 40
0
 40
0
 40
0
 40
1
 40
1
 40
1
 40
1
 10
110.919128
 20
152.408717
 30
0.0
 10
110.919128
 20
153.475381
 30
0.0
 10
110.385792
 20
154.008717
 30
0.0
 10
109.319128
 20
154.008717
 30
0.0
  0
SPLINE
  5
252
100
AcDbEntity
  8
0
 62
7
100
AcDbSpline
 70
8
 71
3
 72
8
 73
4
 74
0
 40
0
 40
0
 40
0
 40
0
 40
1
 40
1
 40
1
 40
1
 10
109.319128
 20
154.008717
 30
0.0
 10
107.985792
 20
154.008717
 30
0.0
 10
107.719128
 20
154.542053
 30
0.0
 10
107.719128
 20
157.208717
 30
0.0
  0
SPLINE
  5
253
100
AcDbEntity
  8
0
 62
7
100
AcDbSpline
 70
8
 71
3
 72
8
 73
4
 74
0
 40
0
 40
0
 40
0
 40
0
 40
1
 40
1
 40
1
 40
1
 10
107.719128
 20
157.208717
 30
0.0
 10
107.719128
 20
159.875383
 30
0.0
 10
107.452464
 20
160.408717
 30
0.0
 10
106.119128
 20
160.408717
 30
0.0
  0
SPLINE
  5
254
100
AcDbEntity
  8
0
 62
7
100
AcDbSpline
 70
8
 71
3
 72
8
 73
4
 74
0
 40
0
 40
0
 40
0
 40
0
 40
1
 40
1
 40
1
 40
1
 10
106.119128
 20
160.408717
 30
0.0
 10
105.052464
 20
160.408717
 30
0.0
 10
104.519128
 20
160.942050
 30
0.0
 10
104.519128
 20
162.008717
 30
0.0
  0
SPLINE
  5
255
100
AcDbEntity
  8
0
 62
7
100
AcDbSpline
 70
8
 71
3
 72
8
 73
4
 74
0
 40
0
 40
0
 40
0
 40
0
 40
1
 40
1
 40
1
 40
1
 10
104.519128
 20
162.008717
 30
0.0
 10
104.519128
 20
163.075383
 30
0.0
 10
103.985792
 20
163.608717
 30
0.0
 10
102.919128
 20
163.608717
 30
0.0
  0
SPLINE
  5
256
100
AcDbEntity
  8
0
 62
7
100
AcDbSpline
 70
8
 71
3
 72
8
 73
4
 74
0
 40
0
 40
0
 40
0
 40
0
 40
1
 40
1
 40
1
 40
1
 10
102.919128
 20
163.608717
 30
0.0
 10
101.852464
 20
163.608717
 30
0.0
 10
101.319128
 20
164.142050
 30
0.0
 10
101.319128
 20
165.208717
 30
0.0
  0
SPLINE
  5
257
100
AcDbEntity
  8
0
 62
7
100
AcDbSpline
 70
8
 71
3
 72
8
 73
4
 74
0
 40
0
 40
0
 40
0
 40
0
 40
1
 40
1
 40
1
 40
1
 10
101.319128
 20
165.208717
 30
0.0
 10
101.319128
 20
166.453162
 30
0.0
 10
100.785792
 20
166.808717
 30
0.0
 10
98.919128
 20
166.808717
 30
0.0
  0
SPLINE
  5
258
100
AcDbEntity
  8
0
 62
7
100
AcDbSpline
 70
8
 71
3
 72
8
 73
4
 74
0
 40
0
 40
0
 40
0
 40
0
 40
1
 40
1
 40
1
 40
1
 10
98.919128
 20
166.808717
 30
0.0
 10
96.519128
 20
166.808717
 30
0.0
 10
96.519128
 20
166.808717
 30
0.0
 10
96.519128
 20
162.008717
 30
0.0
  0
SPLINE
  5
259
100
AcDbEntity
  8
0
 62
7
100
AcDbSpline
 70
8
 71
3
 72
8
 73
4
 74
0
 40
0
 40
0
 40
0
 40
0
 40
1
 40
1
 40
1
 40
1
 10
96.519128
 20
162.008717
 30
0.0
 10
96.519128
 20
157.742050
 30
0.0
 10
96.341352
 20
157.208717
 30
0.0
 10
94.919128
 20
157.208717
 30
0.0
  0
SPLINE
  5
25a
100
AcDbEntity
  8
0
 62
7
100
AcDbSpline
 70
8
 71
3
 72
8
 73
4
 74
0
 40
0
 40
0
 40
0
 40
0
 40
1
 40
1
 40
1
 40
1
 10
94.919128
 20
157.208717
 30
0.0
 10
93.852464
 20
157.208717
 30
0.0
 10
93.319128
 20
156.675383
 30
0.0
 10
93.319128
 20
155.608717
 30
0.0
  0
SPLINE
  5
25b
100
AcDbEntity
  8
0
 62
7
100
AcDbSpline
 70
8
 71
3
 72
8
 73
4
 74
0
 40
0
 40
0
 40
0
 40
0
 40
1
 40
1
 40
1
 40
1
 10
93.319128
 20
155.608717
 30
0.0
 10
93.319128
 20
154.542053
 30
0.0
 10
92.785792
 20
154.008717
 30
0.0
 10
91.719128
 20
154.008717
 30
0.0
  0
SPLINE
  5
25c
100
AcDbEntity
  8
0
 62
7
100
AcDbSpline
 70
8
 71
3
 72
8
 73
4
 74
0
 40
0
 40
0
 40
0
 40
0
 40
1
 40
1
 40
1
 40
1
 10
91.719128
 20
154.008717
 30
0.0
 10
90.652464
 20
154.008717
 30
0.0
 10
90.119128
 20
153.475381
 30
0.0
 10
90.119128
 20
152.408717
 30
0.0
  0
SPLINE
  5
25d
100
AcDbEntity
  8
0
 62
7
100
AcDbSpline
 70
8
 71
3
 72
8
 73
4
 74
0
 40
0
 40
0
 40
0
 40
0
 40
1
 40
1
 40
1
 40
1
 10
90.119128
 20
152.408717
 30
0.0
 10
90.119128
 20
151.075384
 30
0.0
 10
89.585792
 20
150.808720
 30
0.0
 10
86.919128
 20
150.808720
 30
0.0
  0
SPLINE
  5
25e
100
AcDbEntity
  8
0
 62
7
100
AcDbSpline
 70
8
 71
3
 72
8
 73
4
 74
0
 40
0
 40
0
 40
0
 40
0
 40
1
 40
1
 40
1
 40
1
 10
86.919128
 20
150.808720
 30
0.0
 10
84.252464
 20
150.808720
 30
0.0
 10
83.719128
 20
150.542056
 30
0.0
 10
83.719128
 20
149.208720
 30
0.0
  0
SPLINE
  5
25f
100
AcDbEntity
  8
0
 62
7
100
AcDbSpline
 70
8
 71
3
 72
8
 73
4
 74
0
 40
0
 40
0
 40
0
 40
0
 40
1
 40
1
 40
1
 40
1
 10
83.719128
 20
149.208720
 30
0.0
 10
83.719128
 20
147.875384
 30
0.0
 10
83.185792
 20
147.608720
 30
0.0
 10
80.519128
 20
147.608720
 30
0.0
  0
SPLINE
  5
260
100
AcDbEntity
  8
0
 62
7
100
AcDbSpline
 70
8
 71
3
 72
8
 73
4
 74
0
 40
0
 40
0
 40
0
 40
0
 40
1
 40
1
 40
1
 40
1
 10
80.519128
 20
147.608720
 30
0.0
 10
77.852464
 20
147.608720
 30
0.0
 10
77.319130
 20
147.342056
 30
0.0
 10
77.319130
 20
146.008720
 30
0.0
  0
SPLINE
  5
261
100
AcDbEntity
  8
0
 62
7
100
AcDbSpline
 70
8
 71
3
 72
8
 73
4
 74
0
 40
0
 40
0
 40
0
 40
0
 40
1
 40
1
 40
1
 40
1
 10
77.319130
 20
146.008720
 30
0.0
 10
77.319130
 20
144.675384
 30
0.0
 10
76.785797
 20
144.408720
 30
0.0
 10
74.119130
 20
144.408720
 30
0.0
  0
SPLINE
  5
262
100
AcDbEntity
  8
0
 62
7
100
AcDbSpline
 70
8
 71
3
 72
8
 73
4
 74
0
 40
0
 40
0
 40
0
 40
0
 40
1
 40
1
 40
1
 40
1
 10
74.119130
 20
144.408720
 30
0.0
 10
72.359130
 20
144.408720
 30
0.0
 10
70.919130
 20
144.048720
 30
0.0
 10
70.919130
 20
143.608720
 30
0.0
  0
SPLINE
  5
263
100
AcDbEntity
  8
0
 62
7
100
AcDbSpline
 70
8
 71
3
 72
8
 73
4
 74
0
 40
0
 40
0
 40
0
 40
0
 40
1
 40
1
 40
1
 40
1
 10
70.919130
 20
143.608720
 30
0.0
 10
70.919130
 20
143.102056
 30
0.0
 10
76.785797
 20
142.808720
 30
0.0
 10
86.919128
 20
142.808720
 30
0.0
  0
LWPOLYLINE
  5
264
100
AcDbEntity
  8
0
 62
7
100
AcDbPolyline
 90
5
 70
0
 10
141.319128
 20
179.608717
 30
0.0
 10
141.319128
 20
176.408717
 30
0.0
 10
131.719128
 20
176.408717
 30
0.0
 10
122.119128
 20
176.408717
 30
0.0
 10
122.119128
 20
174.008717
 30
0.0
  0
SPLINE
  5
265
100
AcDbEntity
  8
0
 62
7
100
AcDbSpline
 70
8
 71
3
 72
8
 73
4
 74
0
 40
0
 40
0
 40
0
 40
0
 40
1
 40
1
 40
1
 40
1
 10
102.919128
 20
140.408720
 30
0.0
 10
102.919128
 20
138.542056
 30
0.0
 10
102.563576
 20
138.008720
 30
0.0
 10
101.319128
 20
138.008720
 30
0.0
  0
SPLINE
  5
266
100
AcDbEntity
  8
0
 62
7
100
AcDbSpline
 70
8
 71
3
 72
8
 73
4
 74
0
 40
0
 40
0
 40
0
 40
0
 40
1
 40
1
 40
1
 40
1
 10
101.319128
 20
138.008720
 30
0.0
 10
100.252464
 20
138.008720
 30
0.0
 10
99.719128
 20
137.475384
 30
0.0
 10
99.719128
 20
136.408720
 30
0.0
  0
SPLINE
  5
267
100
AcDbEntity
  8
0
 62
7
100
AcDbSpline
 70
8
 71
3
 72
8
 73
4
 74
0
 40
0
 40
0
 40
0
 40
0
 40
1
 40
1
 40
1
 40
1
 10
99.719128
 20
136.408720
 30
0.0
 10
99.719128
 20
134.897608
 30
0.0
 10
99.185792
 20
134.808720
 30
0.0
 10
90.119128
 20
134.808720
 30
0.0
  0
SPLINE
  5
268
100
AcDbEntity
  8
0
 62
7
100
AcDbSpline
 70
8
 71
3
 72
8
 73
4
 74
0
 40
0
 40
0
 40
0
 40
0
 40
1
 40
1
 40
1
 40
1
 10
90.119128
 20
134.808720
 30
0.0
 10
81.052464
 20
134.808720
 30
0.0
 10
80.519128
 20
134.719832
 30
0.0
 10
80.519128
 20
133.208720
 30
0.0
  0
SPLINE
  5
269
100
AcDbEntity
  8
0
 62
7
100
AcDbSpline
 70
8
 71
3
 72
8
 73
4
 74
0
 40
0
 40
0
 40
0
 40
0
 40
1
 40
1
 40
1
 40
1
 10
80.519128
 20
133.208720
 30
0.0
 10
80.519128
 20
131.964272
 30
0.0
 10
79.985794
 20
131.608720
 30
0.0
 10
78.119130
 20
131.608720
 30
0.0
  0
SPLINE
  5
26a
100
AcDbEntity
  8
0
 62
7
100
AcDbSpline
 70
8
 71
3
 72
8
 73
4
 74
0
 40
0
 40
0
 40
0
 40
0
 40
1
 40
1
 40
1
 40
1
 10
78.119130
 20
131.608720
 30
0.0
 10
76.252464
 20
131.608720
 30
0.0
 10
75.719130
 20
131.964272
 30
0.0
 10
75.719130
 20
133.208720
 30
0.0
  0
LWPOLYLINE
  5
26b
100
AcDbEntity
  8
0
 62
7
100
AcDbPolyline
 90
3
 70
0
 10
86.919128
 20
142.808720
 30
0.0
 10
102.919128
 20
142.808720
 30
0.0
 10
102.919128
 20
140.408720
 30
0.0
  0
SPLINE
  5
26c
100
AcDbEntity
  8
0
 62
7
100
AcDbSpline
 70
8
 71
3
 72
8
 73
4
 74
0
 40
0
 40
0
 40
0
 40
0
 40
1
 40
1
 40
1
 40
1
 10
78.919130
 20
134.808720
 30
0.0
 10
78.919130
 20
136.319832
 30
0.0
 10
79.452464
 20
136.408720
 30
0.0
 10
88.519128
 20
136.408720
 30
0.0
  0
SPLINE
  5
26d
100
AcDbEntity
  8
0
 62
7
100
AcDbSpline
 70
8
 71
3
 72
8
 73
4
 74
0
 40
0
 40
0
 40
0
 40
0
 40
1
 40
1
 40
1
 40
1
 10
88.519128
 20
136.408720
 30
0.0
 10
97.585792
 20
136.408720
 30
0.0
 10
98.119128
 20
136.497608
 30
0.0
 10
98.119128
 20
138.008720
 30
0.0
  0
SPLINE
  5
26e
100
AcDbEntity
  8
0
 62
7
100
AcDbSpline
 70
8
 71
3
 72
8
 73
4
 74
0
 40
0
 40
0
 40
0
 40
0
 40
1
 40
1
 40
1
 40
1
 10
98.119128
 20
138.008720
 30
0.0
 10
98.119128
 20
139.075384
 30
0.0
 10
98.652464
 20
139.608720
 30
0.0
 10
99.719128
 20
139.608720
 30
0.0
  0
SPLINE
  5
26f
100
AcDbEntity
  8
0
 62
7
100
AcDbSpline
 70
8
 71
3
 72
8
 73
4
 74
0
 40
0
 40
0
 40
0
 40
0
 40
1
 40
1
 40
1
 40
1
 10
99.719128
 20
139.608720
 30
0.0
 10
100.599128
 20
139.608720
 30
0.0
 10
101.319128
 20
139.968720
 30
0.0
 10
101.319128
 20
140.408720
 30
0.0
  0
SPLINE
  5
270
100
AcDbEntity
  8
0
 62
7
100
AcDbSpline
 70
8
 71
3
 72
8
 73
4
 74
0
 40
0
 40
0
 40
0
 40
0
 40
1
 40
1
 40
1
 40
1
 10
101.319128
 20
140.408720
 30
0.0
 10
101.319128
 20
140.915384
 30
0.0
 10
95.452464
 20
141.208720
 30
0.0
 10
85.319128
 20
141.208720
 30
0.0
  0
LWPOLYLINE
  5
271
100
AcDbEntity
  8
0
 62
7
100
AcDbPolyline
 90
2
 70
0
 10
75.719130
 20
133.208720
 30
0.0
 10
75.719130
 20
133.208720
 30
0.0
  0
SPLINE
  5
272
100
AcDbEntity
  8
0
 62
7
100
AcDbSpline
 70
8
 71
3
 72
8
 73
4
 74
0
 40
0
 40
0
 40
0
 40
0
 40
1
 40
1
 40
1
 40
1
 10
69.319130
 20
143.608720
 30
0.0
 10
69.319130
 20
145.875384
 30
0.0
 10
69.496908
 20
146.008720
 30
0.0
 10
72.519130
 20
146.008720
 30
0.0
  0
SPLINE
  5
273
100
AcDbEntity
  8
0
 62
7
100
AcDbSpline
 70
8
 71
3
 72
8
 73
4
 74
0
 40
0
 40
0
 40
0
 40
0
 40
1
 40
1
 40
1
 40
1
 10
72.519130
 20
146.008720
 30
0.0
 10
75.185797
 20
146.008720
 30
0.0
 10
75.719130
 20
146.275384
 30
0.0
 10
75.719130
 20
147.608720
 30
0.0
  0
SPLINE
  5
274
100
AcDbEntity
  8
0
 62
7
100
AcDbSpline
 70
8
 71
3
 72
8
 73
4
 74
0
 40
0
 40
0
 40
0
 40
0
 40
1
 40
1
 40
1
 40
1
 10
75.719130
 20
147.608720
 30
0.0
 10
75.719130
 20
148.942056
 30
0.0
 10
76.252464
 20
149.208720
 30
0.0
 10
78.919130
 20
149.208720
 30
0.0
  0
SPLINE
  5
275
100
AcDbEntity
  8
0
 62
7
100
AcDbSpline
 70
8
 71
3
 72
8
 73
4
 74
0
 40
0
 40
0
 40
0
 40
0
 40
1
 40
1
 40
1
 40
1
 10
78.919130
 20
149.208720
 30
0.0
 10
81.585792
 20
149.208720
 30
0.0
 10
82.119128
 20
149.475384
 30
0.0
 10
82.119128
 20
150.808720
 30
0.0
  0
SPLINE
  5
276
100
AcDbEntity
  8
0
 62
7
100
AcDbSpline
 70
8
 71
3
 72
8
 73
4
 74
0
 40
0
 40
0
 40
0
 40
0
 40
1
 40
1
 40
1
 40
1
 10
82.119128
 20
150.808720
 30
0.0
 10
82.119128
 20
152.142053
 30
0.0
 10
82.652464
 20
152.408717
 30
0.0
 10
85.319128
 20
152.408717
 30
0.0
  0
SPLINE
  5
277
100
AcDbEntity
  8
0
 62
7
100
AcDbSpline
 70
8
 71
3
 72
8
 73
4
 74
0
 40
0
 40
0
 40
0
 40
0
 40
1
 40
1
 40
1
 40
1
 10
85.319128
 20
152.408717
 30
0.0
 10
87.985792
 20
152.408717
 30
0.0
 10
88.519128
 20
152.675381
 30
0.0
 10
88.519128
 20
154.008717
 30
0.0
  0
SPLINE
  5
278
100
AcDbEntity
  8
0
 62
7
100
AcDbSpline
 70
8
 71
3
 72
8
 73
4
 74
0
 40
0
 40
0
 40
0
 40
0
 40
1
 40
1
 40
1
 40
1
 10
88.519128
 20
154.008717
 30
0.0
 10
88.519128
 20
155.075383
 30
0.0
 10
89.052464
 20
155.608717
 30
0.0
 10
90.119128
 20
155.608717
 30
0.0
  0
SPLINE
  5
279
100
AcDbEntity
  8
0
 62
7
100
AcDbSpline
 70
8
 71
3
 72
8
 73
4
 74
0
 40
0
 40
0
 40
0
 40
0
 40
1
 40
1
 40
1
 40
1
 10
90.119128
 20
155.608717
 30
0.0
 10
91.185792
 20
155.608717
 30
0.0
 10
91.719128
 20
156.142050
 30
0.0
 10
91.719128
 20
157.208717
 30
0.0
  0
SPLINE
  5
27a
100
AcDbEntity
  8
0
 62
7
100
AcDbSpline
 70
8
 71
3
 72
8
 73
4
 74
0
 40
0
 40
0
 40
0
 40
0
 40
1
 40
1
 40
1
 40
1
 10
91.719128
 20
157.208717
 30
0.0
 10
91.719128
 20
158.275383
 30
0.0
 10
92.252464
 20
158.808717
 30
0.0
 10
93.319128
 20
158.808717
 30
0.0
  0
SPLINE
  5
27b
100
AcDbEntity
  8
0
 62
7
100
AcDbSpline
 70
8
 71
3
 72
8
 73
4
 74
0
 40
0
 40
0
 40
0
 40
0
 40
1
 40
1
 40
1
 40
1
 10
93.319128
 20
158.808717
 30
0.0
 10
94.741352
 20
158.808717
 30
0.0
 10
94.919128
 20
159.342050
 30
0.0
 10
94.919128
 20
163.608717
 30
0.0
  0
LWPOLYLINE
  5
27c
100
AcDbEntity
  8
0
 62
7
100
AcDbPolyline
 90
3
 70
0
 10
85.319128
 20
141.208720
 30
0.0
 10
69.319130
 20
141.208720
 30
0.0
 10
69.319130
 20
143.608720
 30
0.0
  0
SPLINE
  5
27d
100
AcDbEntity
  8
0
 62
7
100
AcDbSpline
 70
8
 71
3
 72
8
 73
4
 74
0
 40
0
 40
0
 40
0
 40
0
 40
1
 40
1
 40
1
 40
1
 10
98.919128
 20
168.408717
 30
0.0
 10
102.385792
 20
168.408717
 30
0.0
 10
102.919128
 20
168.195383
 30
0.0
 10
102.919128
 20
166.808717
 30
0.0
  0
SPLINE
  5
27e
100
AcDbEntity
  8
0
 62
7
100
AcDbSpline
 70
8
 71
3
 72
8
 73
4
 74
0
 40
0
 40
0
 40
0
 40
0
 40
1
 40
1
 40
1
 40
1
 10
102.919128
 20
166.808717
 30
0.0
 10
102.919128
 20
165.742050
 30
0.0
 10
103.452464
 20
165.208717
 30
0.0
 10
104.519128
 20
165.208717
 30
0.0
  0
SPLINE
  5
27f
100
AcDbEntity
  8
0
 62
7
100
AcDbSpline
 70
8
 71
3
 72
8
 73
4
 74
0
 40
0
 40
0
 40
0
 40
0
 40
1
 40
1
 40
1
 40
1
 10
104.519128
 20
165.208717
 30
0.0
 10
105.585792
 20
165.208717
 30
0.0
 10
106.119128
 20
164.675383
 30
0.0
 10
106.119128
 20
163.608717
 30
0.0
  0
SPLINE
  5
280
100
AcDbEntity
  8
0
 62
7
100
AcDbSpline
 70
8
 71
3
 72
8
 73
4
 74
0
 40
0
 40
0
 40
0
 40
0
 40
1
 40
1
 40
1
 40
1
 10
106.119128
 20
163.608717
 30
0.0
 10
106.119128
 20
162.542050
 30
0.0
 10
106.652464
 20
162.008717
 30
0.0
 10
107.719128
 20
162.008717
 30
0.0
  0
SPLINE
  5
281
100
AcDbEntity
  8
0
 62
7
100
AcDbSpline
 70
8
 71
3
 72
8
 73
4
 74
0
 40
0
 40
0
 40
0
 40
0
 40
1
 40
1
 40
1
 40
1
 10
107.719128
 20
162.008717
 30
0.0
 10
109.052464
 20
162.008717
 30
0.0
 10
109.319128
 20
161.475383
 30
0.0
 10
109.319128
 20
158.808717
 30
0.0
  0
SPLINE
  5
282
100
AcDbEntity
  8
0
 62
7
100
AcDbSpline
 70
8
 71
3
 72
8
 73
4
 74
0
 40
0
 40
0
 40
0
 40
0
 40
1
 40
1
 40
1
 40
1
 10
109.319128
 20
158.808717
 30
0.0
 10
109.319128
 20
156.142050
 30
0.0
 10
109.585792
 20
155.608717
 30
0.0
 10
110.919128
 20
155.608717
 30
0.0
  0
SPLINE
  5
283
100
AcDbEntity
  8
0
 62
7
100
AcDbSpline
 70
8
 71
3
 72
8
 73
4
 74
0
 40
0
 40
0
 40
0
 40
0
 40
1
 40
1
 40
1
 40
1
 10
110.919128
 20
155.608717
 30
0.0
 10
111.985792
 20
155.608717
 30
0.0
 10
112.519128
 20
155.075383
 30
0.0
 10
112.519128
 20
154.008717
 30
0.0
  0
SPLINE
  5
284
100
AcDbEntity
  8
0
 62
7
100
AcDbSpline
 70
8
 71
3
 72
8
 73
4
 74
0
 40
0
 40
0
 40
0
 40
0
 40
1
 40
1
 40
1
 40
1
 10
112.519128
 20
154.008717
 30
0.0
 10
112.519128
 20
153.128717
 30
0.0
 10
112.879128
 20
152.408717
 30
0.0
 10
113.319128
 20
152.408717
 30
0.0
  0
SPLINE
  5
285
100
AcDbEntity
  8
0
 62
7
100
AcDbSpline
 70
8
 71
3
 72
8
 73
4
 74
0
 40
0
 40
0
 40
0
 40
0
 40
1
 40
1
 40
1
 40
1
 10
113.319128
 20
152.408717
 30
0.0
 10
113.759128
 20
152.408717
 30
0.0
 10
114.119128
 20
153.128717
 30
0.0
 10
114.119128
 20
154.008717
 30
0.0
  0
SPLINE
  5
286
100
AcDbEntity
  8
0
 62
7
100
AcDbSpline
 70
8
 71
3
 72
8
 73
4
 74
0
 40
0
 40
0
 40
0
 40
0
 40
1
 40
1
 40
1
 40
1
 10
114.119128
 20
154.008717
 30
0.0
 10
114.119128
 20
155.075383
 30
0.0
 10
114.652464
 20
155.608717
 30
0.0
 10
115.719128
 20
155.608717
 30
0.0
  0
SPLINE
  5
287
100
AcDbEntity
  8
0
 62
7
100
AcDbSpline
 70
8
 71
3
 72
8
 73
4
 74
0
 40
0
 40
0
 40
0
 40
0
 40
1
 40
1
 40
1
 40
1
 10
115.719128
 20
155.608717
 30
0.0
 10
116.785792
 20
155.608717
 30
0.0
 10
117.319128
 20
156.142050
 30
0.0
 10
117.319128
 20
157.208717
 30
0.0
  0
SPLINE
  5
288
100
AcDbEntity
  8
0
 62
7
100
AcDbSpline
 70
8
 71
3
 72
8
 73
4
 74
0
 40
0
 40
0
 40
0
 40
0
 40
1
 40
1
 40
1
 40
1
 10
117.319128
 20
157.208717
 30
0.0
 10
117.319128
 20
158.275383
 30
0.0
 10
117.852464
 20
158.808717
 30
0.0
 10
118.919128
 20
158.808717
 30
0.0
  0
SPLINE
  5
289
100
AcDbEntity
  8
0
 62
7
100
AcDbSpline
 70
8
 71
3
 72
8
 73
4
 74
0
 40
0
 40
0
 40
0
 40
0
 40
1
 40
1
 40
1
 40
1
 10
118.919128
 20
158.808717
 30
0.0
 10
120.252464
 20
158.808717
 30
0.0
 10
120.519128
 20
159.342050
 30
0.0
 10
120.519128
 20
162.008717
 30
0.0
  0
SPLINE
  5
28a
100
AcDbEntity
  8
0
 62
7
100
AcDbSpline
 70
8
 71
3
 72
8
 73
4
 74
0
 40
0
 40
0
 40
0
 40
0
 40
1
 40
1
 40
1
 40
1
 10
120.519128
 20
162.008717
 30
0.0
 10
120.519128
 20
164.675383
 30
0.0
 10
120.785792
 20
165.208717
 30
0.0
 10
122.119128
 20
165.208717
 30
0.0
  0
SPLINE
  5
28b
100
AcDbEntity
  8
0
 62
7
100
AcDbSpline
 70
8
 71
3
 72
8
 73
4
 74
0
 40
0
 40
0
 40
0
 40
0
 40
1
 40
1
 40
1
 40
1
 10
122.119128
 20
165.208717
 30
0.0
 10
123.363576
 20
165.208717
 30
0.0
 10
123.719128
 20
165.742050
 30
0.0
 10
123.719128
 20
167.608717
 30
0.0
  0
SPLINE
  5
28c
100
AcDbEntity
  8
0
 62
7
100
AcDbSpline
 70
8
 71
3
 72
8
 73
4
 74
0
 40
0
 40
0
 40
0
 40
0
 40
1
 40
1
 40
1
 40
1
 10
123.719128
 20
167.608717
 30
0.0
 10
123.719128
 20
169.475383
 30
0.0
 10
123.363576
 20
170.008717
 30
0.0
 10
122.119128
 20
170.008717
 30
0.0
  0
SPLINE
  5
28d
100
AcDbEntity
  8
0
 62
7
100
AcDbSpline
 70
8
 71
3
 72
8
 73
4
 74
0
 40
0
 40
0
 40
0
 40
0
 40
1
 40
1
 40
1
 40
1
 10
122.119128
 20
170.008717
 30
0.0
 10
120.732464
 20
170.008717
 30
0.0
 10
120.519128
 20
170.542050
 30
0.0
 10
120.519128
 20
174.008717
 30
0.0
  0
LWPOLYLINE
  5
28e
100
AcDbEntity
  8
0
 62
7
100
AcDbPolyline
 90
3
 70
0
 10
94.919128
 20
163.608717
 30
0.0
 10
94.919128
 20
168.408717
 30
0.0
 10
98.919128
 20
168.408717
 30
0.0
  0
SPLINE
  5
28f
100
AcDbEntity
  8
0
 62
7
100
AcDbSpline
 70
8
 71
3
 72
8
 73
4
 74
0
 40
0
 40
0
 40
0
 40
0
 40
1
 40
1
 40
1
 40
1
 10
139.719128
 20
181.208717
 30
0.0
 10
139.719128
 20
183.875383
 30
0.0
 10
139.985792
 20
184.408717
 30
0.0
 10
141.319128
 20
184.408717
 30
0.0
  0
SPLINE
  5
290
100
AcDbEntity
  8
0
 62
7
100
AcDbSpline
 70
8
 71
3
 72
8
 73
4
 74
0
 40
0
 40
0
 40
0
 40
0
 40
1
 40
1
 40
1
 40
1
 10
141.319128
 20
184.408717
 30
0.0
 10
142.766744
 20
184.408717
 30
0.0
 10
142.919128
 20
184.942050
 30
0.0
 10
142.919128
 20
190.008717
 30
0.0
  0
LWPOLYLINE
  5
291
100
AcDbEntity
  8
0
 62
7
100
AcDbPolyline
 90
5
 70
0
 10
120.519128
 20
174.008717
 30
0.0
 10
120.519128
 20
178.008717
 30
0.0
 10
130.119128
 20
178.008717
 30
0.0
 10
139.719128
 20
178.008717
 30
0.0
 10
139.719128
 20
181.208717
 30
0.0
  0
SPLINE
  5
292
100
AcDbEntity
  8
0
 62
7
100
AcDbSpline
 70
8
 71
3
 72
8
 73
4
 74
0
 40
0
 40
0
 40
0
 40
0
 40
1
 40
1
 40
1
 40
1
 10
139.719128
 20
195.608717
 30
0.0
 10
137.052464
 20
195.608717
 30
0.0
 10
136.519128
 20
195.875383
 30
0.0
 10
136.519128
 20
197.208717
 30
0.0
  0
SPLINE
  5
293
100
AcDbEntity
  8
0
 62
7
100
AcDbSpline
 70
8
 71
3
 72
8
 73
4
 74
0
 40
0
 40
0
 40
0
 40
0
 40
1
 40
1
 40
1
 40
1
 10
136.519128
 20
197.208717
 30
0.0
 10
136.519128
 20
198.675383
 30
0.0
 10
135.985792
 20
198.808717
 30
0.0
 10
130.119128
 20
198.808717
 30
0.0
  0
SPLINE
  5
294
100
AcDbEntity
  8
0
 62
7
100
AcDbSpline
 70
8
 71
3
 72
8
 73
4
 74
0
 40
0
 40
0
 40
0
 40
0
 40
1
 40
1
 40
1
 40
1
 10
130.119128
 20
198.808717
 30
0.0
 10
124.252464
 20
198.808717
 30
0.0
 10
123.719128
 20
198.942050
 30
0.0
 10
123.719128
 20
200.408717
 30
0.0
  0
SPLINE
  5
295
100
AcDbEntity
  8
0
 62
7
100
AcDbSpline
 70
8
 71
3
 72
8
 73
4
 74
0
 40
0
 40
0
 40
0
 40
0
 40
1
 40
1
 40
1
 40
1
 10
123.719128
 20
200.408717
 30
0.0
 10
123.719128
 20
201.875383
 30
0.0
 10
123.185792
 20
202.008717
 30
0.0
 10
117.319128
 20
202.008717
 30
0.0
  0
SPLINE
  5
296
100
AcDbEntity
  8
0
 62
7
100
AcDbSpline
 70
8
 71
3
 72
8
 73
4
 74
0
 40
0
 40
0
 40
0
 40
0
 40
1
 40
1
 40
1
 40
1
 10
117.319128
 20
202.008717
 30
0.0
 10
111.452464
 20
202.008717
 30
0.0
 10
110.919128
 20
202.142050
 30
0.0
 10
110.919128
 20
203.608717
 30
0.0
  0
SPLINE
  5
297
100
AcDbEntity
  8
0
 62
7
100
AcDbSpline
 70
8
 71
3
 72
8
 73
4
 74
0
 40
0
 40
0
 40
0
 40
0
 40
1
 40
1
 40
1
 40
1
 10
110.919128
 20
203.608717
 30
0.0
 10
110.919128
 20
205.170622
 30
0.0
 10
110.385792
 20
205.208717
 30
0.0
 10
88.519128
 20
205.208717
 30
0.0
  0
SPLINE
  5
298
100
AcDbEntity
  8
0
 62
7
100
AcDbSpline
 70
8
 71
3
 72
8
 73
4
 74
0
 40
0
 40
0
 40
0
 40
0
 40
1
 40
1
 40
1
 40
1
 10
88.519128
 20
205.208717
 30
0.0
 10
66.652464
 20
205.208717
 30
0.0
 10
66.119130
 20
205.246813
 30
0.0
 10
66.119130
 20
206.808717
 30
0.0
  0
SPLINE
  5
299
100
AcDbEntity
  8
0
 62
7
100
AcDbSpline
 70
8
 71
3
 72
8
 73
4
 74
0
 40
0
 40
0
 40
0
 40
0
 40
1
 40
1
 40
1
 40
1
 10
66.119130
 20
206.808717
 30
0.0
 10
66.119130
 20
208.366050
 30
0.0
 10
65.585797
 20
208.408717
 30
0.0
 10
46.119130
 20
208.408717
 30
0.0
  0
SPLINE
  5
29a
100
AcDbEntity
  8
0
 62
7
100
AcDbSpline
 70
8
 71
3
 72
8
 73
4
 74
0
 40
0
 40
0
 40
0
 40
0
 40
1
 40
1
 40
1
 40
1
 10
46.119130
 20
208.408717
 30
0.0
 10
26.652464
 20
208.408717
 30
0.0
 10
26.119130
 20
208.366053
 30
0.0
 10
26.119130
 20
206.808717
 30
0.0
  0
SPLINE
  5
29b
100
AcDbEntity
  8
0
 62
7
100
AcDbSpline
 70
8
 71
3
 72
8
 73
4
 74
0
 40
0
 40
0
 40
0
 40
0
 40
1
 40
1
 40
1
 40
1
 10
26.119130
 20
206.808717
 30
0.0
 10
26.119130
 20
205.742050
 30
0.0
 10
25.585797
 20
205.208717
 30
0.0
 10
24.519130
 20
205.208717
 30
0.0
  0
SPLINE
  5
29c
100
AcDbEntity
  8
0
 62
7
100
AcDbSpline
 70
8
 71
3
 72
8
 73
4
 74
0
 40
0
 40
0
 40
0
 40
0
 40
1
 40
1
 40
1
 40
1
 10
24.519130
 20
205.208717
 30
0.0
 10
23.452464
 20
205.208717
 30
0.0
 10
22.919130
 20
204.675383
 30
0.0
 10
22.919130
 20
203.608717
 30
0.0
  0
SPLINE
  5
29d
100
AcDbEntity
  8
0
 62
7
100
AcDbSpline
 70
8
 71
3
 72
8
 73
4
 74
0
 40
0
 40
0
 40
0
 40
0
 40
1
 40
1
 40
1
 40
1
 10
22.919130
 20
203.608717
 30
0.0
 10
22.919130
 20
202.542050
 30
0.0
 10
22.385797
 20
202.008717
 30
0.0
 10
21.319130
 20
202.008717
 30
0.0
  0
SPLINE
  5
29e
100
AcDbEntity
  8
0
 62
7
100
AcDbSpline
 70
8
 71
3
 72
8
 73
4
 74
0
 40
0
 40
0
 40
0
 40
0
 40
1
 40
1
 40
1
 40
1
 10
21.319130
 20
202.008717
 30
0.0
 10
20.252464
 20
202.008717
 30
0.0
 10
19.719130
 20
201.475383
 30
0.0
 10
19.719130
 20
200.408717
 30
0.0
  0
SPLINE
  5
29f
100
AcDbEntity
  8
0
 62
7
100
AcDbSpline
 70
8
 71
3
 72
8
 73
4
 74
0
 40
0
 40
0
 40
0
 40
0
 40
1
 40
1
 40
1
 40
1
 10
19.719130
 20
200.408717
 30
0.0
 10
19.719130
 20
199.342050
 30
0.0
 10
19.185797
 20
198.808717
 30
0.0
 10
18.119130
 20
198.808717
 30
0.0
  0
SPLINE
  5
2a0
100
AcDbEntity
  8
0
 62
7
100
AcDbSpline
 70
8
 71
3
 72
8
 73
4
 74
0
 40
0
 40
0
 40
0
 40
0
 40
1
 40
1
 40
1
 40
1
 10
18.119130
 20
198.808717
 30
0.0
 10
17.052464
 20
198.808717
 30
0.0
 10
16.519130
 20
198.275383
 30
0.0
 10
16.519130
 20
197.208717
 30
0.0
  0
SPLINE
  5
2a1
100
AcDbEntity
  8
0
 62
7
100
AcDbSpline
 70
8
 71
3
 72
8
 73
4
 74
0
 40
0
 40
0
 40
0
 40
0
 40
1
 40
1
 40
1
 40
1
 10
16.519130
 20
197.208717
 30
0.0
 10
16.519130
 20
196.142050
 30
0.0
 10
15.985797
 20
195.608717
 30
0.0
 10
14.919130
 20
195.608717
 30
0.0
  0
SPLINE
  5
2a2
100
AcDbEntity
  8
0
 62
7
100
AcDbSpline
 70
8
 71
3
 72
8
 73
4
 74
0
 40
0
 40
0
 40
0
 40
0
 40
1
 40
1
 40
1
 40
1
 10
14.919130
 20
195.608717
 30
0.0
 10
13.532464
 20
195.608717
 30
0.0
 10
13.319130
 20
195.075383
 30
0.0
 10
13.319130
 20
191.608717
 30
0.0
  0
LWPOLYLINE
  5
2a3
100
AcDbEntity
  8
0
 62
7
100
AcDbPolyline
 90
3
 70
0
 10
142.919128
 20
190.008717
 30
0.0
 10
142.919128
 20
195.608717
 30
0.0
 10
139.719128
 20
195.608717
 30
0.0
  0
SPLINE
  5
2a4
100
AcDbEntity
  8
0
 62
7
100
AcDbSpline
 70
8
 71
3
 72
8
 73
4
 74
0
 40
0
 40
0
 40
0
 40
0
 40
1
 40
1
 40
1
 40
1
 10
29.319130
 20
187.608717
 30
0.0
 10
44.785797
 20
187.608717
 30
0.0
 10
45.319130
 20
187.555381
 30
0.0
 10
45.319130
 20
186.008717
 30
0.0
  0
SPLINE
  5
2a5
100
AcDbEntity
  8
0
 62
7
100
AcDbSpline
 70
8
 71
3
 72
8
 73
4
 74
0
 40
0
 40
0
 40
0
 40
0
 40
1
 40
1
 40
1
 40
1
 10
45.319130
 20
186.008717
 30
0.0
 10
45.319130
 20
184.942050
 30
0.0
 10
45.852464
 20
184.408717
 30
0.0
 10
46.919130
 20
184.408717
 30
0.0
  0
SPLINE
  5
2a6
100
AcDbEntity
  8
0
 62
7
100
AcDbSpline
 70
8
 71
3
 72
8
 73
4
 74
0
 40
0
 40
0
 40
0
 40
0
 40
1
 40
1
 40
1
 40
1
 10
46.919130
 20
184.408717
 30
0.0
 10
48.305797
 20
184.408717
 30
0.0
 10
48.519130
 20
183.875383
 30
0.0
 10
48.519130
 20
180.408717
 30
0.0
  0
SPLINE
  5
2a7
100
AcDbEntity
  8
0
 62
7
100
AcDbSpline
 70
8
 71
3
 72
8
 73
4
 74
0
 40
0
 40
0
 40
0
 40
0
 40
1
 40
1
 40
1
 40
1
 10
48.519130
 20
180.408717
 30
0.0
 10
48.519130
 20
176.942050
 30
0.0
 10
48.305797
 20
176.408717
 30
0.0
 10
46.919130
 20
176.408717
 30
0.0
  0
SPLINE
  5
2a8
100
AcDbEntity
  8
0
 62
7
100
AcDbSpline
 70
8
 71
3
 72
8
 73
4
 74
0
 40
0
 40
0
 40
0
 40
0
 40
1
 40
1
 40
1
 40
1
 10
46.919130
 20
176.408717
 30
0.0
 10
45.852464
 20
176.408717
 30
0.0
 10
45.319130
 20
175.875383
 30
0.0
 10
45.319130
 20
174.808717
 30
0.0
  0
SPLINE
  5
2a9
100
AcDbEntity
  8
0
 62
7
100
AcDbSpline
 70
8
 71
3
 72
8
 73
4
 74
0
 40
0
 40
0
 40
0
 40
0
 40
1
 40
1
 40
1
 40
1
 10
45.319130
 20
174.808717
 30
0.0
 10
45.319130
 20
173.475383
 30
0.0
 10
44.785797
 20
173.208717
 30
0.0
 10
42.119130
 20
173.208717
 30
0.0
  0
SPLINE
  5
2aa
100
AcDbEntity
  8
0
 62
7
100
AcDbSpline
 70
8
 71
3
 72
8
 73
4
 74
0
 40
0
 40
0
 40
0
 40
0
 40
1
 40
1
 40
1
 40
1
 10
42.119130
 20
173.208717
 30
0.0
 10
39.452464
 20
173.208717
 30
0.0
 10
38.919130
 20
172.942050
 30
0.0
 10
38.919130
 20
171.608717
 30
0.0
  0
SPLINE
  5
2ab
100
AcDbEntity
  8
0
 62
7
100
AcDbSpline
 70
8
 71
3
 72
8
 73
4
 74
0
 40
0
 40
0
 40
0
 40
0
 40
1
 40
1
 40
1
 40
1
 10
38.919130
 20
171.608717
 30
0.0
 10
38.919130
 20
170.542050
 30
0.0
 10
38.385797
 20
170.008717
 30
0.0
 10
37.319130
 20
170.008717
 30
0.0
  0
SPLINE
  5
2ac
100
AcDbEntity
  8
0
 62
7
100
AcDbSpline
 70
8
 71
3
 72
8
 73
4
 74
0
 40
0
 40
0
 40
0
 40
0
 40
1
 40
1
 40
1
 40
1
 10
37.319130
 20
170.008717
 30
0.0
 10
36.252464
 20
170.008717
 30
0.0
 10
35.719130
 20
169.475383
 30
0.0
 10
35.719130
 20
168.408717
 30
0.0
  0
SPLINE
  5
2ad
100
AcDbEntity
  8
0
 62
7
100
AcDbSpline
 70
8
 71
3
 72
8
 73
4
 74
0
 40
0
 40
0
 40
0
 40
0
 40
1
 40
1
 40
1
 40
1
 10
35.719130
 20
168.408717
 30
0.0
 10
35.719130
 20
167.342050
 30
0.0
 10
35.185797
 20
166.808717
 30
0.0
 10
34.119130
 20
166.808717
 30
0.0
  0
SPLINE
  5
2ae
100
AcDbEntity
  8
0
 62
7
100
AcDbSpline
 70
8
 71
3
 72
8
 73
4
 74
0
 40
0
 40
0
 40
0
 40
0
 40
1
 40
1
 40
1
 40
1
 10
34.119130
 20
166.808717
 30
0.0
 10
32.671511
 20
166.808717
 30
0.0
 10
32.519130
 20
166.275383
 30
0.0
 10
32.519130
 20
161.208717
 30
0.0
  0
LWPOLYLINE
  5
2af
100
AcDbEntity
  8
0
 62
7
100
AcDbPolyline
 90
3
 70
0
 10
13.319130
 20
191.608717
 30
0.0
 10
13.319130
 20
187.608717
 30
0.0
 10
29.319130
 20
187.608717
 30
0.0
  0
SPLINE
  5
2b0
100
AcDbEntity
  8
0
 62
7
100
AcDbSpline
 70
8
 71
3
 72
8
 73
4
 74
0
 40
0
 40
0
 40
0
 40
0
 40
1
 40
1
 40
1
 40
1
 10
36.519130
 20
155.608717
 30
0.0
 10
39.985797
 20
155.608717
 30
0.0
 10
40.519130
 20
155.822050
 30
0.0
 10
40.519130
 20
157.208717
 30
0.0
  0
SPLINE
  5
2b1
100
AcDbEntity
  8
0
 62
7
100
AcDbSpline
 70
8
 71
3
 72
8
 73
4
 74
0
 40
0
 40
0
 40
0
 40
0
 40
1
 40
1
 40
1
 40
1
 10
40.519130
 20
157.208717
 30
0.0
 10
40.519130
 20
158.542050
 30
0.0
 10
41.052464
 20
158.808717
 30
0.0
 10
43.719130
 20
158.808717
 30
0.0
  0
SPLINE
  5
2b2
100
AcDbEntity
  8
0
 62
7
100
AcDbSpline
 70
8
 71
3
 72
8
 73
4
 74
0
 40
0
 40
0
 40
0
 40
0
 40
1
 40
1
 40
1
 40
1
 10
43.719130
 20
158.808717
 30
0.0
 10
46.385797
 20
158.808717
 30
0.0
 10
46.919130
 20
159.075383
 30
0.0
 10
46.919130
 20
160.408717
 30
0.0
  0
SPLINE
  5
2b3
100
AcDbEntity
  8
0
 62
7
100
AcDbSpline
 70
8
 71
3
 72
8
 73
4
 74
0
 40
0
 40
0
 40
0
 40
0
 40
1
 40
1
 40
1
 40
1
 10
46.919130
 20
160.408717
 30
0.0
 10
46.919130
 20
161.475383
 30
0.0
 10
47.452464
 20
162.008717
 30
0.0
 10
48.519130
 20
162.008717
 30
0.0
  0
SPLINE
  5
2b4
100
AcDbEntity
  8
0
 62
7
100
AcDbSpline
 70
8
 71
3
 72
8
 73
4
 74
0
 40
0
 40
0
 40
0
 40
0
 40
1
 40
1
 40
1
 40
1
 10
48.519130
 20
162.008717
 30
0.0
 10
49.585797
 20
162.008717
 30
0.0
 10
50.119130
 20
162.542050
 30
0.0
 10
50.119130
 20
163.608717
 30
0.0
  0
SPLINE
  5
2b5
100
AcDbEntity
  8
0
 62
7
100
AcDbSpline
 70
8
 71
3
 72
8
 73
4
 74
0
 40
0
 40
0
 40
0
 40
0
 40
1
 40
1
 40
1
 40
1
 10
50.119130
 20
163.608717
 30
0.0
 10
50.119130
 20
164.995383
 30
0.0
 10
50.652464
 20
165.208717
 30
0.0
 10
54.119130
 20
165.208717
 30
0.0
  0
LWPOLYLINE
  5
2b6
100
AcDbEntity
  8
0
 62
7
100
AcDbPolyline
 90
3
 70
0
 10
32.519130
 20
161.208717
 30
0.0
 10
32.519130
 20
155.608717
 30
0.0
 10
36.519130
 20
155.608717
 30
0.0
  0
SPLINE
  5
2b7
100
AcDbEntity
  8
0
 62
7
100
AcDbSpline
 70
8
 71
3
 72
8
 73
4
 74
0
 40
0
 40
0
 40
0
 40
0
 40
1
 40
1
 40
1
 40
1
 10
58.119130
 20
160.408717
 30
0.0
 10
58.119130
 20
156.142050
 30
0.0
 10
58.296908
 20
155.608717
 30
0.0
 10
59.719130
 20
155.608717
 30
0.0
  0
SPLINE
  5
2b8
100
AcDbEntity
  8
0
 62
7
100
AcDbSpline
 70
8
 71
3
 72
8
 73
4
 74
0
 40
0
 40
0
 40
0
 40
0
 40
1
 40
1
 40
1
 40
1
 10
59.719130
 20
155.608717
 30
0.0
 10
60.785797
 20
155.608717
 30
0.0
 10
61.319130
 20
155.075383
 30
0.0
 10
61.319130
 20
154.008717
 30
0.0
  0
SPLINE
  5
2b9
100
AcDbEntity
  8
0
 62
7
100
AcDbSpline
 70
8
 71
3
 72
8
 73
4
 74
0
 40
0
 40
0
 40
0
 40
0
 40
1
 40
1
 40
1
 40
1
 10
61.319130
 20
154.008717
 30
0.0
 10
61.319130
 20
152.942053
 30
0.0
 10
61.852464
 20
152.408717
 30
0.0
 10
62.919130
 20
152.408717
 30
0.0
  0
SPLINE
  5
2ba
100
AcDbEntity
  8
0
 62
7
100
AcDbSpline
 70
8
 71
3
 72
8
 73
4
 74
0
 40
0
 40
0
 40
0
 40
0
 40
1
 40
1
 40
1
 40
1
 10
62.919130
 20
152.408717
 30
0.0
 10
64.252464
 20
152.408717
 30
0.0
 10
64.519130
 20
151.875384
 30
0.0
 10
64.519130
 20
149.208720
 30
0.0
  0
SPLINE
  5
2bb
100
AcDbEntity
  8
0
 62
7
100
AcDbSpline
 70
8
 71
3
 72
8
 73
4
 74
0
 40
0
 40
0
 40
0
 40
0
 40
1
 40
1
 40
1
 40
1
 10
64.519130
 20
149.208720
 30
0.0
 10
64.519130
 20
146.542056
 30
0.0
 10
64.785797
 20
146.008720
 30
0.0
 10
66.119130
 20
146.008720
 30
0.0
  0
SPLINE
  5
2bc
100
AcDbEntity
  8
0
 62
7
100
AcDbSpline
 70
8
 71
3
 72
8
 73
4
 74
0
 40
0
 40
0
 40
0
 40
0
 40
1
 40
1
 40
1
 40
1
 10
66.119130
 20
146.008720
 30
0.0
 10
67.363575
 20
146.008720
 30
0.0
 10
67.719130
 20
145.475384
 30
0.0
 10
67.719130
 20
143.608720
 30
0.0
  0
LWPOLYLINE
  5
2bd
100
AcDbEntity
  8
0
 62
7
100
AcDbPolyline
 90
3
 70
0
 10
54.119130
 20
165.208717
 30
0.0
 10
58.119130
 20
165.208717
 30
0.0
 10
58.119130
 20
160.408717
 30
0.0
  0
SPLINE
  5
2be
100
AcDbEntity
  8
0
 62
7
100
AcDbSpline
 70
8
 71
3
 72
8
 73
4
 74
0
 40
0
 40
0
 40
0
 40
0
 40
1
 40
1
 40
1
 40
1
 10
58.919130
 20
141.208720
 30
0.0
 10
50.652464
 20
141.208720
 30
0.0
 10
50.119130
 20
141.305688
 30
0.0
 10
50.119130
 20
142.808720
 30
0.0
  0
SPLINE
  5
2bf
100
AcDbEntity
  8
0
 62
7
100
AcDbSpline
 70
8
 71
3
 72
8
 73
4
 74
0
 40
0
 40
0
 40
0
 40
0
 40
1
 40
1
 40
1
 40
1
 10
50.119130
 20
142.808720
 30
0.0
 10
50.119130
 20
143.875384
 30
0.0
 10
49.585797
 20
144.408720
 30
0.0
 10
48.519130
 20
144.408720
 30
0.0
  0
SPLINE
  5
2c0
100
AcDbEntity
  8
0
 62
7
100
AcDbSpline
 70
8
 71
3
 72
8
 73
4
 74
0
 40
0
 40
0
 40
0
 40
0
 40
1
 40
1
 40
1
 40
1
 10
48.519130
 20
144.408720
 30
0.0
 10
47.452464
 20
144.408720
 30
0.0
 10
46.919130
 20
144.942056
 30
0.0
 10
46.919130
 20
146.008720
 30
0.0
  0
SPLINE
  5
2c1
100
AcDbEntity
  8
0
 62
7
100
AcDbSpline
 70
8
 71
3
 72
8
 73
4
 74
0
 40
0
 40
0
 40
0
 40
0
 40
1
 40
1
 40
1
 40
1
 10
46.919130
 20
146.008720
 30
0.0
 10
46.919130
 20
147.253168
 30
0.0
 10
46.385797
 20
147.608720
 30
0.0
 10
44.519130
 20
147.608720
 30
0.0
  0
SPLINE
  5
2c2
100
AcDbEntity
  8
0
 62
7
100
AcDbSpline
 70
8
 71
3
 72
8
 73
4
 74
0
 40
0
 40
0
 40
0
 40
0
 40
1
 40
1
 40
1
 40
1
 10
44.519130
 20
147.608720
 30
0.0
 10
42.172464
 20
147.608720
 30
0.0
 10
42.119130
 20
147.519832
 30
0.0
 10
42.119130
 20
143.608720
 30
0.0
  0
SPLINE
  5
2c3
100
AcDbEntity
  8
0
 62
7
100
AcDbSpline
 70
8
 71
3
 72
8
 73
4
 74
0
 40
0
 40
0
 40
0
 40
0
 40
1
 40
1
 40
1
 40
1
 10
42.119130
 20
143.608720
 30
0.0
 10
42.119130
 20
140.142056
 30
0.0
 10
42.332464
 20
139.608720
 30
0.0
 10
43.719130
 20
139.608720
 30
0.0
  0
SPLINE
  5
2c4
100
AcDbEntity
  8
0
 62
7
100
AcDbSpline
 70
8
 71
3
 72
8
 73
4
 74
0
 40
0
 40
0
 40
0
 40
0
 40
1
 40
1
 40
1
 40
1
 10
43.719130
 20
139.608720
 30
0.0
 10
44.785797
 20
139.608720
 30
0.0
 10
45.319130
 20
139.075384
 30
0.0
 10
45.319130
 20
138.008720
 30
0.0
  0
SPLINE
  5
2c5
100
AcDbEntity
  8
0
 62
7
100
AcDbSpline
 70
8
 71
3
 72
8
 73
4
 74
0
 40
0
 40
0
 40
0
 40
0
 40
1
 40
1
 40
1
 40
1
 10
45.319130
 20
138.008720
 30
0.0
 10
45.319130
 20
136.462056
 30
0.0
 10
45.852464
 20
136.408720
 30
0.0
 10
61.319130
 20
136.408720
 30
0.0
  0
SPLINE
  5
2c6
100
AcDbEntity
  8
0
 62
7
100
AcDbSpline
 70
8
 71
3
 72
8
 73
4
 74
0
 40
0
 40
0
 40
0
 40
0
 40
1
 40
1
 40
1
 40
1
 10
61.319130
 20
136.408720
 30
0.0
 10
76.785797
 20
136.408720
 30
0.0
 10
77.319130
 20
136.355360
 30
0.0
 10
77.319130
 20
134.808720
 30
0.0
  0
SPLINE
  5
2c7
100
AcDbEntity
  8
0
 62
7
100
AcDbSpline
 70
8
 71
3
 72
8
 73
4
 74
0
 40
0
 40
0
 40
0
 40
0
 40
1
 40
1
 40
1
 40
1
 10
77.319130
 20
134.808720
 30
0.0
 10
77.319130
 20
133.928720
 30
0.0
 10
77.679130
 20
133.208720
 30
0.0
 10
78.119130
 20
133.208720
 30
0.0
  0
SPLINE
  5
2c8
100
AcDbEntity
  8
0
 62
7
100
AcDbSpline
 70
8
 71
3
 72
8
 73
4
 74
0
 40
0
 40
0
 40
0
 40
0
 40
1
 40
1
 40
1
 40
1
 10
78.119130
 20
133.208720
 30
0.0
 10
78.559130
 20
133.208720
 30
0.0
 10
78.919130
 20
133.928720
 30
0.0
 10
78.919130
 20
134.808720
 30
0.0
  0
LWPOLYLINE
  5
2c9
100
AcDbEntity
  8
0
 62
7
100
AcDbPolyline
 90
3
 70
0
 10
67.719130
 20
143.608720
 30
0.0
 10
67.719130
 20
141.208720
 30
0.0
 10
58.919130
 20
141.208720
 30
0.0
  0
LWPOLYLINE
  5
2ca
100
AcDbEntity
  8
0
 62
7
100
AcDbPolyline
 90
2
 70
0
 10
78.919130
 20
134.808720
 30
0.0
 10
78.919130
 20
134.808720
 30
0.0
  0
SPLINE
  5
2cb
100
AcDbEntity
  8
0
 62
7
100
AcDbSpline
 70
8
 71
3
 72
8
 73
4
 74
0
 40
0
 40
0
 40
0
 40
0
 40
1
 40
1
 40
1
 40
1
 10
78.919130
 20
164.408717
 30
0.0
 10
78.919130
 20
166.542050
 30
0.0
 10
78.652464
 20
166.808717
 30
0.0
 10
76.519130
 20
166.808717
 30
0.0
  0
SPLINE
  5
2cc
100
AcDbEntity
  8
0
 62
7
100
AcDbSpline
 70
8
 71
3
 72
8
 73
4
 74
0
 40
0
 40
0
 40
0
 40
0
 40
1
 40
1
 40
1
 40
1
 10
76.519130
 20
166.808717
 30
0.0
 10
74.385797
 20
166.808717
 30
0.0
 10
74.119130
 20
166.542050
 30
0.0
 10
74.119130
 20
164.408717
 30
0.0
  0
SPLINE
  5
2cd
100
AcDbEntity
  8
0
 62
7
100
AcDbSpline
 70
8
 71
3
 72
8
 73
4
 74
0
 40
0
 40
0
 40
0
 40
0
 40
1
 40
1
 40
1
 40
1
 10
74.119130
 20
164.408717
 30
0.0
 10
74.119130
 20
162.275383
 30
0.0
 10
74.385797
 20
162.008717
 30
0.0
 10
76.519130
 20
162.008717
 30
0.0
  0
SPLINE
  5
2ce
100
AcDbEntity
  8
0
 62
7
100
AcDbSpline
 70
8
 71
3
 72
8
 73
4
 74
0
 40
0
 40
0
 40
0
 40
0
 40
1
 40
1
 40
1
 40
1
 10
76.519130
 20
162.008717
 30
0.0
 10
78.652464
 20
162.008717
 30
0.0
 10
78.919130
 20
162.275383
 30
0.0
 10
78.919130
 20
164.408717
 30
0.0
  0
LWPOLYLINE
  5
2cf
100
AcDbEntity
  8
0
 62
7
100
AcDbPolyline
 90
10
 70
0
 10
72.519130
 20
164.408717
 30
0.0
 10
72.519130
 20
168.408717
 30
0.0
 10
76.519130
 20
168.408717
 30
0.0
 10
80.519128
 20
168.408717
 30
0.0
 10
80.519128
 20
164.408717
 30
0.0
 10
80.519128
 20
160.408717
 30
0.0
 10
76.519130
 20
160.408717
 30
0.0
 10
72.519130
 20
160.408717
 30
0.0
 10
72.519130
 20
164.408717
 30
0.0
 10
72.519130
 20
164.408717
 30
0.0
  0
SPLINE
  5
2d0
100
AcDbEntity
  8
0
 62
7
100
AcDbSpline
 70
8
 71
3
 72
8
 73
4
 74
0
 40
0
 40
0
 40
0
 40
0
 40
1
 40
1
 40
1
 40
1
 10
53.319130
 20
182.008717
 30
0.0
 10
53.319130
 20
184.355382
 30
0.0
 10
53.408019
 20
184.408717
 30
0.0
 10
57.319130
 20
184.408717
 30
0.0
  0
SPLINE
  5
2d1
100
AcDbEntity
  8
0
 62
7
100
AcDbSpline
 70
8
 71
3
 72
8
 73
4
 74
0
 40
0
 40
0
 40
0
 40
0
 40
1
 40
1
 40
1
 40
1
 10
57.319130
 20
184.408717
 30
0.0
 10
61.230242
 20
184.408717
 30
0.0
 10
61.319130
 20
184.355381
 30
0.0
 10
61.319130
 20
182.008717
 30
0.0
  0
SPLINE
  5
2d2
100
AcDbEntity
  8
0
 62
7
100
AcDbSpline
 70
8
 71
3
 72
8
 73
4
 74
0
 40
0
 40
0
 40
0
 40
0
 40
1
 40
1
 40
1
 40
1
 10
61.319130
 20
182.008717
 30
0.0
 10
61.319130
 20
179.662050
 30
0.0
 10
61.230242
 20
179.608717
 30
0.0
 10
57.319130
 20
179.608717
 30
0.0
  0
SPLINE
  5
2d3
100
AcDbEntity
  8
0
 62
7
100
AcDbSpline
 70
8
 71
3
 72
8
 73
4
 74
0
 40
0
 40
0
 40
0
 40
0
 40
1
 40
1
 40
1
 40
1
 10
57.319130
 20
179.608717
 30
0.0
 10
53.408019
 20
179.608717
 30
0.0
 10
53.319130
 20
179.662053
 30
0.0
 10
53.319130
 20
182.008717
 30
0.0
  0
LWPOLYLINE
  5
2d4
100
AcDbEntity
  8
0
 62
7
100
AcDbPolyline
 90
2
 70
0
 10
78.919130
 20
164.408717
 30
0.0
 10
78.919130
 20
164.408717
 30
0.0
  0
SPLINE
  5
2d5
100
AcDbEntity
  8
0
 62
7
100
AcDbSpline
 70
8
 71
3
 72
8
 73
4
 74
0
 40
0
 40
0
 40
0
 40
0
 40
1
 40
1
 40
1
 40
1
 10
59.719130
 20
182.008717
 30
0.0
 10
59.719130
 20
182.448717
 30
0.0
 10
58.639130
 20
182.808717
 30
0.0
 10
57.319130
 20
182.808717
 30
0.0
  0
SPLINE
  5
2d6
100
AcDbEntity
  8
0
 62
7
100
AcDbSpline
 70
8
 71
3
 72
8
 73
4
 74
0
 40
0
 40
0
 40
0
 40
0
 40
1
 40
1
 40
1
 40
1
 10
57.319130
 20
182.808717
 30
0.0
 10
55.999130
 20
182.808717
 30
0.0
 10
54.919130
 20
182.448717
 30
0.0
 10
54.919130
 20
182.008717
 30
0.0
  0
SPLINE
  5
2d7
100
AcDbEntity
  8
0
 62
7
100
AcDbSpline
 70
8
 71
3
 72
8
 73
4
 74
0
 40
0
 40
0
 40
0
 40
0
 40
1
 40
1
 40
1
 40
1
 10
54.919130
 20
182.008717
 30
0.0
 10
54.919130
 20
181.568717
 30
0.0
 10
55.999130
 20
181.208717
 30
0.0
 10
57.319130
 20
181.208717
 30
0.0
  0
SPLINE
  5
2d8
100
AcDbEntity
  8
0
 62
7
100
AcDbSpline
 70
8
 71
3
 72
8
 73
4
 74
0
 40
0
 40
0
 40
0
 40
0
 40
1
 40
1
 40
1
 40
1
 10
57.319130
 20
181.208717
 30
0.0
 10
58.639130
 20
181.208717
 30
0.0
 10
59.719130
 20
181.568717
 30
0.0
 10
59.719130
 20
182.008717
 30
0.0
  0
LWPOLYLINE
  5
2d9
100
AcDbEntity
  8
0
 62
7
100
AcDbPolyline
 90
2
 70
0
 10
53.319130
 20
182.008717
 30
0.0
 10
53.319130
 20
182.008717
 30
0.0
  0
SPLINE
  5
2da
100
AcDbEntity
  8
0
 62
7
100
AcDbSpline
 70
8
 71
3
 72
8
 73
4
 74
0
 40
0
 40
0
 40
0
 40
0
 40
1
 40
1
 40
1
 40
1
 10
238.919128
 20
136.408720
 30
0.0
 10
238.919128
 20
137.475384
 30
0.0
 10
238.385792
 20
138.008720
 30
0.0
 10
237.319128
 20
138.008720
 30
0.0
  0
SPLINE
  5
2db
100
AcDbEntity
  8
0
 62
7
100
AcDbSpline
 70
8
 71
3
 72
8
 73
4
 74
0
 40
0
 40
0
 40
0
 40
0
 40
1
 40
1
 40
1
 40
1
 10
237.319128
 20
138.008720
 30
0.0
 10
236.074680
 20
138.008720
 30
0.0
 10
235.719128
 20
138.542056
 30
0.0
 10
235.719128
 20
140.408720
 30
0.0
  0
SPLINE
  5
2dc
100
AcDbEntity
  8
0
 62
7
100
AcDbSpline
 70
8
 71
3
 72
8
 73
4
 74
0
 40
0
 40
0
 40
0
 40
0
 40
1
 40
1
 40
1
 40
1
 10
235.719128
 20
140.408720
 30
0.0
 10
235.719128
 20
142.618240
 30
0.0
 10
235.941352
 20
142.808720
 30
0.0
 10
238.519128
 20
142.808720
 30
0.0
  0
SPLINE
  5
2dd
100
AcDbEntity
  8
0
 62
7
100
AcDbSpline
 70
8
 71
3
 72
8
 73
4
 74
0
 40
0
 40
0
 40
0
 40
0
 40
1
 40
1
 40
1
 40
1
 10
238.519128
 20
142.808720
 30
0.0
 10
240.059128
 20
142.808720
 30
0.0
 10
241.319128
 20
142.448720
 30
0.0
 10
241.319128
 20
142.008720
 30
0.0
  0
SPLINE
  5
2de
100
AcDbEntity
  8
0
 62
7
100
AcDbSpline
 70
8
 71
3
 72
8
 73
4
 74
0
 40
0
 40
0
 40
0
 40
0
 40
1
 40
1
 40
1
 40
1
 10
241.319128
 20
142.008720
 30
0.0
 10
241.319128
 20
141.568720
 30
0.0
 10
240.419128
 20
141.208720
 30
0.0
 10
239.319128
 20
141.208720
 30
0.0
  0
SPLINE
  5
2df
100
AcDbEntity
  8
0
 62
7
100
AcDbSpline
 70
8
 71
3
 72
8
 73
4
 74
0
 40
0
 40
0
 40
0
 40
0
 40
1
 40
1
 40
1
 40
1
 10
239.319128
 20
141.208720
 30
0.0
 10
238.219128
 20
141.208720
 30
0.0
 10
237.319128
 20
140.848720
 30
0.0
 10
237.319128
 20
140.408720
 30
0.0
  0
SPLINE
  5
2e0
100
AcDbEntity
  8
0
 62
7
100
AcDbSpline
 70
8
 71
3
 72
8
 73
4
 74
0
 40
0
 40
0
 40
0
 40
0
 40
1
 40
1
 40
1
 40
1
 10
237.319128
 20
140.408720
 30
0.0
 10
237.319128
 20
139.968720
 30
0.0
 10
238.039128
 20
139.608720
 30
0.0
 10
238.919128
 20
139.608720
 30
0.0
  0
SPLINE
  5
2e1
100
AcDbEntity
  8
0
 62
7
100
AcDbSpline
 70
8
 71
3
 72
8
 73
4
 74
0
 40
0
 40
0
 40
0
 40
0
 40
1
 40
1
 40
1
 40
1
 10
238.919128
 20
139.608720
 30
0.0
 10
239.799128
 20
139.608720
 30
0.0
 10
240.519128
 20
139.098160
 30
0.0
 10
240.519128
 20
138.474152
 30
0.0
  0
SPLINE
  5
2e2
100
AcDbEntity
  8
0
 62
7
100
AcDbSpline
 70
8
 71
3
 72
8
 73
4
 74
0
 40
0
 40
0
 40
0
 40
0
 40
1
 40
1
 40
1
 40
1
 10
240.519128
 20
138.474152
 30
0.0
 10
240.519128
 20
137.850136
 30
0.0
 10
240.737640
 20
136.770136
 30
0.0
 10
241.004720
 20
136.074152
 30
0.0
  0
SPLINE
  5
2e3
100
AcDbEntity
  8
0
 62
7
100
AcDbSpline
 70
8
 71
3
 72
8
 73
4
 74
0
 40
0
 40
0
 40
0
 40
0
 40
1
 40
1
 40
1
 40
1
 10
241.004720
 20
136.074152
 30
0.0
 10
241.323368
 20
135.243760
 30
0.0
 10
241.048320
 20
134.808720
 30
0.0
 10
240.204720
 20
134.808720
 30
0.0
  0
SPLINE
  5
2e4
100
AcDbEntity
  8
0
 62
7
100
AcDbSpline
 70
8
 71
3
 72
8
 73
4
 74
0
 40
0
 40
0
 40
0
 40
0
 40
1
 40
1
 40
1
 40
1
 10
240.204720
 20
134.808720
 30
0.0
 10
239.452464
 20
134.808720
 30
0.0
 10
238.919128
 20
135.472488
 30
0.0
 10
238.919128
 20
136.408720
 30
0.0
  0
LWPOLYLINE
  5
2e5
100
AcDbEntity
  8
0
 62
7
100
AcDbPolyline
 90
2
 70
0
 10
59.719130
 20
182.008717
 30
0.0
 10
59.719130
 20
182.008717
 30
0.0
  0
LWPOLYLINE
  5
2e6
100
AcDbEntity
  8
0
 62
7
100
AcDbPolyline
 90
2
 70
0
 10
238.919128
 20
136.408720
 30
0.0
 10
238.919128
 20
136.408720
 30
0.0
  0
ENDSEC
  0
SECTION
  2
OBJECTS
  0
DICTIONARY
  5
C
330
0
100
AcDbDictionary
  3
ACAD_GROUP
350
D
  3
ACAD_MLINESTYLE
350
17
  0
DICTIONARY
  5
D
330
C
100
AcDbDictionary
  0
DICTIONARY
  5
1A
330
C
100
AcDbDictionary
  0
DICTIONARY
  5
17
330
C
100
AcDbDictionary
  3
STANDARD
350
18
  0
DICTIONARY
  5
19
330
C
100
AcDbDictionary
  0
ENDSEC
  0
EOF
