  0
SECTION
  2
HEADER
  9
$ACADVER
  1
AC1012
  9
$DWGCODEPAGE
  3
gb2312
  9
$INSBASE
 10
0.0
 20
0.0
 30
0.0
  9
$EXTMIN
 10
1.000000000000000E+20
 20
1.000000000000000E+20
 30
1.000000000000000E+20
  9
$EXTMAX
 10
-1.000000000000000E+20
 20
-1.000000000000000E+20
 30
-1.000000000000000E+20
  9
$LIMMIN
 10
0.0
 20
0.0
  9
$LIMMAX
 10
420.0
 20
297.0
  9
$ORTHOMODE
 70
     0
  9
$REGENMODE
 70
     1
  9
$FILLMODE
 70
     1
  9
$QTEXTMODE
 70
     0
  9
$MIRRTEXT
 70
     1
  9
$DRAGMODE
 70
     2
  9
$LTSCALE
 40
1.0
  9
$OSMODE
 70
    37
  9
$ATTMODE
 70
     1
  9
$TEXTSIZE
 40
2.5
  9
$TRACEWID
 40
1.0
  9
$TEXTSTYLE
  7
STANDARD
  9
$CLAYER
  8
0
  9
$CELTYPE
  6
BYLAYER
  9
$CECOLOR
 62
   256
  9
$CELTSCALE
 40
1.0
  9
$DELOBJ
 70
     1
  9
$DISPSILH
 70
     0
  9
$DIMSCALE
 40
1.0
  9
$DIMASZ
 40
2.5
  9
$DIMEXO
 40
0.625
  9
$DIMDLI
 40
3.75
  9
$DIMRND
 40
0.0
  9
$DIMDLE
 40
0.0
  9
$DIMEXE
 40
1.25
  9
$DIMTP
 40
0.0
  9
$DIMTM
 40
0.0
  9
$DIMTXT
 40
2.5
  9
$DIMCEN
 40
2.5
  9
$DIMTSZ
 40
0.0
  9
$DIMTOL
 70
     0
  9
$DIMLIM
 70
     0
  9
$DIMTIH
 70
     0
  9
$DIMTOH
 70
     0
  9
$DIMSE1
 70
     0
  9
$DIMSE2
 70
     0
  9
$DIMTAD
 70
     1
  9
$DIMZIN
 70
     8
  9
$DIMBLK
  1

  9
$DIMASO
 70
     1
  9
$DIMSHO
 70
     1
  9
$DIMPOST
  1

  9
$DIMAPOST
  1

  9
$DIMALT
 70
     0
  9
$DIMALTD
 70
     3
  9
$DIMALTF
 40
0.03937007874016
  9
$DIMLFAC
 40
1.0
  9
$DIMTOFL
 70
     1
  9
$DIMTVP
 40
0.0
  9
$DIMTIX
 70
     0
  9
$DIMSOXD
 70
     0
  9
$DIMSAH
 70
     0
  9
$DIMBLK1
  1

  9
$DIMBLK2
  1

  9
$DIMSTYLE
  2
ISO-25
  9
$DIMCLRD
 70
     0
  9
$DIMCLRE
 70
     0
  9
$DIMCLRT
 70
     0
  9
$DIMTFAC
 40
1.0
  9
$DIMGAP
 40
0.625
  9
$DIMJUST
 70
     0
  9
$DIMSD1
 70
     0
  9
$DIMSD2
 70
     0
  9
$DIMTOLJ
 70
     0
  9
$DIMTZIN
 70
     8
  9
$DIMALTZ
 70
     0
  9
$DIMALTTZ
 70
     0
  9
$DIMFIT
 70
     3
  9
$DIMUPT
 70
     0
  9
$DIMUNIT
 70
     2
  9
$DIMDEC
 70
     2
  9
$DIMTDEC
 70
     2
  9
$DIMALTU
 70
     2
  9
$DIMALTTD
 70
     3
  9
$DIMTXSTY
  7
STANDARD
  9
$DIMAUNIT
 70
     0
  9
$LUNITS
 70
     2
  9
$LUPREC
 70
     4
  9
$SKETCHINC
 40
1.0
  9
$FILLETRAD
 40
10.0
  9
$AUNITS
 70
     0
  9
$AUPREC
 70
     0
  9
$MENU
  1
.
  9
$ELEVATION
 40
0.0
  9
$PELEVATION
 40
0.0
  9
$THICKNESS
 40
0.0
  9
$LIMCHECK
 70
     0
  9
$BLIPMODE
 70
     0
  9
$CHAMFERA
 40
10.0
  9
$CHAMFERB
 40
10.0
  9
$CHAMFERC
 40
20.0
  9
$CHAMFERD
 40
0.0
  9
$SKPOLY
 70
     0
  9
$TDCREATE
 40
2453935.933843252
  9
$TDUPDATE
 40
2453935.934398680
  9
$TDINDWG
 40
0.0005563542
  9
$TDUSRTIMER
 40
0.0005562384
  9
$USRTIMER
 70
     1
  9
$ANGBASE
 50
0.0
  9
$ANGDIR
 70
     0
  9
$PDMODE
 70
     0
  9
$PDSIZE
 40
0.0
  9
$PLINEWID
 40
0.0
  9
$COORDS
 70
     1
  9
$SPLFRAME
 70
     0
  9
$SPLINETYPE
 70
     6
  9
$SPLINESEGS
 70
     8
  9
$ATTDIA
 70
     0
  9
$ATTREQ
 70
     1
  9
$HANDLING
 70
 22529
  9
$HANDSEED
  5
4A
  9
$SURFTAB1
 70
     6
  9
$SURFTAB2
 70
     6
  9
$SURFTYPE
 70
     6
  9
$SURFU
 70
     6
  9
$SURFV
 70
     6
  9
$UCSNAME
  2

  9
$UCSORG
 10
0.0
 20
0.0
 30
0.0
  9
$UCSXDIR
 10
1.0
 20
0.0
 30
0.0
  9
$UCSYDIR
 10
0.0
 20
1.0
 30
0.0
  9
$PUCSNAME
  2

  9
$PUCSORG
 10
0.0
 20
0.0
 30
0.0
  9
$PUCSXDIR
 10
1.0
 20
0.0
 30
0.0
  9
$PUCSYDIR
 10
0.0
 20
1.0
 30
0.0
  9
$USERI1
 70
     0
  9
$USERI2
 70
     0
  9
$USERI3
 70
     0
  9
$USERI4
 70
     0
  9
$USERI5
 70
     0
  9
$USERR1
 40
0.0
  9
$USERR2
 40
0.0
  9
$USERR3
 40
0.0
  9
$USERR4
 40
0.0
  9
$USERR5
 40
0.0
  9
$WORLDVIEW
 70
     1
  9
$SHADEDGE
 70
     3
  9
$SHADEDIF
 70
    70
  9
$TILEMODE
 70
     1
  9
$MAXACTVP
 70
    64
  9
$PINSBASE
 10
0.0
 20
0.0
 30
0.0
  9
$PLIMCHECK
 70
     0
  9
$PEXTMIN
 10
1.000000000000000E+20
 20
1.000000000000000E+20
 30
1.000000000000000E+20
  9
$PEXTMAX
 10
-1.000000000000000E+20
 20
-1.000000000000000E+20
 30
-1.000000000000000E+20
  9
$PLIMMIN
 10
0.0
 20
0.0
  9
$PLIMMAX
 10
420.0
 20
297.0
  9
$UNITMODE
 70
     0
  9
$VISRETAIN
 70
     1
  9
$PLINEGEN
 70
     0
  9
$PSLTSCALE
 70
     1
  9
$TREEDEPTH
 70
  3020
  9
$PICKSTYLE
 70
     1
  9
$CMLSTYLE
  2
STANDARD
  9
$CMLJUST
 70
     0
  9
$CMLSCALE
 40
20.0
  9
$SAVEIMAGES
 70
     1
  0
ENDSEC
  0
SECTION
  2
CLASSES
  0
CLASS
  1
ACDBDICTIONARYWDFLT
  2
AcDbDictionaryWithDefault
  3
AutoCAD 2000
 90
    32768
280
     0
281
     0
  0
CLASS
  1
ACDBPLACEHOLDER
  2
AcDbPlaceHolder
  3
AutoCAD 2000
 90
    32768
280
     0
281
     0
  0
CLASS
  1
LAYOUT
  2
AcDbLayout
  3
AutoCAD 2000
 90
    32768
280
     0
281
     0
  0
CLASS
  1
DICTIONARYVAR
  2
AcDbDictionaryVar
  3
AutoCAD 2000
 90
    32768
280
     0
281
     0
  0
CLASS
  1
LONG_TRANSACTION
  2
AcDbLongTransaction
  3
AutoCAD 2000
 90
    32768
280
     0
281
     0
  0
CLASS
  1
LWPOLYLINE
  2
AcDbPolyline
  3
AutoCAD 2000
 90
    32768
280
     0
281
     1
  0
CLASS
  1
HATCH
  2
AcDbHatch
  3
AutoCAD 2000
 90
    32768
280
     0
281
     1
  0
CLASS
  1
XRECORD
  2
AcDbXrecord
  3
AutoCAD 2000
 90
    32768
280
     0
281
     0
  0
ENDSEC
  0
SECTION
  2
TABLES
  0
TABLE
  2
VPORT
  5
8
330
0
100
AcDbSymbolTable
 70
     2
  0
VPORT
  5
43
330
8
100
AcDbSymbolTableRecord
100
AcDbViewportTableRecord
  2
*ACTIVE
 70
     0
 10
0.0
 20
0.0
 11
1.0
 21
1.0
 12
505.3812210517317
 22
257.5500453436709
 13
0.0
 23
0.0
 14
10.0
 24
10.0
 15
10.0
 25
10.0
 16
0.0
 26
0.0
 36
1.0
 17
0.0
 27
0.0
 37
0.0
 40
515.1000906873419
 41
1.962264150943396
 42
50.0
 43
0.0
 44
0.0
 50
0.0
 51
0.0
 71
     0
 72
   100
 73
     1
 74
     3
 75
     0
 76
     0
 77
     0
 78
     0
  0
ENDTAB
  0
TABLE
  2
LTYPE
  5
5
330
0
100
AcDbSymbolTable
 70
     1
  0
LTYPE
  5
14
330
5
100
AcDbSymbolTableRecord
100
AcDbLinetypeTableRecord
  2
BYBLOCK
 70
     0
  3

 72
    65
 73
     0
 40
0.0
  0
LTYPE
  5
15
330
5
100
AcDbSymbolTableRecord
100
AcDbLinetypeTableRecord
  2
BYLAYER
 70
     0
  3

 72
    65
 73
     0
 40
0.0
  0
LTYPE
  5
16
330
5
100
AcDbSymbolTableRecord
100
AcDbLinetypeTableRecord
  2
CONTINUOUS
 70
     0
  3
Solid line
 72
    65
 73
     0
 40
0.0
  0
ENDTAB
  0
TABLE
  2
LAYER
  5
2
330
0
100
AcDbSymbolTable
 70
     1
  0
LAYER
  5
10
330
2
100
AcDbSymbolTableRecord
100
AcDbLayerTableRecord
  2
0
 70
     0
 62
     7
  6
CONTINUOUS
  0
ENDTAB
  0
TABLE
  2
STYLE
  5
3
330
0
100
AcDbSymbolTable
 70
     1
  0
STYLE
  5
11
330
3
100
AcDbSymbolTableRecord
100
AcDbTextStyleTableRecord
  2
STANDARD
 70
     0
 40
0.0
 41
1.0
 50
0.0
 71
     0
 42
2.5
  3
txt
  4

  0
ENDTAB
  0
TABLE
  2
VIEW
  5
6
330
0
100
AcDbSymbolTable
 70
     0
  0
ENDTAB
  0
TABLE
  2
UCS
  5
7
330
0
100
AcDbSymbolTable
 70
     0
  0
ENDTAB
  0
TABLE
  2
APPID
  5
9
330
0
100
AcDbSymbolTable
 70
     1
  0
APPID
  5
12
330
9
100
AcDbSymbolTableRecord
100
AcDbRegAppTableRecord
  2
ACAD
 70
     0
  0
ENDTAB
  0
TABLE
  2
DIMSTYLE
  5
A
330
0
100
AcDbSymbolTable
 70
     1
  0
DIMSTYLE
105
27
330
A
100
AcDbSymbolTableRecord
100
AcDbDimStyleTableRecord
  2
ISO-25
 70
     0
  3

  4

  5

  6

  7

 40
1.0
 41
2.5
 42
0.625
 43
3.75
 44
1.25
 45
0.0
 46
0.0
 47
0.0
 48
0.0
140
2.5
141
2.5
142
0.0
143
0.03937007874016
144
1.0
145
0.0
146
1.0
147
0.625
 71
     0
 72
     0
 73
     0
 74
     0
 75
     0
 76
     0
 77
     1
 78
     8
170
     0
171
     3
172
     1
173
     0
174
     0
175
     0
176
     0
177
     0
178
     0
270
     2
271
     2
272
     2
273
     2
274
     3
340
11
275
     0
280
     0
281
     0
282
     0
283
     0
284
     8
285
     0
286
     0
287
     3
288
     0
  0
ENDTAB
  0
TABLE
  2
BLOCK_RECORD
  5
1
330
0
100
AcDbSymbolTable
 70
     1
  0
BLOCK_RECORD
  5
1F
102
{ACAD_XDICTIONARY
360
46
102
}
330
1
100
AcDbSymbolTableRecord
100
AcDbBlockTableRecord
  2
*MODEL_SPACE
  0
BLOCK_RECORD
  5
1B
102
{ACAD_XDICTIONARY
360
44
102
}
330
1
100
AcDbSymbolTableRecord
100
AcDbBlockTableRecord
  2
*PAPER_SPACE
  0
ENDTAB
  0
ENDSEC
  0
SECTION
  2
BLOCKS
  0
BLOCK
  5
20
330
1F
100
AcDbEntity
  8
0
100
AcDbBlockBegin
  2
*MODEL_SPACE
 70
     0
 10
0.0
 20
0.0
 30
0.0
  3
*MODEL_SPACE
  1

  0
ENDBLK
  5
21
330
1F
100
AcDbEntity
  8
0
100
AcDbBlockEnd
  0
BLOCK
  5
1C
330
1B
100
AcDbEntity
 67
     1
  8
0
100
AcDbBlockBegin
  2
*PAPER_SPACE
 70
     0
 10
0.0
 20
0.0
 30
0.0
  3
*PAPER_SPACE
  1

  0
ENDBLK
  5
1D
330
1B
100
AcDbEntity
 67
     1
  8
0
100
AcDbBlockEnd
  0
ENDSEC
  0
SECTION
  2
ENTITIES
  0
LINE
  5
100
330
1F
100
AcDbEntity
  8
0
  62
7
100
AcDbLine
 10
773.806809
 20
411.513081
 30
0.000000
 11
773.929870
 21
376.043829
 31
0.000000
  0
LINE
  5
101
330
1F
100
AcDbEntity
  8
0
  62
7
100
AcDbLine
 10
773.929870
 20
376.043829
 30
0.000000
 11
573.929776
 21
376.043829
 31
0.000000
  0
LINE
  5
102
330
1F
100
AcDbEntity
  8
0
  62
7
100
AcDbLine
 10
573.929776
 20
376.043829
 30
0.000000
 11
573.929776
 21
576.043837
 31
0.000000
  0
LINE
  5
103
330
1F
100
AcDbEntity
  8
0
  62
7
100
AcDbLine
 10
573.929776
 20
576.043837
 30
0.000000
 11
681.310887
 21
576.043837
 31
0.000000
  0
LINE
  5
104
330
1F
100
AcDbEntity
  8
0
  62
7
100
AcDbLine
 10
681.310887
 20
576.043837
 30
0.000000
 11
692.189116
 21
458.300287
 31
0.000000
  0
SPLINE
  5
105
330
1F
100
AcDbEntity
  8
0
 62
     7
100
AcDbSpline
210
0.000000
220
0.000000
230
1.0
 70
     8
 71
     3
 72
     8
 73
     4
 42
0.0000000001
 43
0.0000000001
 44
0.0000000001
 12
0.000000
 22
0.000000
 32
0.000000
 13
0.000000
 23
0.000000
 33
0.000000
 40
0.000000
 40
0.000000
 40
0.000000
 40
0.000000
 40
1.000000
 40
1.000000
 40
1.000000
 40
1.000000
 10
692.189116
 20
458.300287
 30
0.000000
 10
692.311006
 20
458.000786
 30
0.000000
 10
692.436360
 20
457.702594
 30
0.000000
 10
692.550373
 20
457.400139
 30
0.000000
  0
SPLINE
  5
106
330
1F
100
AcDbEntity
  8
0
 62
     7
100
AcDbSpline
210
0.000000
220
0.000000
230
1.0
 70
     8
 71
     3
 72
     8
 73
     4
 42
0.0000000001
 43
0.0000000001
 44
0.0000000001
 12
0.000000
 22
0.000000
 32
0.000000
 13
0.000000
 23
0.000000
 33
0.000000
 40
0.000000
 40
0.000000
 40
0.000000
 40
0.000000
 40
1.000000
 40
1.000000
 40
1.000000
 40
1.000000
 10
692.550373
 20
457.400139
 30
0.000000
 10
692.648074
 20
457.140957
 30
0.000000
 10
692.737447
 20
456.878644
 30
0.000000
 10
692.818827
 20
456.613919
 30
0.000000
  0
SPLINE
  5
107
330
1F
100
AcDbEntity
  8
0
 62
     7
100
AcDbSpline
210
0.000000
220
0.000000
230
1.0
 70
     8
 71
     3
 72
     8
 73
     4
 42
0.0000000001
 43
0.0000000001
 44
0.0000000001
 12
0.000000
 22
0.000000
 32
0.000000
 13
0.000000
 23
0.000000
 33
0.000000
 40
0.000000
 40
0.000000
 40
0.000000
 40
0.000000
 40
1.000000
 40
1.000000
 40
1.000000
 40
1.000000
 10
692.818827
 20
456.613919
 30
0.000000
 10
692.919804
 20
456.285443
 30
0.000000
 10
693.008476
 20
455.953253
 30
0.000000
 10
693.084104
 20
455.618317
 30
0.000000
  0
SPLINE
  5
108
330
1F
100
AcDbEntity
  8
0
 62
     7
100
AcDbSpline
210
0.000000
220
0.000000
230
1.0
 70
     8
 71
     3
 72
     8
 73
     4
 42
0.0000000001
 43
0.0000000001
 44
0.0000000001
 12
0.000000
 22
0.000000
 32
0.000000
 13
0.000000
 23
0.000000
 33
0.000000
 40
0.000000
 40
0.000000
 40
0.000000
 40
0.000000
 40
1.000000
 40
1.000000
 40
1.000000
 40
1.000000
 10
693.084104
 20
455.618317
 30
0.000000
 10
693.158294
 20
455.289755
 30
0.000000
 10
693.219931
 20
454.958550
 30
0.000000
 10
693.288775
 20
454.628872
 30
0.000000
  0
SPLINE
  5
109
330
1F
100
AcDbEntity
  8
0
 62
     7
100
AcDbSpline
210
0.000000
220
0.000000
230
1.0
 70
     8
 71
     3
 72
     8
 73
     4
 42
0.0000000001
 43
0.0000000001
 44
0.0000000001
 12
0.000000
 22
0.000000
 32
0.000000
 13
0.000000
 23
0.000000
 33
0.000000
 40
0.000000
 40
0.000000
 40
0.000000
 40
0.000000
 40
1.000000
 40
1.000000
 40
1.000000
 40
1.000000
 10
693.288775
 20
454.628872
 30
0.000000
 10
693.500264
 20
453.616101
 30
0.000000
 10
693.779761
 20
452.617741
 30
0.000000
 10
694.077111
 20
451.625737
 30
0.000000
  0
SPLINE
  5
110
330
1F
100
AcDbEntity
  8
0
 62
     7
100
AcDbSpline
210
0.000000
220
0.000000
230
1.0
 70
     8
 71
     3
 72
     8
 73
     4
 42
0.0000000001
 43
0.0000000001
 44
0.0000000001
 12
0.000000
 22
0.000000
 32
0.000000
 13
0.000000
 23
0.000000
 33
0.000000
 40
0.000000
 40
0.000000
 40
0.000000
 40
0.000000
 40
1.000000
 40
1.000000
 40
1.000000
 40
1.000000
 10
694.077111
 20
451.625737
 30
0.000000
 10
694.480475
 20
450.280054
 30
0.000000
 10
694.916695
 20
448.946068
 30
0.000000
 10
695.380904
 20
447.618924
 30
0.000000
  0
SPLINE
  5
111
330
1F
100
AcDbEntity
  8
0
 62
     7
100
AcDbSpline
210
0.000000
220
0.000000
230
1.0
 70
     8
 71
     3
 72
     8
 73
     4
 42
0.0000000001
 43
0.0000000001
 44
0.0000000001
 12
0.000000
 22
0.000000
 32
0.000000
 13
0.000000
 23
0.000000
 33
0.000000
 40
0.000000
 40
0.000000
 40
0.000000
 40
0.000000
 40
1.000000
 40
1.000000
 40
1.000000
 40
1.000000
 10
695.380904
 20
447.618924
 30
0.000000
 10
695.731432
 20
446.616786
 30
0.000000
 10
696.097920
 20
445.618549
 30
0.000000
 10
696.535092
 20
444.652311
 30
0.000000
  0
SPLINE
  5
112
330
1F
100
AcDbEntity
  8
0
 62
     7
100
AcDbSpline
210
0.000000
220
0.000000
230
1.0
 70
     8
 71
     3
 72
     8
 73
     4
 42
0.0000000001
 43
0.0000000001
 44
0.0000000001
 12
0.000000
 22
0.000000
 32
0.000000
 13
0.000000
 23
0.000000
 33
0.000000
 40
0.000000
 40
0.000000
 40
0.000000
 40
0.000000
 40
1.000000
 40
1.000000
 40
1.000000
 40
1.000000
 10
696.535092
 20
444.652311
 30
0.000000
 10
696.965459
 20
443.701116
 30
0.000000
 10
697.464327
 20
442.780931
 30
0.000000
 10
697.969212
 20
441.862443
 30
0.000000
  0
SPLINE
  5
113
330
1F
100
AcDbEntity
  8
0
 62
     7
100
AcDbSpline
210
0.000000
220
0.000000
230
1.0
 70
     8
 71
     3
 72
     8
 73
     4
 42
0.0000000001
 43
0.0000000001
 44
0.0000000001
 12
0.000000
 22
0.000000
 32
0.000000
 13
0.000000
 23
0.000000
 33
0.000000
 40
0.000000
 40
0.000000
 40
0.000000
 40
0.000000
 40
1.000000
 40
1.000000
 40
1.000000
 40
1.000000
 10
697.969212
 20
441.862443
 30
0.000000
 10
698.331029
 20
441.204224
 30
0.000000
 10
698.695936
 20
440.546876
 30
0.000000
 10
699.139916
 20
439.941191
 30
0.000000
  0
SPLINE
  5
114
330
1F
100
AcDbEntity
  8
0
 62
     7
100
AcDbSpline
210
0.000000
220
0.000000
230
1.0
 70
     8
 71
     3
 72
     8
 73
     4
 42
0.0000000001
 43
0.0000000001
 44
0.0000000001
 12
0.000000
 22
0.000000
 32
0.000000
 13
0.000000
 23
0.000000
 33
0.000000
 40
0.000000
 40
0.000000
 40
0.000000
 40
0.000000
 40
1.000000
 40
1.000000
 40
1.000000
 40
1.000000
 10
699.139916
 20
439.941191
 30
0.000000
 10
699.417766
 20
439.562144
 30
0.000000
 10
699.726584
 20
439.203330
 30
0.000000
 10
700.058365
 20
438.870239
 30
0.000000
  0
SPLINE
  5
115
330
1F
100
AcDbEntity
  8
0
 62
     7
100
AcDbSpline
210
0.000000
220
0.000000
230
1.0
 70
     8
 71
     3
 72
     8
 73
     4
 42
0.0000000001
 43
0.0000000001
 44
0.0000000001
 12
0.000000
 22
0.000000
 32
0.000000
 13
0.000000
 23
0.000000
 33
0.000000
 40
0.000000
 40
0.000000
 40
0.000000
 40
0.000000
 40
1.000000
 40
1.000000
 40
1.000000
 40
1.000000
 10
700.058365
 20
438.870239
 30
0.000000
 10
700.209715
 20
438.718292
 30
0.000000
 10
700.365843
 20
438.571697
 30
0.000000
 10
700.505876
 20
438.406997
 30
0.000000
  0
SPLINE
  5
116
330
1F
100
AcDbEntity
  8
0
 62
     7
100
AcDbSpline
210
0.000000
220
0.000000
230
1.0
 70
     8
 71
     3
 72
     8
 73
     4
 42
0.0000000001
 43
0.0000000001
 44
0.0000000001
 12
0.000000
 22
0.000000
 32
0.000000
 13
0.000000
 23
0.000000
 33
0.000000
 40
0.000000
 40
0.000000
 40
0.000000
 40
0.000000
 40
1.000000
 40
1.000000
 40
1.000000
 40
1.000000
 10
700.505876
 20
438.406997
 30
0.000000
 10
700.637973
 20
438.251631
 30
0.000000
 10
700.755747
 20
438.080153
 30
0.000000
 10
700.825056
 20
437.891938
 30
0.000000
  0
SPLINE
  5
117
330
1F
100
AcDbEntity
  8
0
 62
     7
100
AcDbSpline
210
0.000000
220
0.000000
230
1.0
 70
     8
 71
     3
 72
     8
 73
     4
 42
0.0000000001
 43
0.0000000001
 44
0.0000000001
 12
0.000000
 22
0.000000
 32
0.000000
 13
0.000000
 23
0.000000
 33
0.000000
 40
0.000000
 40
0.000000
 40
0.000000
 40
0.000000
 40
1.000000
 40
1.000000
 40
1.000000
 40
1.000000
 10
700.825056
 20
437.891938
 30
0.000000
 10
700.879123
 20
437.745116
 30
0.000000
 10
700.903697
 20
437.588108
 30
0.000000
 10
700.946805
 20
437.436569
 30
0.000000
  0
SPLINE
  5
118
330
1F
100
AcDbEntity
  8
0
 62
     7
100
AcDbSpline
210
0.000000
220
0.000000
230
1.0
 70
     8
 71
     3
 72
     8
 73
     4
 42
0.0000000001
 43
0.0000000001
 44
0.0000000001
 12
0.000000
 22
0.000000
 32
0.000000
 13
0.000000
 23
0.000000
 33
0.000000
 40
0.000000
 40
0.000000
 40
0.000000
 40
0.000000
 40
1.000000
 40
1.000000
 40
1.000000
 40
1.000000
 10
700.946805
 20
437.436569
 30
0.000000
 10
701.005063
 20
437.231774
 30
0.000000
 10
701.097169
 20
437.036966
 30
0.000000
 10
701.207984
 20
436.854623
 30
0.000000
  0
SPLINE
  5
119
330
1F
100
AcDbEntity
  8
0
 62
     7
100
AcDbSpline
210
0.000000
220
0.000000
230
1.0
 70
     8
 71
     3
 72
     8
 73
     4
 42
0.0000000001
 43
0.0000000001
 44
0.0000000001
 12
0.000000
 22
0.000000
 32
0.000000
 13
0.000000
 23
0.000000
 33
0.000000
 40
0.000000
 40
0.000000
 40
0.000000
 40
0.000000
 40
1.000000
 40
1.000000
 40
1.000000
 40
1.000000
 10
701.207984
 20
436.854623
 30
0.000000
 10
701.396614
 20
436.544236
 30
0.000000
 10
701.639452
 20
436.269965
 30
0.000000
 10
701.892697
 20
436.007727
 30
0.000000
  0
SPLINE
  5
120
330
1F
100
AcDbEntity
  8
0
 62
     7
100
AcDbSpline
210
0.000000
220
0.000000
230
1.0
 70
     8
 71
     3
 72
     8
 73
     4
 42
0.0000000001
 43
0.0000000001
 44
0.0000000001
 12
0.000000
 22
0.000000
 32
0.000000
 13
0.000000
 23
0.000000
 33
0.000000
 40
0.000000
 40
0.000000
 40
0.000000
 40
0.000000
 40
1.000000
 40
1.000000
 40
1.000000
 40
1.000000
 10
701.892697
 20
436.007727
 30
0.000000
 10
702.202761
 20
435.686654
 30
0.000000
 10
702.528426
 20
435.383622
 30
0.000000
 10
702.852710
 20
435.079229
 30
0.000000
  0
SPLINE
  5
121
330
1F
100
AcDbEntity
  8
0
 62
     7
100
AcDbSpline
210
0.000000
220
0.000000
230
1.0
 70
     8
 71
     3
 72
     8
 73
     4
 42
0.0000000001
 43
0.0000000001
 44
0.0000000001
 12
0.000000
 22
0.000000
 32
0.000000
 13
0.000000
 23
0.000000
 33
0.000000
 40
0.000000
 40
0.000000
 40
0.000000
 40
0.000000
 40
1.000000
 40
1.000000
 40
1.000000
 40
1.000000
 10
702.852710
 20
435.079229
 30
0.000000
 10
703.195140
 20
434.757803
 30
0.000000
 10
703.536029
 20
434.434860
 30
0.000000
 10
703.861988
 20
434.094309
 30
0.000000
  0
SPLINE
  5
122
330
1F
100
AcDbEntity
  8
0
 62
     7
100
AcDbSpline
210
0.000000
220
0.000000
230
1.0
 70
     8
 71
     3
 72
     8
 73
     4
 42
0.0000000001
 43
0.0000000001
 44
0.0000000001
 12
0.000000
 22
0.000000
 32
0.000000
 13
0.000000
 23
0.000000
 33
0.000000
 40
0.000000
 40
0.000000
 40
0.000000
 40
0.000000
 40
1.000000
 40
1.000000
 40
1.000000
 40
1.000000
 10
703.861988
 20
434.094309
 30
0.000000
 10
704.159521
 20
433.783457
 30
0.000000
 10
704.444614
 20
433.457933
 30
0.000000
 10
704.675872
 20
433.099493
 30
0.000000
  0
SPLINE
  5
123
330
1F
100
AcDbEntity
  8
0
 62
     7
100
AcDbSpline
210
0.000000
220
0.000000
230
1.0
 70
     8
 71
     3
 72
     8
 73
     4
 42
0.0000000001
 43
0.0000000001
 44
0.0000000001
 12
0.000000
 22
0.000000
 32
0.000000
 13
0.000000
 23
0.000000
 33
0.000000
 40
0.000000
 40
0.000000
 40
0.000000
 40
0.000000
 40
1.000000
 40
1.000000
 40
1.000000
 40
1.000000
 10
704.675872
 20
433.099493
 30
0.000000
 10
704.839015
 20
432.846626
 30
0.000000
 10
704.975366
 20
432.577378
 30
0.000000
 10
705.118158
 20
432.310158
 30
0.000000
  0
SPLINE
  5
124
330
1F
100
AcDbEntity
  8
0
 62
     7
100
AcDbSpline
210
0.000000
220
0.000000
230
1.0
 70
     8
 71
     3
 72
     8
 73
     4
 42
0.0000000001
 43
0.0000000001
 44
0.0000000001
 12
0.000000
 22
0.000000
 32
0.000000
 13
0.000000
 23
0.000000
 33
0.000000
 40
0.000000
 40
0.000000
 40
0.000000
 40
0.000000
 40
1.000000
 40
1.000000
 40
1.000000
 40
1.000000
 10
705.118158
 20
432.310158
 30
0.000000
 10
705.240183
 20
432.081799
 30
0.000000
 10
705.366913
 20
431.854921
 30
0.000000
 10
705.527622
 20
431.653762
 30
0.000000
  0
SPLINE
  5
125
330
1F
100
AcDbEntity
  8
0
 62
     7
100
AcDbSpline
210
0.000000
220
0.000000
230
1.0
 70
     8
 71
     3
 72
     8
 73
     4
 42
0.0000000001
 43
0.0000000001
 44
0.0000000001
 12
0.000000
 22
0.000000
 32
0.000000
 13
0.000000
 23
0.000000
 33
0.000000
 40
0.000000
 40
0.000000
 40
0.000000
 40
0.000000
 40
1.000000
 40
1.000000
 40
1.000000
 40
1.000000
 10
705.527622
 20
431.653762
 30
0.000000
 10
705.729072
 20
431.401607
 30
0.000000
 10
705.983914
 20
431.189863
 30
0.000000
 10
706.255464
 20
431.007475
 30
0.000000
  0
SPLINE
  5
126
330
1F
100
AcDbEntity
  8
0
 62
     7
100
AcDbSpline
210
0.000000
220
0.000000
230
1.0
 70
     8
 71
     3
 72
     8
 73
     4
 42
0.0000000001
 43
0.0000000001
 44
0.0000000001
 12
0.000000
 22
0.000000
 32
0.000000
 13
0.000000
 23
0.000000
 33
0.000000
 40
0.000000
 40
0.000000
 40
0.000000
 40
0.000000
 40
1.000000
 40
1.000000
 40
1.000000
 40
1.000000
 10
706.255464
 20
431.007475
 30
0.000000
 10
706.538644
 20
430.817274
 30
0.000000
 10
706.839994
 20
430.658997
 30
0.000000
 10
707.144108
 20
430.511216
 30
0.000000
  0
SPLINE
  5
127
330
1F
100
AcDbEntity
  8
0
 62
     7
100
AcDbSpline
210
0.000000
220
0.000000
230
1.0
 70
     8
 71
     3
 72
     8
 73
     4
 42
0.0000000001
 43
0.0000000001
 44
0.0000000001
 12
0.000000
 22
0.000000
 32
0.000000
 13
0.000000
 23
0.000000
 33
0.000000
 40
0.000000
 40
0.000000
 40
0.000000
 40
0.000000
 40
1.000000
 40
1.000000
 40
1.000000
 40
1.000000
 10
707.144108
 20
430.511216
 30
0.000000
 10
707.422033
 20
430.376162
 30
0.000000
 10
707.702267
 20
430.249873
 30
0.000000
 10
707.983480
 20
430.108905
 30
0.000000
  0
SPLINE
  5
128
330
1F
100
AcDbEntity
  8
0
 62
     7
100
AcDbSpline
210
0.000000
220
0.000000
230
1.0
 70
     8
 71
     3
 72
     8
 73
     4
 42
0.0000000001
 43
0.0000000001
 44
0.0000000001
 12
0.000000
 22
0.000000
 32
0.000000
 13
0.000000
 23
0.000000
 33
0.000000
 40
0.000000
 40
0.000000
 40
0.000000
 40
0.000000
 40
1.000000
 40
1.000000
 40
1.000000
 40
1.000000
 10
707.983480
 20
430.108905
 30
0.000000
 10
708.201360
 20
429.999685
 30
0.000000
 10
708.419829
 20
429.881654
 30
0.000000
 10
708.582151
 20
429.708916
 30
0.000000
  0
SPLINE
  5
129
330
1F
100
AcDbEntity
  8
0
 62
     7
100
AcDbSpline
210
0.000000
220
0.000000
230
1.0
 70
     8
 71
     3
 72
     8
 73
     4
 42
0.0000000001
 43
0.0000000001
 44
0.0000000001
 12
0.000000
 22
0.000000
 32
0.000000
 13
0.000000
 23
0.000000
 33
0.000000
 40
0.000000
 40
0.000000
 40
0.000000
 40
0.000000
 40
1.000000
 40
1.000000
 40
1.000000
 40
1.000000
 10
708.582151
 20
429.708916
 30
0.000000
 10
708.669546
 20
429.615914
 30
0.000000
 10
708.740665
 20
429.507053
 30
0.000000
 10
708.810510
 20
429.397849
 30
0.000000
  0
SPLINE
  5
130
330
1F
100
AcDbEntity
  8
0
 62
     7
100
AcDbSpline
210
0.000000
220
0.000000
230
1.0
 70
     8
 71
     3
 72
     8
 73
     4
 42
0.0000000001
 43
0.0000000001
 44
0.0000000001
 12
0.000000
 22
0.000000
 32
0.000000
 13
0.000000
 23
0.000000
 33
0.000000
 40
0.000000
 40
0.000000
 40
0.000000
 40
0.000000
 40
1.000000
 40
1.000000
 40
1.000000
 40
1.000000
 10
708.810510
 20
429.397849
 30
0.000000
 10
708.891322
 20
429.271498
 30
0.000000
 10
708.970428
 20
429.144687
 30
0.000000
 10
709.065617
 20
429.031592
 30
0.000000
  0
SPLINE
  5
131
330
1F
100
AcDbEntity
  8
0
 62
     7
100
AcDbSpline
210
0.000000
220
0.000000
230
1.0
 70
     8
 71
     3
 72
     8
 73
     4
 42
0.0000000001
 43
0.0000000001
 44
0.0000000001
 12
0.000000
 22
0.000000
 32
0.000000
 13
0.000000
 23
0.000000
 33
0.000000
 40
0.000000
 40
0.000000
 40
0.000000
 40
0.000000
 40
1.000000
 40
1.000000
 40
1.000000
 40
1.000000
 10
709.065617
 20
429.031592
 30
0.000000
 10
709.248888
 20
428.813846
 30
0.000000
 10
709.491778
 20
428.646947
 30
0.000000
 10
709.734406
 20
428.486928
 30
0.000000
  0
SPLINE
  5
132
330
1F
100
AcDbEntity
  8
0
 62
     7
100
AcDbSpline
210
0.000000
220
0.000000
230
1.0
 70
     8
 71
     3
 72
     8
 73
     4
 42
0.0000000001
 43
0.0000000001
 44
0.0000000001
 12
0.000000
 22
0.000000
 32
0.000000
 13
0.000000
 23
0.000000
 33
0.000000
 40
0.000000
 40
0.000000
 40
0.000000
 40
0.000000
 40
1.000000
 40
1.000000
 40
1.000000
 40
1.000000
 10
709.734406
 20
428.486928
 30
0.000000
 10
710.047900
 20
428.280172
 30
0.000000
 10
710.360956
 20
428.084902
 30
0.000000
 10
710.672091
 20
427.881773
 30
0.000000
  0
SPLINE
  5
133
330
1F
100
AcDbEntity
  8
0
 62
     7
100
AcDbSpline
210
0.000000
220
0.000000
230
1.0
 70
     8
 71
     3
 72
     8
 73
     4
 42
0.0000000001
 43
0.0000000001
 44
0.0000000001
 12
0.000000
 22
0.000000
 32
0.000000
 13
0.000000
 23
0.000000
 33
0.000000
 40
0.000000
 40
0.000000
 40
0.000000
 40
0.000000
 40
1.000000
 40
1.000000
 40
1.000000
 40
1.000000
 10
710.672091
 20
427.881773
 30
0.000000
 10
711.048698
 20
427.635901
 30
0.000000
 10
711.422491
 20
427.378514
 30
0.000000
 10
711.751883
 20
427.072077
 30
0.000000
  0
SPLINE
  5
134
330
1F
100
AcDbEntity
  8
0
 62
     7
100
AcDbSpline
210
0.000000
220
0.000000
230
1.0
 70
     8
 71
     3
 72
     8
 73
     4
 42
0.0000000001
 43
0.0000000001
 44
0.0000000001
 12
0.000000
 22
0.000000
 32
0.000000
 13
0.000000
 23
0.000000
 33
0.000000
 40
0.000000
 40
0.000000
 40
0.000000
 40
0.000000
 40
1.000000
 40
1.000000
 40
1.000000
 40
1.000000
 10
711.751883
 20
427.072077
 30
0.000000
 10
712.068299
 20
426.777713
 30
0.000000
 10
712.343743
 20
426.438086
 30
0.000000
 10
712.567227
 20
426.069454
 30
0.000000
  0
SPLINE
  5
135
330
1F
100
AcDbEntity
  8
0
 62
     7
100
AcDbSpline
210
0.000000
220
0.000000
230
1.0
 70
     8
 71
     3
 72
     8
 73
     4
 42
0.0000000001
 43
0.0000000001
 44
0.0000000001
 12
0.000000
 22
0.000000
 32
0.000000
 13
0.000000
 23
0.000000
 33
0.000000
 40
0.000000
 40
0.000000
 40
0.000000
 40
0.000000
 40
1.000000
 40
1.000000
 40
1.000000
 40
1.000000
 10
712.567227
 20
426.069454
 30
0.000000
 10
712.786210
 20
425.708247
 30
0.000000
 10
712.955305
 20
425.319191
 30
0.000000
 10
713.082918
 20
424.917193
 30
0.000000
  0
SPLINE
  5
136
330
1F
100
AcDbEntity
  8
0
 62
     7
100
AcDbSpline
210
0.000000
220
0.000000
230
1.0
 70
     8
 71
     3
 72
     8
 73
     4
 42
0.0000000001
 43
0.0000000001
 44
0.0000000001
 12
0.000000
 22
0.000000
 32
0.000000
 13
0.000000
 23
0.000000
 33
0.000000
 40
0.000000
 40
0.000000
 40
0.000000
 40
0.000000
 40
1.000000
 40
1.000000
 40
1.000000
 40
1.000000
 10
713.082918
 20
424.917193
 30
0.000000
 10
713.210039
 20
424.516749
 30
0.000000
 10
713.295999
 20
424.103464
 30
0.000000
 10
713.533119
 20
423.743713
 30
0.000000
  0
SPLINE
  5
137
330
1F
100
AcDbEntity
  8
0
 62
     7
100
AcDbSpline
210
0.000000
220
0.000000
230
1.0
 70
     8
 71
     3
 72
     8
 73
     4
 42
0.0000000001
 43
0.0000000001
 44
0.0000000001
 12
0.000000
 22
0.000000
 32
0.000000
 13
0.000000
 23
0.000000
 33
0.000000
 40
0.000000
 40
0.000000
 40
0.000000
 40
0.000000
 40
1.000000
 40
1.000000
 40
1.000000
 40
1.000000
 10
713.533119
 20
423.743713
 30
0.000000
 10
713.677741
 20
423.524297
 30
0.000000
 10
713.878593
 20
423.324795
 30
0.000000
 10
714.113118
 20
423.235661
 30
0.000000
  0
SPLINE
  5
138
330
1F
100
AcDbEntity
  8
0
 62
     7
100
AcDbSpline
210
0.000000
220
0.000000
230
1.0
 70
     8
 71
     3
 72
     8
 73
     4
 42
0.0000000001
 43
0.0000000001
 44
0.0000000001
 12
0.000000
 22
0.000000
 32
0.000000
 13
0.000000
 23
0.000000
 33
0.000000
 40
0.000000
 40
0.000000
 40
0.000000
 40
0.000000
 40
1.000000
 40
1.000000
 40
1.000000
 40
1.000000
 10
714.113118
 20
423.235661
 30
0.000000
 10
714.394468
 20
423.128731
 30
0.000000
 10
714.724280
 20
423.180640
 30
0.000000
 10
715.042840
 20
423.200389
 30
0.000000
  0
SPLINE
  5
139
330
1F
100
AcDbEntity
  8
0
 62
     7
100
AcDbSpline
210
0.000000
220
0.000000
230
1.0
 70
     8
 71
     3
 72
     8
 73
     4
 42
0.0000000001
 43
0.0000000001
 44
0.0000000001
 12
0.000000
 22
0.000000
 32
0.000000
 13
0.000000
 23
0.000000
 33
0.000000
 40
0.000000
 40
0.000000
 40
0.000000
 40
0.000000
 40
1.000000
 40
1.000000
 40
1.000000
 40
1.000000
 10
715.042840
 20
423.200389
 30
0.000000
 10
715.344469
 20
423.219087
 30
0.000000
 10
715.636010
 20
423.208953
 30
0.000000
 10
715.922271
 20
423.149217
 30
0.000000
  0
SPLINE
  5
140
330
1F
100
AcDbEntity
  8
0
 62
     7
100
AcDbSpline
210
0.000000
220
0.000000
230
1.0
 70
     8
 71
     3
 72
     8
 73
     4
 42
0.0000000001
 43
0.0000000001
 44
0.0000000001
 12
0.000000
 22
0.000000
 32
0.000000
 13
0.000000
 23
0.000000
 33
0.000000
 40
0.000000
 40
0.000000
 40
0.000000
 40
0.000000
 40
1.000000
 40
1.000000
 40
1.000000
 40
1.000000
 10
715.922271
 20
423.149217
 30
0.000000
 10
716.217816
 20
423.087544
 30
0.000000
 10
716.507732
 20
422.973001
 30
0.000000
 10
716.766423
 20
422.815106
 30
0.000000
  0
SPLINE
  5
141
330
1F
100
AcDbEntity
  8
0
 62
     7
100
AcDbSpline
210
0.000000
220
0.000000
230
1.0
 70
     8
 71
     3
 72
     8
 73
     4
 42
0.0000000001
 43
0.0000000001
 44
0.0000000001
 12
0.000000
 22
0.000000
 32
0.000000
 13
0.000000
 23
0.000000
 33
0.000000
 40
0.000000
 40
0.000000
 40
0.000000
 40
0.000000
 40
1.000000
 40
1.000000
 40
1.000000
 40
1.000000
 10
716.766423
 20
422.815106
 30
0.000000
 10
717.033185
 20
422.652285
 30
0.000000
 10
717.266743
 20
422.443366
 30
0.000000
 10
717.493464
 20
422.230444
 30
0.000000
  0
SPLINE
  5
142
330
1F
100
AcDbEntity
  8
0
 62
     7
100
AcDbSpline
210
0.000000
220
0.000000
230
1.0
 70
     8
 71
     3
 72
     8
 73
     4
 42
0.0000000001
 43
0.0000000001
 44
0.0000000001
 12
0.000000
 22
0.000000
 32
0.000000
 13
0.000000
 23
0.000000
 33
0.000000
 40
0.000000
 40
0.000000
 40
0.000000
 40
0.000000
 40
1.000000
 40
1.000000
 40
1.000000
 40
1.000000
 10
717.493464
 20
422.230444
 30
0.000000
 10
717.699603
 20
422.036851
 30
0.000000
 10
717.900089
 20
421.839949
 30
0.000000
 10
718.119692
 20
421.659293
 30
0.000000
  0
SPLINE
  5
143
330
1F
100
AcDbEntity
  8
0
 62
     7
100
AcDbSpline
210
0.000000
220
0.000000
230
1.0
 70
     8
 71
     3
 72
     8
 73
     4
 42
0.0000000001
 43
0.0000000001
 44
0.0000000001
 12
0.000000
 22
0.000000
 32
0.000000
 13
0.000000
 23
0.000000
 33
0.000000
 40
0.000000
 40
0.000000
 40
0.000000
 40
0.000000
 40
1.000000
 40
1.000000
 40
1.000000
 40
1.000000
 10
718.119692
 20
421.659293
 30
0.000000
 10
718.316270
 20
421.497580
 30
0.000000
 10
718.528165
 20
421.348885
 30
0.000000
 10
718.761766
 20
421.251929
 30
0.000000
  0
SPLINE
  5
144
330
1F
100
AcDbEntity
  8
0
 62
     7
100
AcDbSpline
210
0.000000
220
0.000000
230
1.0
 70
     8
 71
     3
 72
     8
 73
     4
 42
0.0000000001
 43
0.0000000001
 44
0.0000000001
 12
0.000000
 22
0.000000
 32
0.000000
 13
0.000000
 23
0.000000
 33
0.000000
 40
0.000000
 40
0.000000
 40
0.000000
 40
0.000000
 40
1.000000
 40
1.000000
 40
1.000000
 40
1.000000
 10
718.761766
 20
421.251929
 30
0.000000
 10
718.927717
 20
421.183051
 30
0.000000
 10
719.104623
 20
421.140284
 30
0.000000
 10
719.280681
 20
421.096542
 30
0.000000
  0
SPLINE
  5
145
330
1F
100
AcDbEntity
  8
0
 62
     7
100
AcDbSpline
210
0.000000
220
0.000000
230
1.0
 70
     8
 71
     3
 72
     8
 73
     4
 42
0.0000000001
 43
0.0000000001
 44
0.0000000001
 12
0.000000
 22
0.000000
 32
0.000000
 13
0.000000
 23
0.000000
 33
0.000000
 40
0.000000
 40
0.000000
 40
0.000000
 40
0.000000
 40
1.000000
 40
1.000000
 40
1.000000
 40
1.000000
 10
719.280681
 20
421.096542
 30
0.000000
 10
719.570172
 20
421.024618
 30
0.000000
 10
719.857373
 20
420.950058
 30
0.000000
 10
720.139292
 20
420.859184
 30
0.000000
  0
SPLINE
  5
146
330
1F
100
AcDbEntity
  8
0
 62
     7
100
AcDbSpline
210
0.000000
220
0.000000
230
1.0
 70
     8
 71
     3
 72
     8
 73
     4
 42
0.0000000001
 43
0.0000000001
 44
0.0000000001
 12
0.000000
 22
0.000000
 32
0.000000
 13
0.000000
 23
0.000000
 33
0.000000
 40
0.000000
 40
0.000000
 40
0.000000
 40
0.000000
 40
1.000000
 40
1.000000
 40
1.000000
 40
1.000000
 10
720.139292
 20
420.859184
 30
0.000000
 10
720.663276
 20
420.690284
 30
0.000000
 10
721.169008
 20
420.465031
 30
0.000000
 10
721.671916
 20
420.236922
 30
0.000000
  0
SPLINE
  5
147
330
1F
100
AcDbEntity
  8
0
 62
     7
100
AcDbSpline
210
0.000000
220
0.000000
230
1.0
 70
     8
 71
     3
 72
     8
 73
     4
 42
0.0000000001
 43
0.0000000001
 44
0.0000000001
 12
0.000000
 22
0.000000
 32
0.000000
 13
0.000000
 23
0.000000
 33
0.000000
 40
0.000000
 40
0.000000
 40
0.000000
 40
0.000000
 40
1.000000
 40
1.000000
 40
1.000000
 40
1.000000
 10
721.671916
 20
420.236922
 30
0.000000
 10
722.300927
 20
419.951613
 30
0.000000
 10
722.925520
 20
419.661835
 30
0.000000
 10
723.546747
 20
419.364472
 30
0.000000
  0
SPLINE
  5
148
330
1F
100
AcDbEntity
  8
0
 62
     7
100
AcDbSpline
210
0.000000
220
0.000000
230
1.0
 70
     8
 71
     3
 72
     8
 73
     4
 42
0.0000000001
 43
0.0000000001
 44
0.0000000001
 12
0.000000
 22
0.000000
 32
0.000000
 13
0.000000
 23
0.000000
 33
0.000000
 40
0.000000
 40
0.000000
 40
0.000000
 40
0.000000
 40
1.000000
 40
1.000000
 40
1.000000
 40
1.000000
 10
723.546747
 20
419.364472
 30
0.000000
 10
724.645833
 20
418.838371
 30
0.000000
 10
725.734385
 20
418.288526
 30
0.000000
 10
726.844750
 20
417.781809
 30
0.000000
  0
SPLINE
  5
149
330
1F
100
AcDbEntity
  8
0
 62
     7
100
AcDbSpline
210
0.000000
220
0.000000
230
1.0
 70
     8
 71
     3
 72
     8
 73
     4
 42
0.0000000001
 43
0.0000000001
 44
0.0000000001
 12
0.000000
 22
0.000000
 32
0.000000
 13
0.000000
 23
0.000000
 33
0.000000
 40
0.000000
 40
0.000000
 40
0.000000
 40
0.000000
 40
1.000000
 40
1.000000
 40
1.000000
 40
1.000000
 10
726.844750
 20
417.781809
 30
0.000000
 10
727.571660
 20
417.450082
 30
0.000000
 10
728.307919
 20
417.136838
 30
0.000000
 10
729.061394
 20
416.871756
 30
0.000000
  0
SPLINE
  5
150
330
1F
100
AcDbEntity
  8
0
 62
     7
100
AcDbSpline
210
0.000000
220
0.000000
230
1.0
 70
     8
 71
     3
 72
     8
 73
     4
 42
0.0000000001
 43
0.0000000001
 44
0.0000000001
 12
0.000000
 22
0.000000
 32
0.000000
 13
0.000000
 23
0.000000
 33
0.000000
 40
0.000000
 40
0.000000
 40
0.000000
 40
0.000000
 40
1.000000
 40
1.000000
 40
1.000000
 40
1.000000
 10
729.061394
 20
416.871756
 30
0.000000
 10
729.790102
 20
416.615387
 30
0.000000
 10
730.534912
 20
416.404067
 30
0.000000
 10
731.278242
 20
416.190274
 30
0.000000
  0
SPLINE
  5
151
330
1F
100
AcDbEntity
  8
0
 62
     7
100
AcDbSpline
210
0.000000
220
0.000000
230
1.0
 70
     8
 71
     3
 72
     8
 73
     4
 42
0.0000000001
 43
0.0000000001
 44
0.0000000001
 12
0.000000
 22
0.000000
 32
0.000000
 13
0.000000
 23
0.000000
 33
0.000000
 40
0.000000
 40
0.000000
 40
0.000000
 40
0.000000
 40
1.000000
 40
1.000000
 40
1.000000
 40
1.000000
 10
731.278242
 20
416.190274
 30
0.000000
 10
731.775733
 20
416.047188
 30
0.000000
 10
732.272560
 20
415.902994
 30
0.000000
 10
732.768809
 20
415.756606
 30
0.000000
  0
SPLINE
  5
152
330
1F
100
AcDbEntity
  8
0
 62
     7
100
AcDbSpline
210
0.000000
220
0.000000
230
1.0
 70
     8
 71
     3
 72
     8
 73
     4
 42
0.0000000001
 43
0.0000000001
 44
0.0000000001
 12
0.000000
 22
0.000000
 32
0.000000
 13
0.000000
 23
0.000000
 33
0.000000
 40
0.000000
 40
0.000000
 40
0.000000
 40
0.000000
 40
1.000000
 40
1.000000
 40
1.000000
 40
1.000000
 10
732.768809
 20
415.756606
 30
0.000000
 10
733.443007
 20
415.557725
 30
0.000000
 10
734.116137
 20
415.354793
 30
0.000000
 10
734.786744
 20
415.144067
 30
0.000000
  0
SPLINE
  5
153
330
1F
100
AcDbEntity
  8
0
 62
     7
100
AcDbSpline
210
0.000000
220
0.000000
230
1.0
 70
     8
 71
     3
 72
     8
 73
     4
 42
0.0000000001
 43
0.0000000001
 44
0.0000000001
 12
0.000000
 22
0.000000
 32
0.000000
 13
0.000000
 23
0.000000
 33
0.000000
 40
0.000000
 40
0.000000
 40
0.000000
 40
0.000000
 40
1.000000
 40
1.000000
 40
1.000000
 40
1.000000
 10
734.786744
 20
415.144067
 30
0.000000
 10
735.489227
 20
414.923324
 30
0.000000
 10
736.188941
 20
414.694029
 30
0.000000
 10
736.895175
 20
414.485268
 30
0.000000
  0
SPLINE
  5
154
330
1F
100
AcDbEntity
  8
0
 62
     7
100
AcDbSpline
210
0.000000
220
0.000000
230
1.0
 70
     8
 71
     3
 72
     8
 73
     4
 42
0.0000000001
 43
0.0000000001
 44
0.0000000001
 12
0.000000
 22
0.000000
 32
0.000000
 13
0.000000
 23
0.000000
 33
0.000000
 40
0.000000
 40
0.000000
 40
0.000000
 40
0.000000
 40
1.000000
 40
1.000000
 40
1.000000
 40
1.000000
 10
736.895175
 20
414.485268
 30
0.000000
 10
737.639298
 20
414.265308
 30
0.000000
 10
738.390658
 20
414.068144
 30
0.000000
 10
739.149220
 20
413.901994
 30
0.000000
  0
SPLINE
  5
155
330
1F
100
AcDbEntity
  8
0
 62
     7
100
AcDbSpline
210
0.000000
220
0.000000
230
1.0
 70
     8
 71
     3
 72
     8
 73
     4
 42
0.0000000001
 43
0.0000000001
 44
0.0000000001
 12
0.000000
 22
0.000000
 32
0.000000
 13
0.000000
 23
0.000000
 33
0.000000
 40
0.000000
 40
0.000000
 40
0.000000
 40
0.000000
 40
1.000000
 40
1.000000
 40
1.000000
 40
1.000000
 10
739.149220
 20
413.901994
 30
0.000000
 10
739.942259
 20
413.728293
 30
0.000000
 10
740.743171
 20
413.588488
 30
0.000000
 10
741.548895
 20
413.487451
 30
0.000000
  0
SPLINE
  5
156
330
1F
100
AcDbEntity
  8
0
 62
     7
100
AcDbSpline
210
0.000000
220
0.000000
230
1.0
 70
     8
 71
     3
 72
     8
 73
     4
 42
0.0000000001
 43
0.0000000001
 44
0.0000000001
 12
0.000000
 22
0.000000
 32
0.000000
 13
0.000000
 23
0.000000
 33
0.000000
 40
0.000000
 40
0.000000
 40
0.000000
 40
0.000000
 40
1.000000
 40
1.000000
 40
1.000000
 40
1.000000
 10
741.548895
 20
413.487451
 30
0.000000
 10
741.785372
 20
413.457797
 30
0.000000
 10
742.022264
 20
413.431483
 30
0.000000
 10
742.259555
 20
413.409198
 30
0.000000
  0
LINE
  5
157
330
1F
100
AcDbEntity
  8
0
  62
7
100
AcDbLine
 10
742.259555
 20
413.409198
 30
0.000000
 11
773.806809
 21
411.513081
 31
0.000000
  0
LINE
  5
158
330
1F
100
AcDbEntity
  8
0
  62
5
100
AcDbLine
 10
583.916422
 20
576.025484
 30
0.000000
 11
588.916398
 21
576.025484
 31
0.000000
  0
LINE
  5
159
330
1F
100
AcDbEntity
  8
0
  62
5
100
AcDbLine
 10
588.916398
 20
576.025484
 30
0.000000
 11
588.916398
 21
571.025462
 31
0.000000
  0
LINE
  5
160
330
1F
100
AcDbEntity
  8
0
  62
5
100
AcDbLine
 10
588.916398
 20
571.025462
 30
0.000000
 11
583.916422
 21
571.025462
 31
0.000000
  0
LINE
  5
161
330
1F
100
AcDbEntity
  8
0
  62
5
100
AcDbLine
 10
583.916422
 20
571.025462
 30
0.000000
 11
583.916422
 21
576.025484
 31
0.000000
  0
LINE
  5
162
330
1F
100
AcDbEntity
  8
0
  62
5
100
AcDbLine
 10
573.938996
 20
566.002945
 30
0.000000
 11
578.938972
 21
566.002945
 31
0.000000
  0
LINE
  5
163
330
1F
100
AcDbEntity
  8
0
  62
5
100
AcDbLine
 10
578.938972
 20
566.002945
 30
0.000000
 11
578.938972
 21
561.002923
 31
0.000000
  0
LINE
  5
164
330
1F
100
AcDbEntity
  8
0
  62
5
100
AcDbLine
 10
578.938972
 20
561.002923
 30
0.000000
 11
573.938996
 21
561.002923
 31
0.000000
  0
LINE
  5
165
330
1F
100
AcDbEntity
  8
0
  62
5
100
AcDbLine
 10
573.938996
 20
561.002923
 30
0.000000
 11
573.938996
 21
566.002945
 31
0.000000
  0
LINE
  5
166
330
1F
100
AcDbEntity
  8
0
  62
5
100
AcDbLine
 10
583.916422
 20
376.038120
 30
0.000000
 11
588.916398
 21
376.038120
 31
0.000000
  0
LINE
  5
167
330
1F
100
AcDbEntity
  8
0
  62
5
100
AcDbLine
 10
588.916398
 20
376.038120
 30
0.000000
 11
588.916398
 21
381.038142
 31
0.000000
  0
LINE
  5
168
330
1F
100
AcDbEntity
  8
0
  62
5
100
AcDbLine
 10
588.916398
 20
381.038142
 30
0.000000
 11
583.916422
 21
381.038142
 31
0.000000
  0
LINE
  5
169
330
1F
100
AcDbEntity
  8
0
  62
5
100
AcDbLine
 10
583.916422
 20
381.038142
 30
0.000000
 11
583.916422
 21
376.038120
 31
0.000000
  0
LINE
  5
170
330
1F
100
AcDbEntity
  8
0
  62
5
100
AcDbLine
 10
573.938996
 20
386.060659
 30
0.000000
 11
578.938972
 21
386.060659
 31
0.000000
  0
LINE
  5
171
330
1F
100
AcDbEntity
  8
0
  62
5
100
AcDbLine
 10
578.938972
 20
386.060659
 30
0.000000
 11
578.938972
 21
391.060681
 31
0.000000
  0
LINE
  5
172
330
1F
100
AcDbEntity
  8
0
  62
5
100
AcDbLine
 10
578.938972
 20
391.060681
 30
0.000000
 11
573.938996
 21
391.060681
 31
0.000000
  0
LINE
  5
173
330
1F
100
AcDbEntity
  8
0
  62
5
100
AcDbLine
 10
573.938996
 20
391.060681
 30
0.000000
 11
573.938996
 21
386.060659
 31
0.000000
  0
LINE
  5
174
330
1F
100
AcDbEntity
  8
0
  62
5
100
AcDbLine
 10
763.939530
 20
376.022997
 30
0.000000
 11
758.939554
 21
376.022997
 31
0.000000
  0
LINE
  5
175
330
1F
100
AcDbEntity
  8
0
  62
5
100
AcDbLine
 10
758.939554
 20
376.022997
 30
0.000000
 11
758.939554
 21
381.023019
 31
0.000000
  0
LINE
  5
176
330
1F
100
AcDbEntity
  8
0
  62
5
100
AcDbLine
 10
758.939554
 20
381.023019
 30
0.000000
 11
763.939530
 21
381.023019
 31
0.000000
  0
LINE
  5
177
330
1F
100
AcDbEntity
  8
0
  62
5
100
AcDbLine
 10
763.939530
 20
381.023019
 30
0.000000
 11
763.939530
 21
376.022997
 31
0.000000
  0
LINE
  5
178
330
1F
100
AcDbEntity
  8
0
  62
5
100
AcDbLine
 10
773.916956
 20
386.045537
 30
0.000000
 11
768.916980
 21
386.045537
 31
0.000000
  0
LINE
  5
179
330
1F
100
AcDbEntity
  8
0
  62
5
100
AcDbLine
 10
768.916980
 20
386.045537
 30
0.000000
 11
768.916980
 21
391.045559
 31
0.000000
  0
LINE
  5
180
330
1F
100
AcDbEntity
  8
0
  62
5
100
AcDbLine
 10
768.916980
 20
391.045559
 30
0.000000
 11
773.916956
 21
391.045559
 31
0.000000
  0
LINE
  5
181
330
1F
100
AcDbEntity
  8
0
  62
5
100
AcDbLine
 10
773.916956
 20
391.045559
 30
0.000000
 11
773.916956
 21
386.045537
 31
0.000000
  0
LINE
  5
182
330
1F
100
AcDbEntity
  8
0
  62
7
100
AcDbLine
 10
566.370896
 20
576.282007
 30
0.000000
 11
566.370896
 21
566.282010
 31
0.000000
  0
LINE
  5
183
330
1F
100
AcDbEntity
  8
0
  62
7
100
AcDbLine
 10
571.370824
 20
566.282125
 30
0.000000
 11
566.370825
 21
566.282125
 31
0.000000
  0
LINE
  5
184
330
1F
100
AcDbEntity
  8
0
  62
7
100
AcDbLine
 10
566.370825
 20
561.282136
 30
0.000000
 11
571.370824
 21
561.282136
 31
0.000000
  0
LINE
  5
185
330
1F
100
AcDbEntity
  8
0
  62
7
100
AcDbLine
 10
571.370824
 20
561.282136
 30
0.000000
 11
571.370824
 21
566.282125
 31
0.000000
  0
LINE
  5
186
330
1F
100
AcDbEntity
  8
0
  62
7
100
AcDbLine
 10
566.370825
 20
561.282136
 30
0.000000
 11
566.370825
 21
391.282145
 31
0.000000
  0
LINE
  5
187
330
1F
100
AcDbEntity
  8
0
  62
7
100
AcDbLine
 10
566.370896
 20
376.282277
 30
0.000000
 11
566.370896
 21
386.282274
 31
0.000000
  0
LINE
  5
188
330
1F
100
AcDbEntity
  8
0
  62
7
100
AcDbLine
 10
571.370824
 20
386.282159
 30
0.000000
 11
566.370825
 21
386.282159
 31
0.000000
  0
LINE
  5
189
330
1F
100
AcDbEntity
  8
0
  62
7
100
AcDbLine
 10
566.370825
 20
391.282148
 30
0.000000
 11
571.370824
 21
391.282148
 31
0.000000
  0
LINE
  5
190
330
1F
100
AcDbEntity
  8
0
  62
7
100
AcDbLine
 10
571.370824
 20
391.282148
 30
0.000000
 11
571.370824
 21
386.282159
 31
0.000000
  0
LINE
  5
191
330
1F
100
AcDbEntity
  8
0
  62
7
100
AcDbLine
 10
566.383278
 20
576.278971
 30
0.000000
 11
556.383281
 21
576.278971
 31
0.000000
  0
LINE
  5
192
330
1F
100
AcDbEntity
  8
0
  62
7
100
AcDbLine
 10
556.383396
 20
571.279042
 30
0.000000
 11
556.383396
 21
576.279042
 31
0.000000
  0
LINE
  5
193
330
1F
100
AcDbEntity
  8
0
  62
7
100
AcDbLine
 10
551.383407
 20
576.279042
 30
0.000000
 11
551.383407
 21
571.279042
 31
0.000000
  0
LINE
  5
194
330
1F
100
AcDbEntity
  8
0
  62
7
100
AcDbLine
 10
551.383407
 20
571.279042
 30
0.000000
 11
556.383396
 21
571.279042
 31
0.000000
  0
LINE
  5
195
330
1F
100
AcDbEntity
  8
0
  62
7
100
AcDbLine
 10
551.383407
 20
576.279042
 30
0.000000
 11
475.183431
 21
576.279042
 31
0.000000
  0
LINE
  5
196
330
1F
100
AcDbEntity
  8
0
  62
7
100
AcDbLine
 10
470.183444
 20
571.279043
 30
0.000000
 11
470.183444
 21
576.279042
 31
0.000000
  0
LINE
  5
197
330
1F
100
AcDbEntity
  8
0
  62
7
100
AcDbLine
 10
475.183433
 20
576.279042
 30
0.000000
 11
475.183433
 21
571.279043
 31
0.000000
  0
LINE
  5
198
330
1F
100
AcDbEntity
  8
0
  62
7
100
AcDbLine
 10
475.183433
 20
571.279043
 30
0.000000
 11
470.183444
 21
571.279043
 31
0.000000
  0
LINE
  5
199
330
1F
100
AcDbEntity
  8
0
  62
7
100
AcDbLine
 10
460.183562
 20
576.278971
 30
0.000000
 11
470.183559
 21
576.278971
 31
0.000000
  0
LINE
  5
200
330
1F
100
AcDbEntity
  8
0
  62
7
100
AcDbLine
 10
460.183523
 20
576.278971
 30
0.000000
 11
460.183523
 21
566.278974
 31
0.000000
  0
LINE
  5
201
330
1F
100
AcDbEntity
  8
0
  62
7
100
AcDbLine
 10
455.183594
 20
566.279089
 30
0.000000
 11
460.183594
 21
566.279089
 31
0.000000
  0
LINE
  5
202
330
1F
100
AcDbEntity
  8
0
  62
7
100
AcDbLine
 10
460.183594
 20
561.279100
 30
0.000000
 11
455.183594
 21
561.279100
 31
0.000000
  0
LINE
  5
203
330
1F
100
AcDbEntity
  8
0
  62
7
100
AcDbLine
 10
455.183594
 20
561.279100
 30
0.000000
 11
455.183594
 21
566.279089
 31
0.000000
  0
LINE
  5
204
330
1F
100
AcDbEntity
  8
0
  62
7
100
AcDbLine
 10
460.183594
 20
561.279100
 30
0.000000
 11
460.183594
 21
391.279109
 31
0.000000
  0
LINE
  5
205
330
1F
100
AcDbEntity
  8
0
  62
7
100
AcDbLine
 10
460.183523
 20
376.279241
 30
0.000000
 11
460.183523
 21
386.279238
 31
0.000000
  0
LINE
  5
206
330
1F
100
AcDbEntity
  8
0
  62
7
100
AcDbLine
 10
455.183594
 20
386.279123
 30
0.000000
 11
460.183594
 21
386.279123
 31
0.000000
  0
LINE
  5
207
330
1F
100
AcDbEntity
  8
0
  62
7
100
AcDbLine
 10
460.183594
 20
391.279112
 30
0.000000
 11
455.183594
 21
391.279112
 31
0.000000
  0
LINE
  5
208
330
1F
100
AcDbEntity
  8
0
  62
7
100
AcDbLine
 10
455.183594
 20
391.279112
 30
0.000000
 11
455.183594
 21
386.279123
 31
0.000000
  0
LINE
  5
209
330
1F
100
AcDbEntity
  8
0
  62
7
100
AcDbLine
 10
566.383222
 20
376.279304
 30
0.000000
 11
556.383225
 21
376.279304
 31
0.000000
  0
LINE
  5
210
330
1F
100
AcDbEntity
  8
0
  62
7
100
AcDbLine
 10
556.383340
 20
381.279232
 30
0.000000
 11
556.383340
 21
376.279233
 31
0.000000
  0
LINE
  5
211
330
1F
100
AcDbEntity
  8
0
  62
7
100
AcDbLine
 10
551.383351
 20
376.279233
 30
0.000000
 11
551.383351
 21
381.279232
 31
0.000000
  0
LINE
  5
212
330
1F
100
AcDbEntity
  8
0
  62
7
100
AcDbLine
 10
551.383351
 20
381.279232
 30
0.000000
 11
556.383340
 21
381.279232
 31
0.000000
  0
LINE
  5
213
330
1F
100
AcDbEntity
  8
0
  62
7
100
AcDbLine
 10
551.383351
 20
376.279233
 30
0.000000
 11
475.183375
 21
376.279233
 31
0.000000
  0
LINE
  5
214
330
1F
100
AcDbEntity
  8
0
  62
7
100
AcDbLine
 10
470.183388
 20
381.279232
 30
0.000000
 11
470.183388
 21
376.279232
 31
0.000000
  0
LINE
  5
215
330
1F
100
AcDbEntity
  8
0
  62
7
100
AcDbLine
 10
475.183377
 20
376.279232
 30
0.000000
 11
475.183377
 21
381.279232
 31
0.000000
  0
LINE
  5
216
330
1F
100
AcDbEntity
  8
0
  62
7
100
AcDbLine
 10
475.183377
 20
381.279232
 30
0.000000
 11
470.183388
 21
381.279232
 31
0.000000
  0
LINE
  5
217
330
1F
100
AcDbEntity
  8
0
  62
7
100
AcDbLine
 10
460.183506
 20
376.279303
 30
0.000000
 11
470.183503
 21
376.279303
 31
0.000000
  0
LINE
  5
218
330
1F
100
AcDbEntity
  8
0
  62
7
100
AcDbLine
 10
346.619668
 20
387.628695
 30
0.000000
 11
356.619665
 21
387.628695
 31
0.000000
  0
LINE
  5
219
330
1F
100
AcDbEntity
  8
0
  62
7
100
AcDbLine
 10
356.619551
 20
382.628766
 30
0.000000
 11
356.619551
 21
387.628766
 31
0.000000
  0
LINE
  5
220
330
1F
100
AcDbEntity
  8
0
  62
7
100
AcDbLine
 10
361.619539
 20
387.628766
 30
0.000000
 11
361.619539
 21
382.628766
 31
0.000000
  0
LINE
  5
221
330
1F
100
AcDbEntity
  8
0
  62
7
100
AcDbLine
 10
361.619539
 20
382.628766
 30
0.000000
 11
356.619551
 21
382.628766
 31
0.000000
  0
LINE
  5
222
330
1F
100
AcDbEntity
  8
0
  62
7
100
AcDbLine
 10
361.619539
 20
387.628766
 30
0.000000
 11
437.819515
 21
387.628766
 31
0.000000
  0
LINE
  5
223
330
1F
100
AcDbEntity
  8
0
  62
7
100
AcDbLine
 10
442.819502
 20
382.628767
 30
0.000000
 11
442.819502
 21
387.628766
 31
0.000000
  0
LINE
  5
224
330
1F
100
AcDbEntity
  8
0
  62
7
100
AcDbLine
 10
437.819514
 20
387.628766
 30
0.000000
 11
437.819514
 21
382.628767
 31
0.000000
  0
LINE
  5
225
330
1F
100
AcDbEntity
  8
0
  62
7
100
AcDbLine
 10
437.819514
 20
382.628767
 30
0.000000
 11
442.819502
 21
382.628767
 31
0.000000
  0
LINE
  5
226
330
1F
100
AcDbEntity
  8
0
  62
7
100
AcDbLine
 10
452.819384
 20
387.628695
 30
0.000000
 11
442.819388
 21
387.628695
 31
0.000000
  0
LINE
  5
227
330
1F
100
AcDbEntity
  8
0
  62
7
100
AcDbLine
 10
346.618419
 20
392.628637
 30
0.000000
 11
341.618414
 21
392.628637
 31
0.000000
  0
LINE
  5
228
330
1F
100
AcDbEntity
  8
0
  62
7
100
AcDbLine
 10
341.618414
 20
392.628637
 30
0.000000
 11
341.618414
 21
397.628675
 31
0.000000
  0
LINE
  5
229
330
1F
100
AcDbEntity
  8
0
  62
7
100
AcDbLine
 10
341.618414
 20
397.628675
 30
0.000000
 11
346.618419
 21
397.628675
 31
0.000000
  0
LINE
  5
230
330
1F
100
AcDbEntity
  8
0
  62
7
100
AcDbLine
 10
346.619654
 20
392.628782
 30
0.000000
 11
346.619654
 21
387.628743
 31
0.000000
  0
LINE
  5
231
330
1F
100
AcDbEntity
  8
0
  62
7
100
AcDbLine
 10
346.618419
 20
397.628675
 30
0.000000
 11
346.618419
 21
567.628666
 31
0.000000
  0
LINE
  5
232
330
1F
100
AcDbEntity
  8
0
  62
7
100
AcDbLine
 10
346.618419
 20
567.628664
 30
0.000000
 11
341.618420
 21
567.628664
 31
0.000000
  0
LINE
  5
233
330
1F
100
AcDbEntity
  8
0
  62
7
100
AcDbLine
 10
341.618420
 20
567.628664
 30
0.000000
 11
341.618420
 21
572.628652
 31
0.000000
  0
LINE
  5
234
330
1F
100
AcDbEntity
  8
0
  62
7
100
AcDbLine
 10
341.618420
 20
572.628652
 30
0.000000
 11
346.618419
 21
572.628652
 31
0.000000
  0
LINE
  5
235
330
1F
100
AcDbEntity
  8
0
  62
7
100
AcDbLine
 10
346.618419
 20
572.628652
 30
0.000000
 11
346.618419
 21
577.628675
 31
0.000000
  0
LINE
  5
236
330
1F
100
AcDbEntity
  8
0
  62
7
100
AcDbLine
 10
346.615118
 20
577.637176
 30
0.000000
 11
356.615115
 21
577.637176
 31
0.000000
  0
LINE
  5
237
330
1F
100
AcDbEntity
  8
0
  62
7
100
AcDbLine
 10
356.615001
 20
582.637104
 30
0.000000
 11
356.615001
 21
577.637105
 31
0.000000
  0
LINE
  5
238
330
1F
100
AcDbEntity
  8
0
  62
7
100
AcDbLine
 10
361.614989
 20
577.637105
 30
0.000000
 11
361.614989
 21
582.637104
 31
0.000000
  0
LINE
  5
239
330
1F
100
AcDbEntity
  8
0
  62
7
100
AcDbLine
 10
361.614989
 20
582.637104
 30
0.000000
 11
356.615001
 21
582.637104
 31
0.000000
  0
LINE
  5
240
330
1F
100
AcDbEntity
  8
0
  62
7
100
AcDbLine
 10
361.614989
 20
577.637105
 30
0.000000
 11
437.814965
 21
577.637105
 31
0.000000
  0
LINE
  5
241
330
1F
100
AcDbEntity
  8
0
  62
7
100
AcDbLine
 10
442.814952
 20
582.637104
 30
0.000000
 11
442.814952
 21
577.637104
 31
0.000000
  0
LINE
  5
242
330
1F
100
AcDbEntity
  8
0
  62
7
100
AcDbLine
 10
437.814964
 20
577.637104
 30
0.000000
 11
437.814964
 21
582.637104
 31
0.000000
  0
LINE
  5
243
330
1F
100
AcDbEntity
  8
0
  62
7
100
AcDbLine
 10
437.814964
 20
582.637104
 30
0.000000
 11
442.814952
 21
582.637104
 31
0.000000
  0
LINE
  5
244
330
1F
100
AcDbEntity
  8
0
  62
7
100
AcDbLine
 10
452.814834
 20
577.637175
 30
0.000000
 11
442.814838
 21
577.637175
 31
0.000000
  0
LINE
  5
245
330
1F
100
AcDbEntity
  8
0
  62
7
100
AcDbLine
 10
452.820522
 20
392.628538
 30
0.000000
 11
457.820527
 21
392.628538
 31
0.000000
  0
LINE
  5
246
330
1F
100
AcDbEntity
  8
0
  62
7
100
AcDbLine
 10
457.820527
 20
392.628538
 30
0.000000
 11
457.820527
 21
397.628576
 31
0.000000
  0
LINE
  5
247
330
1F
100
AcDbEntity
  8
0
  62
7
100
AcDbLine
 10
457.820527
 20
397.628576
 30
0.000000
 11
452.820522
 21
397.628576
 31
0.000000
  0
LINE
  5
248
330
1F
100
AcDbEntity
  8
0
  62
7
100
AcDbLine
 10
452.819287
 20
392.628683
 30
0.000000
 11
452.819287
 21
387.628644
 31
0.000000
  0
LINE
  5
249
330
1F
100
AcDbEntity
  8
0
  62
7
100
AcDbLine
 10
452.820522
 20
397.628576
 30
0.000000
 11
452.820522
 21
567.628567
 31
0.000000
  0
LINE
  5
250
330
1F
100
AcDbEntity
  8
0
  62
7
100
AcDbLine
 10
452.820522
 20
567.628565
 30
0.000000
 11
457.820521
 21
567.628565
 31
0.000000
  0
LINE
  5
251
330
1F
100
AcDbEntity
  8
0
  62
7
100
AcDbLine
 10
457.820521
 20
567.628565
 30
0.000000
 11
457.820521
 21
572.628553
 31
0.000000
  0
LINE
  5
252
330
1F
100
AcDbEntity
  8
0
  62
7
100
AcDbLine
 10
457.820521
 20
572.628553
 30
0.000000
 11
452.820522
 21
572.628553
 31
0.000000
  0
LINE
  5
253
330
1F
100
AcDbEntity
  8
0
  62
7
100
AcDbLine
 10
452.820522
 20
572.628553
 30
0.000000
 11
452.820522
 21
577.628576
 31
0.000000
  0
LINE
  5
254
330
1F
100
AcDbEntity
  8
0
  62
7
100
AcDbLine
 10
711.878623
 20
550.966555
 30
0.000000
 11
711.878623
 21
540.966558
 31
0.000000
  0
LINE
  5
255
330
1F
100
AcDbEntity
  8
0
  62
7
100
AcDbLine
 10
706.878694
 20
540.966673
 30
0.000000
 11
711.878694
 21
540.966673
 31
0.000000
  0
LINE
  5
256
330
1F
100
AcDbEntity
  8
0
  62
7
100
AcDbLine
 10
711.878694
 20
535.966684
 30
0.000000
 11
706.878694
 21
535.966684
 31
0.000000
  0
LINE
  5
257
330
1F
100
AcDbEntity
  8
0
  62
7
100
AcDbLine
 10
706.878694
 20
535.966684
 30
0.000000
 11
706.878694
 21
540.966673
 31
0.000000
  0
LINE
  5
258
330
1F
100
AcDbEntity
  8
0
  62
7
100
AcDbLine
 10
711.878694
 20
535.966684
 30
0.000000
 11
711.878694
 21
459.766708
 31
0.000000
  0
LINE
  5
259
330
1F
100
AcDbEntity
  8
0
  62
7
100
AcDbLine
 10
706.878695
 20
454.766721
 30
0.000000
 11
711.878695
 21
454.766721
 31
0.000000
  0
LINE
  5
260
330
1F
100
AcDbEntity
  8
0
  62
7
100
AcDbLine
 10
711.878695
 20
459.766710
 30
0.000000
 11
706.878695
 21
459.766710
 31
0.000000
  0
LINE
  5
261
330
1F
100
AcDbEntity
  8
0
  62
7
100
AcDbLine
 10
706.878695
 20
459.766710
 30
0.000000
 11
706.878695
 21
454.766721
 31
0.000000
  0
LINE
  5
262
330
1F
100
AcDbEntity
  8
0
  62
7
100
AcDbLine
 10
711.878624
 20
444.766839
 30
0.000000
 11
711.878624
 21
454.766836
 31
0.000000
  0
LINE
  5
263
330
1F
100
AcDbEntity
  8
0
  62
7
100
AcDbLine
 10
716.878809
 20
444.768092
 30
0.000000
 11
716.878809
 21
439.768087
 31
0.000000
  0
LINE
  5
264
330
1F
100
AcDbEntity
  8
0
  62
7
100
AcDbLine
 10
716.878809
 20
439.768087
 30
0.000000
 11
721.878848
 21
439.768087
 31
0.000000
  0
LINE
  5
265
330
1F
100
AcDbEntity
  8
0
  62
7
100
AcDbLine
 10
721.878848
 20
439.768087
 30
0.000000
 11
721.878848
 21
444.768092
 31
0.000000
  0
LINE
  5
266
330
1F
100
AcDbEntity
  8
0
  62
7
100
AcDbLine
 10
716.878954
 20
444.769327
 30
0.000000
 11
711.878915
 21
444.769327
 31
0.000000
  0
LINE
  5
267
330
1F
100
AcDbEntity
  8
0
  62
7
100
AcDbLine
 10
721.878848
 20
444.768092
 30
0.000000
 11
813.097786
 21
444.768092
 31
0.000000
  0
LINE
  5
268
330
1F
100
AcDbEntity
  8
0
  62
7
100
AcDbLine
 10
716.878809
 20
550.967639
 30
0.000000
 11
716.878809
 21
555.967644
 31
0.000000
  0
LINE
  5
269
330
1F
100
AcDbEntity
  8
0
  62
7
100
AcDbLine
 10
716.878809
 20
555.967644
 30
0.000000
 11
721.878848
 21
555.967644
 31
0.000000
  0
LINE
  5
270
330
1F
100
AcDbEntity
  8
0
  62
7
100
AcDbLine
 10
721.878848
 20
555.967644
 30
0.000000
 11
721.878848
 21
550.967639
 31
0.000000
  0
LINE
  5
271
330
1F
100
AcDbEntity
  8
0
  62
7
100
AcDbLine
 10
716.878954
 20
550.966404
 30
0.000000
 11
711.878915
 21
550.966404
 31
0.000000
  0
LINE
  5
272
330
1F
100
AcDbEntity
  8
0
  62
7
100
AcDbLine
 10
721.878848
 20
550.967639
 30
0.000000
 11
813.097786
 21
550.967639
 31
0.000000
  0
LINE
  5
273
330
1F
100
AcDbEntity
  8
0
  62
7
100
AcDbLine
 10
813.097786
 20
550.967639
 30
0.000000
 11
813.097786
 21
444.768092
 31
0.000000
  0
LINE
  5
274
330
1F
100
AcDbEntity
  8
0
  62
7
100
AcDbLine
 10
306.077630
 20
432.130507
 30
0.000000
 11
327.336078
 21
432.130507
 31
0.000000
  0
LINE
  5
275
330
1F
100
AcDbEntity
  8
0
  62
7
100
AcDbLine
 10
342.335947
 20
432.130436
 30
0.000000
 11
332.335950
 21
432.130436
 31
0.000000
  0
LINE
  5
276
330
1F
100
AcDbEntity
  8
0
  62
7
100
AcDbLine
 10
332.336065
 20
427.130508
 30
0.000000
 11
332.336065
 21
432.130507
 31
0.000000
  0
LINE
  5
277
330
1F
100
AcDbEntity
  8
0
  62
7
100
AcDbLine
 10
327.336076
 20
432.130507
 30
0.000000
 11
327.336076
 21
427.130508
 31
0.000000
  0
LINE
  5
278
330
1F
100
AcDbEntity
  8
0
  62
7
100
AcDbLine
 10
327.336076
 20
427.130508
 30
0.000000
 11
332.336065
 21
427.130508
 31
0.000000
  0
LINE
  5
279
330
1F
100
AcDbEntity
  8
0
  62
7
100
AcDbLine
 10
342.335884
 20
538.330135
 30
0.000000
 11
342.335884
 21
528.330138
 31
0.000000
  0
LINE
  5
280
330
1F
100
AcDbEntity
  8
0
  62
7
100
AcDbLine
 10
337.335956
 20
528.330253
 30
0.000000
 11
342.335955
 21
528.330253
 31
0.000000
  0
LINE
  5
281
330
1F
100
AcDbEntity
  8
0
  62
7
100
AcDbLine
 10
342.335955
 20
523.330264
 30
0.000000
 11
337.335956
 21
523.330264
 31
0.000000
  0
LINE
  5
282
330
1F
100
AcDbEntity
  8
0
  62
7
100
AcDbLine
 10
337.335956
 20
523.330264
 30
0.000000
 11
337.335956
 21
528.330253
 31
0.000000
  0
LINE
  5
283
330
1F
100
AcDbEntity
  8
0
  62
7
100
AcDbLine
 10
342.335955
 20
523.330264
 30
0.000000
 11
342.335955
 21
447.130289
 31
0.000000
  0
LINE
  5
284
330
1F
100
AcDbEntity
  8
0
  62
7
100
AcDbLine
 10
337.335956
 20
442.130301
 30
0.000000
 11
342.335956
 21
442.130301
 31
0.000000
  0
LINE
  5
285
330
1F
100
AcDbEntity
  8
0
  62
7
100
AcDbLine
 10
342.335956
 20
447.130290
 30
0.000000
 11
337.335956
 21
447.130290
 31
0.000000
  0
LINE
  5
286
330
1F
100
AcDbEntity
  8
0
  62
7
100
AcDbLine
 10
337.335956
 20
447.130290
 30
0.000000
 11
337.335956
 21
442.130301
 31
0.000000
  0
LINE
  5
287
330
1F
100
AcDbEntity
  8
0
  62
7
100
AcDbLine
 10
342.335885
 20
432.130419
 30
0.000000
 11
342.335885
 21
442.130416
 31
0.000000
  0
LINE
  5
288
330
1F
100
AcDbEntity
  8
0
  62
7
100
AcDbLine
 10
306.094364
 20
538.331145
 30
0.000000
 11
327.352812
 21
538.331145
 31
0.000000
  0
LINE
  5
289
330
1F
100
AcDbEntity
  8
0
  62
7
100
AcDbLine
 10
342.352681
 20
538.331216
 30
0.000000
 11
332.352684
 21
538.331216
 31
0.000000
  0
LINE
  5
290
330
1F
100
AcDbEntity
  8
0
  62
7
100
AcDbLine
 10
332.352799
 20
543.331145
 30
0.000000
 11
332.352799
 21
538.331145
 31
0.000000
  0
LINE
  5
291
330
1F
100
AcDbEntity
  8
0
  62
7
100
AcDbLine
 10
327.352810
 20
538.331145
 30
0.000000
 11
327.352810
 21
543.331145
 31
0.000000
  0
LINE
  5
292
330
1F
100
AcDbEntity
  8
0
  62
7
100
AcDbLine
 10
327.352810
 20
543.331145
 30
0.000000
 11
332.352799
 21
543.331145
 31
0.000000
  0
LINE
  5
293
330
1F
100
AcDbEntity
  8
0
  62
7
100
AcDbLine
 10
306.077630
 20
432.130507
 30
0.000000
 11
306.094364
 21
538.331145
 31
0.000000
 0
ENDSEC
  0
SECTION
  2
OBJECTS
  0
DICTIONARY
  5
C
330
0
100
AcDbDictionary
  3
ACAD_GROUP
350
D
  3
ACAD_LAYOUT
350
1A
  3
ACAD_MLINESTYLE
350
17
  3
ACAD_PLOTSETTINGS
350
19
1001
ACAD
1000
TREAT_AS_HARD
1070
     0
  0
DICTIONARY
  5
46
330
1F
100
AcDbDictionary
  3
ACAD_LAYOUTSELFREF
350
47
  0
DICTIONARY
  5
44
330
1B
100
AcDbDictionary
  3
ACAD_LAYOUTSELFREF
350
45
  0
DICTIONARY
  5
D
102
{ACAD_REACTORS
330
C
102
}
330
C
100
AcDbDictionary
1001
ACAD
1000
TREAT_AS_HARD
1070
     0
  0
DICTIONARY
  5
1A
102
{ACAD_REACTORS
330
C
102
}
330
C
100
AcDbDictionary
1001
ACAD
1000
TREAT_AS_HARD
1070
     0
  0
DICTIONARY
  5
17
102
{ACAD_REACTORS
330
C
102
}
330
C
100
AcDbDictionary
  3
STANDARD
350
18
1001
ACAD
1000
TREAT_AS_HARD
1070
     0
  0
DICTIONARY
  5
19
102
{ACAD_REACTORS
330
C
102
}
330
C
100
AcDbDictionary
1001
ACAD
1000
TREAT_AS_HARD
1070
     0
  0
XRECORD
  5
47
102
{ACAD_REACTORS
330
46
102
}
330
46
100
AcDbXrecord
340
1F
  0
XRECORD
  5
45
102
{ACAD_REACTORS
330
44
102
}
330
44
100
AcDbXrecord
340
1B
  0
MLINESTYLE
  5
18
102
{ACAD_REACTORS
330
17
102
}
330
17
100
AcDbMlineStyle
  2
STANDARD
 70
     0
  3

 62
   256
 51
90.0
 52
90.0
 71
     2
 49
0.5
 62
   256
  6
BYLAYER
 49
-0.5
 62
   256
  6
BYLAYER
  0
ENDSEC
  0
EOF
