<?xml version="1.0" encoding="UTF-8" standalone="no"?>
<!-- Created with Inkscape (http://www.inkscape.org/) -->

<svg
   xmlns:dc="http://purl.org/dc/elements/1.1/"
   xmlns:cc="http://creativecommons.org/ns#"
   xmlns:rdf="http://www.w3.org/1999/02/22-rdf-syntax-ns#"
   xmlns:svg="http://www.w3.org/2000/svg"
   xmlns="http://www.w3.org/2000/svg"
   version="1.1"
   width="640"
   height="480"
   id="svg2985">
  <metadata
     id="metadata2991">
    <rdf:RDF>
      <cc:Work
         rdf:about="">
        <dc:format>image/svg+xml</dc:format>
        <dc:type
           rdf:resource="http://purl.org/dc/dcmitype/StillImage" />
        <dc:title></dc:title>
      </cc:Work>
    </rdf:RDF>
  </metadata>
  <defs
     id="defs2989" />
  <path
     d="m 7.7366851,472.46546 c -1.7875,-0.22182 -3.25,-0.88891 -3.25,-1.48241 0,-0.72763 2.03571,-0.86354 6.2499999,-0.41728 3.4375,0.364 14.35,0.93828 24.25,1.27619 9.9,0.33791 18.1875,0.77919 18.41667,0.98064 0.55481,0.4877 -41.50977,0.15873 -45.6666699,-0.35714 z m 72.7499999,-1.31464 c 0,-0.93758 2.475,-7.91572 5.5,-15.50695 3.025,-7.59124 5.5,-14.16182 5.5,-14.6013 0,-0.43947 1.15904,-3.39884 2.57563,-6.57637 5.4448,-12.21309 7.397575,-17.36971 8.152225,-21.52734 0.27453,-1.5125 0.93022,-2.75 1.45708,-2.75 2.15853,0 4.0878,-3.33435 4.0878,-7.06494 0,-2.62901 0.44626,-3.93506 1.34458,-3.93506 0.73952,0 1.61474,-1.2375 1.94492,-2.75 1.15595,-5.29513 2.61758,-8.06376 4.51965,-8.56116 1.26886,-0.33182 1.91812,-1.37951 1.91812,-3.09522 0,-2.3979 0.33151,-2.59362 4.39301,-2.59362 4.78935,0 5.60699,-0.90726 5.60699,-6.22154 0,-3.15632 2.24624,-5.68985 5.09501,-5.74666 0.87726,-0.0175 2.35581,-0.87247 3.28566,-1.89995 1.61317,-1.78253 1.57419,-1.84588 -0.85076,-1.38232 -2.75429,0.52652 -5.52991,-1.16597 -5.52991,-3.37197 0,-1.72235 4.16167,-1.81589 5.84615,-0.13141 0.68539,0.68539 0.50884,-0.23182 -0.39231,-2.03823 -1.92198,-3.8527 -1.34006,-6.20792 1.53383,-6.20792 1.61308,0 1.94002,-0.47992 1.5328,-2.25 -0.2847,-1.2375 -0.63078,-4.24404 -0.76905,-6.68121 -0.22609,-3.98481 4.3e-4,-4.49543 2.24858,-5.06879 2.20227,-0.56165 2.47055,-1.11344 2.25274,-4.63317 -0.17026,-2.75125 0.32283,-4.6075 1.58333,-5.9605 1.17874,-1.26522 1.85376,-3.55689 1.89565,-6.43562 0.0713,-4.90157 3.03073,-11.41559 6.19232,-13.63006 1.54048,-1.07899 1.87316,-2.10464 1.41908,-4.37503 -0.48819,-2.44097 -0.26141,-2.96833 1.28188,-2.98093 1.31882,-0.0108 1.50229,-0.25194 0.61852,-0.81303 -1.0017,-0.63595 -0.95903,-2.103 0.21043,-7.23468 0.8068,-3.54034 1.73011,-8.12448 2.05179,-10.18698 0.37002,-2.37239 1.12628,-3.75 2.05863,-3.75 1.11375,0 1.29971,-0.67172 0.7613,-2.75 -0.39183,-1.5125 -0.72184,-3.48637 -0.73333,-4.38639 -0.0115,-0.90001 -0.5279,-1.44183 -1.14755,-1.20405 -1.61461,0.61958 -1.59504,-8.65217 0.0217,-10.26889 0.70982,-0.70981 1.60039,-3.9006 1.97905,-7.09062 1.00498,-8.46646 2.50769,-13.52488 4.542,-15.28922 1.15672,-1.00323 2.23802,-4.31002 3.0449,-9.31188 0.68817,-4.26592 1.6374,-7.99489 2.1094,-8.2866 0.472,-0.29171 0.85818,-1.61356 0.85818,-2.93744 0,-1.32388 0.62419,-3.88482 1.38708,-5.69098 0.7629,-1.80616 4.40639,-12.50893 8.09665,-23.78393 9.07568,-27.72926 8.73616,-27 12.57011,-27 3.84891,0 23.81961,3.88576 26.05901,5.07038 0.88707,0.46925 2.17733,2.33288 2.86724,4.1414 1.72723,4.52767 3.15854,7.77972 8.26916,18.78822 4.42485,9.53131 7.99532,18.33449 9.32853,23 0.39292,1.375 1.68167,4.075 2.86389,6 2.93824,4.78432 14.98655,29.45958 17.08962,35 0.93948,2.475 2.0736,5.4 2.52028,6.5 0.44668,1.1 1.03825,3.35 1.3146,5 0.54998,3.28371 4.25253,14.81513 5.77952,18 2.79431,5.82816 4.85538,9.256 6.27259,10.43218 0.86995,0.72199 1.58172,1.88599 1.58172,2.58667 0,0.70068 1.52691,2.61461 3.39314,4.25318 1.86622,1.63857 3.68118,3.88679 4.03325,4.99604 0.35206,1.10926 1.97515,2.56983 3.60686,3.2457 1.63171,0.67588 2.96675,1.57983 2.96675,2.00877 0,0.42895 1.4914,1.65986 3.31423,2.73535 2.1369,1.2608 3.6616,3.16088 4.29207,5.34878 0.81648,2.83338 1.39227,3.34451 3.48931,3.09751 1.54852,-0.1824 3.22136,0.48859 4.36292,1.75 1.0183,1.1252 2.45012,2.04582 3.18184,2.04582 0.73172,0 4.14947,1.40627 7.59501,3.12505 7.47597,3.72931 9.17587,4.43658 13.76462,5.72698 1.925,0.54132 6.425,1.92562 10,3.07622 3.575,1.1506 8.92631,2.08744 11.89171,2.08187 4.6902,-0.009 5.7637,0.37907 8.25,2.98078 1.5721,1.64499 2.8583,3.44108 2.8583,3.9913 0,0.55022 1.2992,2.24182 2.8871,3.7591 2.1298,2.03502 3.8909,2.75571 6.7135,2.74729 3.5708,-0.0107 3.8287,-0.211 3.8628,-3 0.034,-2.7419 0.3255,-2.98859 3.5366,-2.98859 3.1459,0 3.5044,0.27987 3.5439,2.76617 0.024,1.5214 0.9242,3.61187 2,4.6455 3.6719,3.52781 5.7202,3.37159 11.8202,-0.90151 5.682,-3.98022 10.7841,-5.19744 12.1978,-2.91004 0.4465,0.72247 2.5446,0.86714 6.1119,0.42144 3.5257,-0.44052 5.9094,-0.28245 6.7925,0.45045 1.7751,1.47321 11.2703,2.26322 12.0494,1.00252 1.0459,-1.69231 4.4821,-1.1021 4.5147,0.77547 0.029,1.66667 0.079,1.66667 1.0497,0 1.0636,-1.82619 4.412,-2.38086 5.337,-0.88411 0.2943,0.47624 1.6709,0.64878 3.059,0.38342 1.9884,-0.3801 2.5239,-0.0758 2.5239,1.43411 0,1.05412 -0.4295,2.34408 -0.9544,2.86658 -0.6031,0.6003 1.4932,0.82339 5.6947,0.60605 4.9482,-0.25596 6.9192,0.0254 7.7049,1.09988 0.5806,0.7941 2.453,1.6489 4.1608,1.89955 2.5391,0.37266 3.0247,0.1483 2.664,-1.23081 -0.3603,-1.37807 0.3263,-1.69713 3.7541,-1.74444 3.338,-0.0461 4.2987,0.33821 4.7021,1.88094 0.5945,2.2731 3.2738,2.63225 3.2738,0.43883 0,-0.83333 0.8889,-1.5 2,-1.5 2.1885,0 2.7565,2.52806 0.75,3.33772 -0.9013,0.36368 -0.9178,0.52641 -0.059,0.58333 0.655,0.0434 1.4691,-0.37105 1.809,-0.92105 0.7663,-1.23986 5.5,-1.33195 5.5,-0.10699 0,1.49261 3.1672,2.21311 4.5788,1.04162 0.7289,-0.60492 2.2468,-0.80736 3.3732,-0.44986 2.1944,0.69647 2.7807,3.9444 0.9196,5.0946 -0.7631,0.47163 -0.5701,1.00986 0.5964,1.66264 1.1506,0.64392 2.0921,0.59786 2.8284,-0.13839 0.6069,-0.60699 2.1386,-1.10362 3.4036,-1.10362 1.265,0 2.3,-0.45 2.3,-1 0,-1.11241 2.9801,-1.32857 5.4182,-0.39301 0.87,0.33384 1.5818,1.43216 1.5818,2.4407 0,1.6815 0.2282,1.71464 2.75,0.39917 3.8485,-2.00759 7.1433,-1.79654 9.0897,0.58225 1.7405,2.12713 5.6156,2.66295 10.4103,1.43947 2.0896,-0.53322 2.75,-0.34154 2.75,0.79821 0,2.31378 3.5103,2.7469 4.8519,0.59866 1.3544,-2.16863 4.6893,-2.46795 5.8484,-0.52492 0.9461,1.58604 5.0731,2.80668 5.5017,1.62725 0.1639,-0.45095 1.5355,-1.12696 3.048,-1.50225 2.1429,-0.53173 2.75,-0.32732 2.75,0.92606 0,0.88463 -0.4359,1.60841 -0.9687,1.60841 -0.5327,0 -0.6812,0.74882 -0.33,1.66404 0.4636,1.20826 0.2758,1.43984 -0.6859,0.8455 -0.8878,-0.54871 -1.0859,-0.43258 -0.6008,0.35226 0.3979,0.64395 1.1769,0.89063 1.7311,0.54816 1.0513,-0.64975 4.8543,2.82209 4.8543,4.4316 0,0.50885 0.8071,1.13625 1.7936,1.39423 3.2364,0.84634 13.9196,8.22047 14.8228,10.23155 0.486,1.08203 1.886,2.20703 3.1113,2.5 1.2252,0.29296 3.0824,1.26834 4.1269,2.16751 1.1659,1.00358 2.9121,1.44123 4.5223,1.13342 2.3458,-0.44842 2.6231,-0.19312 2.6231,2.41515 0,1.60412 -0.5625,3.48842 -1.25,4.18734 -1.0079,1.02459 -0.7173,1.1392 1.5,0.59159 2.4757,-0.61142 2.75,-0.41652 2.75,1.95399 0,1.95756 0.7055,2.89597 2.75,3.65746 6.1653,2.2964 8.25,3.47654 8.25,4.67031 0,0.69074 0.6539,1.25589 1.453,1.25589 0.7992,0 2.2005,1.575 3.114,3.5 0.9135,1.925 2.0596,3.5 2.5469,3.5 0.4873,0 0.8861,0.99 0.8861,2.2 0,1.71111 0.2666,1.93333 1.2,1 0.66,-0.66 2.235,-1.2 3.5,-1.2 1.8037,0 2.3,0.55487 2.3,2.57143 0,1.41428 0.6971,3.26853 1.5491,4.12053 0.852,0.85201 1.8202,2.90485 2.1516,4.56185 0.3317,1.65853 1.3797,3.21597 2.3314,3.46485 2.2971,0.60069 3.8292,12.11929 1.7845,13.41585 -0.9833,0.62351 -0.855,0.83874 0.5067,0.85018 2.8302,0.0238 1.6217,3.46297 -1.3336,3.79526 -5.1902,0.5836 -6.9897,1.30722 -6.9897,2.81067 0,1.0236 -0.7666,1.46023 -2.25,1.28164 -1.2375,-0.14898 -3.2889,0.29878 -4.5587,0.99501 -1.2853,0.70479 -3.5417,0.99504 -5.0906,0.65485 -1.8849,-0.41399 -3.1954,-0.11298 -4.0638,0.93342 -1.1093,1.33653 -0.8615,1.54446 1.8406,1.54446 2.1555,0 3.1225,0.48068 3.1225,1.55217 0,1.33037 -1.2503,1.46637 -8.75,0.95173 -13.4045,-0.91982 -15.4243,-1.3603 -15.0541,-3.28295 0.2588,-1.34374 1.7663,-1.72202 7.8124,-1.96035 4.128,-0.16273 8.9979,-1.00437 10.8463,-1.87454 1.8451,-0.86856 4.4433,-1.3711 5.7739,-1.11674 1.3305,0.25435 2.66,0.0728 2.9543,-0.40343 0.2944,-0.47624 1.4408,-0.86589 2.5476,-0.86589 1.1068,0 2.6874,-0.675 3.5124,-1.5 0.825,-0.825 2.3765,-1.5 3.4476,-1.5 1.5545,0 1.8265,-0.48269 1.3476,-2.39091 -0.3301,-1.31499 -0.1559,-2.66544 0.3871,-3.00099 0.5429,-0.33555 0.7519,-1.50964 0.4644,-2.6091 -0.2922,-1.1173 -0.03,-1.999 0.5938,-1.999 2.0213,0 1.1638,-3.50478 -1.104,-4.51287 -1.3438,-0.5973 -2.4731,-2.24336 -2.8596,-4.16815 -0.3514,-1.74956 -1.412,-3.95415 -2.357,-4.89908 -0.9902,-0.99024 -1.497,-2.56317 -1.1963,-3.71303 0.3916,-1.49744 0.2363,-1.70965 -0.6224,-0.85092 -1.6957,1.69567 -6.744,1.45227 -6.744,-0.32516 0,-2.93185 -4.185,-9.53079 -6.0443,-9.53079 -1.0133,0 -2.5513,-1.0125 -3.4177,-2.25 -0.8665,-1.2375 -3.0295,-2.73784 -4.8067,-3.3341 -2.1061,-0.70658 -3.3426,-1.83831 -3.5509,-3.25 -0.2655,-1.79963 -0.9842,-2.1659 -4.25,-2.1659 -3.2798,0 -3.9304,-0.33518 -3.9304,-2.02475 0,-1.25896 1.0401,-2.46657 2.75,-3.19292 l 2.75,-1.16818 -2.8246,-0.38069 c -1.5535,-0.20938 -3.701,-1.13506 -4.7723,-2.05708 -1.0712,-0.92201 -2.9502,-1.91608 -4.1754,-2.20904 -1.2253,-0.29297 -2.6253,-1.41797 -3.1113,-2.5 -0.9032,-2.01108 -11.5864,-9.38521 -14.8228,-10.23155 -0.9865,-0.25798 -1.7936,-1.08032 -1.7936,-1.82742 0,-0.97597 -0.8446,-1.18946 -3,-0.75837 -2.3488,0.46974 -3,0.24722 -3,-1.025 0,-0.89375 -0.45,-1.625 -1,-1.625 -0.55,0 -1.0356,-1.0125 -1.079,-2.25 -0.043,-1.2375 -0.3059,-1.6875 -0.5833,-1 -0.8021,1.98782 -2.5881,1.46641 -5.1368,-1.49965 -2.2765,-2.64938 -2.4133,-2.68047 -3.75,-0.85242 -1.2126,1.65843 -2.2319,1.81835 -8.0982,1.27055 -3.691,-0.34467 -7.1703,-1.08608 -7.7318,-1.64758 -0.5615,-0.56149 -1.8054,-1.0209 -2.7642,-1.0209 -0.9588,0 -2.409,-0.95035 -3.2226,-2.11189 -1.3937,-1.98989 -1.6564,-2.02349 -4.5466,-0.58167 -1.6871,0.84163 -4.4838,1.84133 -6.215,2.22156 -2.9849,0.65559 -3.1216,0.5552 -2.6442,-1.9422 0.2769,-1.44845 0.1138,-2.87435 -0.3624,-3.16868 -0.4763,-0.29434 -0.8659,-0.0586 -0.8659,0.52386 0,0.58246 -1.0985,1.05902 -2.441,1.05902 -1.3426,0 -2.7191,0.45 -3.059,1 -0.7597,1.22914 -5.4976,1.28754 -7.3869,0.091 -0.8427,-0.53361 -1.1947,-1.88413 -0.897,-3.4412 0.4384,-2.2937 0.2821,-2.4517 -1.4881,-1.50429 -2.1055,1.12687 -6.728,-0.54748 -6.728,-2.43693 0,-0.52441 -0.6617,-0.40431 -1.4705,0.26688 -0.9976,0.82794 -3.0877,0.99791 -6.5,0.52861 -4.225,-0.58109 -5.0295,-0.43679 -5.0295,0.90209 0,2.02866 -1.294,2.01205 -5.2997,-0.0681 -1.7602,-0.91404 -4.5062,-1.76709 -6.1022,-1.89567 -1.596,-0.12858 -3.3073,-0.95833 -3.8029,-1.84388 -0.5521,-0.98658 -1.7519,-1.43654 -3.0982,-1.16194 -8.4915,1.7321 -9.5093,1.66021 -12.0183,-0.84882 -1.3608,-1.36078 -2.7452,-3.06222 -3.0765,-3.78097 -0.4738,-1.02803 -0.7267,-1.04015 -1.1856,-0.0568 -0.6195,1.3276 -5.4181,1.77072 -5.4145,0.5 0.001,-0.4125 -2.8849,-0.60083 -6.4135,-0.4185 -3.9797,0.20563 -7.3027,-0.16029 -8.7521,-0.96374 -1.3194,-0.73141 -4.5689,-1.16541 -7.4648,-0.99701 -2.8206,0.16403 -5.9908,-0.24041 -7.045,-0.89877 -1.6399,-1.02416 -2.7766,-0.5913 -7.8717,2.99776 -5.1377,3.61901 -6.4832,4.1261 -9.8033,3.69449 -2.1166,-0.27516 -4.8166,-1.39377 -6,-2.4858 -1.8442,-1.70171 -3.1523,-1.91746 -9.1517,-1.50939 -6.2799,0.42714 -7.2677,0.23719 -9.6019,-1.84646 -1.4311,-1.27742 -3.3734,-3.82053 -4.3164,-5.65136 -1.9916,-3.86657 -6.6742,-6.1712 -12.5389,-6.1712 -2.21175,0 -6.34613,-0.88334 -9.1875,-1.96297 -2.84137,-1.07964 -5.58451,-1.70441 -6.09586,-1.38838 -0.51134,0.31603 -2.35391,-0.10325 -4.0946,-0.93174 -1.74068,-0.8285 -4.28987,-1.94746 -5.66487,-2.48658 -1.375,-0.53913 -5.31908,-2.38651 -8.76462,-4.10528 -3.44554,-1.71878 -6.87794,-3.12505 -7.62755,-3.12505 -0.74962,0 -1.90155,-0.64899 -2.55986,-1.4422 -0.6583,-0.7932 -2.61171,-1.5807 -4.3409,-1.75 -2.61306,-0.25582 -3.30734,-0.88084 -4.11129,-3.70113 -0.62588,-2.19559 -2.13714,-4.08355 -4.28155,-5.34878 -1.82283,-1.07549 -3.31423,-2.3064 -3.31423,-2.73535 0,-0.42894 -1.33504,-1.33289 -2.96675,-2.00877 -1.63171,-0.67587 -3.2548,-2.13644 -3.60686,-3.2457 -0.35207,-1.10925 -2.16703,-3.35747 -4.03325,-4.99604 -1.86623,-1.63857 -3.39314,-3.5525 -3.39314,-4.25318 0,-0.70068 -0.71177,-1.86468 -1.58172,-2.58667 -1.41721,-1.17618 -3.47828,-4.60402 -6.27259,-10.43218 -1.52699,-3.18487 -5.22954,-14.71629 -5.77952,-18 -0.27635,-1.65 -0.86792,-3.9 -1.3146,-5 -0.44668,-1.1 -1.5808,-4.025 -2.52028,-6.5 -2.10307,-5.54042 -14.15138,-30.21568 -17.08962,-35 -1.18222,-1.925 -2.47097,-4.625 -2.86389,-6 -1.33321,-4.66551 -4.90368,-13.46869 -9.32853,-23 -5.11062,-11.0085 -6.54193,-14.26055 -8.26916,-18.78822 -0.68991,-1.80852 -1.98017,-3.67435 -2.86724,-4.14629 -0.88707,-0.47194 -6.74936,-1.86564 -13.02731,-3.09711 -10.07928,-1.97714 -11.54301,-2.06324 -12.51342,-0.73612 -0.60443,0.8266 -4.40646,11.575 -8.44895,23.88533 -4.0425,12.31032 -7.97396,23.86018 -8.73658,25.66634 -0.76263,1.80616 -1.38659,4.30366 -1.38659,5.55 0,1.24634 -0.43607,2.70214 -0.96904,3.23511 -0.53298,0.53298 -1.20934,4.09732 -1.50302,7.92076 -0.44567,5.80201 -0.94694,7.30656 -3.03096,9.09731 -1.67496,1.43925 -2.49698,3.17721 -2.49698,5.27924 0,1.72351 -0.39758,3.13365 -0.8835,3.13365 -0.48593,0 -1.19719,2.92912 -1.58058,6.50914 -0.38338,3.58003 -1.25947,7.07155 -1.94685,7.75893 -1.25416,1.25417 -0.98412,3.77318 0.51025,4.75966 0.43969,0.29025 1.10936,3.55275 1.48815,7.25 0.57913,5.65261 0.44662,6.72227 -0.83274,6.72227 -2.03468,0 -2.7236,3.00986 -2.74665,12 -0.0234,9.12963 -1.35501,14.31762 -4.29252,16.72395 -3.45567,2.83078 -5.64981,7.56923 -6.05845,13.08375 -0.21608,2.91593 -1.06848,5.74653 -2.01576,6.6938 -1.80048,1.80049 -2.23182,5.4985 -0.64135,5.4985 1.62963,0 1.14087,2.56254 -0.82874,4.34501 -1.00581,0.91025 -2.46831,1.65523 -3.25,1.65553 -0.98961,3.8e-4 -1.39724,1.13928 -1.34217,3.75 0.11878,5.63107 0.29827,6.24946 1.81392,6.24946 1.33746,0 2.60699,2.03886 2.60699,4.18682 0,0.5907 -1.69088,0.862 -4,0.64179 -4.4186,-0.42138 -5.18805,1.01655 -2.4682,4.61252 2.93032,3.87423 0.56165,9.55887 -3.98299,9.55887 -1.47405,0 -1.57378,0.26499 -0.55959,1.48701 1.75703,2.11709 0.44704,6.51299 -1.94088,6.51299 -1.05246,0 -2.19921,0.9 -2.54834,2 -0.50629,1.59518 -1.51303,2 -4.97377,2 -3.70349,0 -4.26929,0.26654 -3.86309,1.81986 0.26175,1.00092 -0.23038,2.40602 -1.09362,3.12244 -0.86323,0.71642 -1.56952,1.92689 -1.56952,2.68993 0,0.76304 -0.9,2.15795 -2,3.0998 -2.11107,1.80756 -2.68756,4.26797 -1,4.26797 2.23429,0 0.91668,3.8041 -1.53033,4.41826 -1.78426,0.44782 -2.70568,1.51177 -3.125,3.60841 -0.32707,1.63533 -0.98842,2.97333 -1.46967,2.97333 -0.48125,0 -0.875,0.9 -0.875,2 0,1.1 -0.36714,2 -0.81586,2 -1.3425,0 -4.88791,7.21016 -5.65369,11.49771 -0.39271,2.19874 -1.035285,4.22374 -1.427935,4.5 -1.03539,0.72847 -4.64154,8.75213 -7.48563,16.65547 -1.35514,3.76575 -4.04289,10.78432 -5.97279,15.59682 -3.24989,8.10409 -3.36626,8.75 -1.5765,8.75 1.06282,0 1.9324,0.375 1.9324,0.83333 0,0.45834 -1.35,0.83334 -3,0.83334 -2.16011,0 -3,-0.47726 -3,-1.70471 z m 526.187535,-1.64507 c -0.7219,-0.28887 -1.5844,-0.25335 -1.9167,0.0789 -0.3323,0.33229 0.2583,0.56864 1.3125,0.52522 1.1649,-0.048 1.4019,-0.28494 0.6042,-0.60416 z M 477.48672,363.68886 c 0,-0.86218 -0.9025,-1.5 -2.1225,-1.5 -1.7732,0 -1.9176,0.2468 -0.8775,1.5 0.6847,0.825 1.6398,1.5 2.1224,1.5 0.4827,0 0.8776,-0.675 0.8776,-1.5 z M 98.027705,472.12249 c 0.7205,-1.16579 5.458985,-1.24027 5.458985,-0.0858 0,0.4663 -1.3581,0.88643 -3.018,0.93363 -1.659895,0.0472 -2.758345,-0.33433 -2.440985,-0.84782 z M 4.4866851,467.18886 c 0,-1.13481 2.86088,-1.39904 11.4999999,-1.06215 5.91647,0.23073 19.10994,-2.51748 24.74308,-5.15399 3.10914,-1.45519 5.75692,-8.64333 5.75692,-15.62875 0,-2.22039 0.39627,-4.28198 0.8806,-4.58132 1.61762,-0.99974 1.90477,-5.44217 0.38936,-6.02369 -2.61435,-1.00322 -4.03086,-0.57241 -4.54177,1.38132 -0.32716,1.25103 -1.99224,2.33187 -4.72674,3.06819 -6.3353,1.70592 -20.94224,8.34766 -27.29232,12.40976 -6.2737899,4.0133 -6.7091299,4.15818 -6.7091299,2.23277 0,-1.73385 9.3355399,-7.46004 18.9999999,-11.65414 4.125,-1.79013 7.73849,-3.62361 8.02997,-4.07439 0.29148,-0.45078 2.42898,-1.12327 4.75,-1.49442 2.32102,-0.37114 4.22003,-1.1528 4.22003,-1.73702 0,-1.88086 8.34542,-8.68217 10.65329,-8.68217 2.02968,0 2.22291,0.45773 2.119,5.01949 -0.0643,2.82425 -0.69555,5.50186 -1.44331,6.12245 -0.73094,0.60662 -1.32898,1.92129 -1.32898,2.92149 0,1.00019 -0.45,2.09665 -1,2.43657 -0.55,0.33992 -1,2.43472 -1,4.65511 0,2.22039 -0.675,6.35898 -1.49999,9.19687 -1.70457,5.86353 -2.90674,6.6538 -14.83575,9.75265 -7.85927,2.04164 -27.6642599,2.68264 -27.6642599,0.89537 z m 45.5714299,-37 c 0,-1.1 -0.11274,-2 -0.25053,-2 -0.13779,0 -0.7322,0.9 -1.3209,2 -0.81926,1.53081 -0.76049,2 0.25053,2 0.7265,0 1.3209,-0.9 1.3209,-2 z m 84.428575,-49.5 c 0,-0.825 0.675,-1.5 1.5,-1.5 0.825,0 1.5,0.675 1.5,1.5 0,0.825 -0.675,1.5 -1.5,1.5 -0.825,0 -1.5,-0.675 -1.5,-1.5 z m 393.00003,-1.5 c 0,-1.11111 0.6666,-2 1.5,-2 0.8333,0 1.5,0.88889 1.5,2 0,1.11111 -0.6667,2 -1.5,2 -0.8334,0 -1.5,-0.88889 -1.5,-2 z m -8,-2 c 0,-1.11111 0.6666,-2 1.5,-2 0.8333,0 1.5,0.88889 1.5,2 0,1.11111 -0.6667,2 -1.5,2 -0.8334,0 -1.5,-0.88889 -1.5,-2 z m 46,-3.5 c 0,-0.825 0.675,-1.5 1.5,-1.5 0.825,0 1.5,0.675 1.5,1.5 0,0.825 -0.675,1.5 -1.5,1.5 -0.825,0 -1.5,-0.675 -1.5,-1.5 z m -179,-33 c 0,-0.825 0.675,-1.5 1.5,-1.5 0.825,0 1.5,0.675 1.5,1.5 0,0.825 -0.675,1.5 -1.5,1.5 -0.825,0 -1.5,-0.675 -1.5,-1.5 z m -4.5774,-3.62512 c -0.3366,-0.5447 -3.6069,-0.94154 -7.2673,-0.88186 -3.6605,0.0597 -7.5553,0.0873 -8.6553,0.0614 -1.1,-0.0259 -4.2028,0.22673 -6.895,0.56146 -6.897,0.85748 -12.60503,-1.13021 -12.60503,-4.38944 0,-2.11267 0.3852,-2.3969 2.77343,-2.04639 2.4096,0.35365 2.7703,0.0765 2.75,-2.11298 -0.019,-2.02225 0.5692,-2.62538 2.9766,-3.05337 4.3729,-0.77742 4.1438,-4.19778 -0.3427,-5.11535 -1.8384,-0.37601 -3.8107,-1.15171 -4.3828,-1.72378 -1.5513,-1.5513 -0.2146,-3.97114 2.4143,-4.37075 1.3644,-0.2074 2.1832,-0.93043 1.9987,-1.76506 -1.073,-4.85421 -1.1291,-6.70806 -0.2431,-8.03876 1.3196,-1.98205 4.4263,-0.1645 4.8751,2.85213 0.2262,1.52035 1.0296,2.14787 2.75,2.14787 1.3368,0 2.4305,0.37206 2.4305,0.82681 0,0.45474 1.35,0.62867 3,0.3865 1.65,-0.24217 3,-0.83923 3,-1.32681 0,-0.48757 0.675,-0.8865 1.5,-0.8865 0.825,0 1.5,-0.4132 1.5,-0.91821 0,-0.50502 0.2731,-1.63002 0.607,-2.5 0.4351,-1.13395 0.01,-1.58179 -1.5,-1.58179 -3.821,0 -2.3034,-2.71299 1.893,-3.38401 2.2,-0.35179 4,-1.08431 4,-1.62781 0,-0.5435 0.7237,-0.98818 1.6084,-0.98818 1.1957,0 1.4548,0.61209 1.0096,2.38588 -0.667,2.6573 1.6408,3.94197 6.5452,3.64361 1.5875,-0.0966 3.0437,0.51792 3.6053,1.52131 0.8221,1.46916 1.3816,1.52437 4.397,0.43397 3.1563,-1.14131 3.8157,-1.0217 7.6249,1.38294 2.2934,1.44776 5.5288,2.63229 7.1897,2.63229 2.3532,0 3.0199,0.44152 3.0199,2 0,1.11111 0.6666,2 1.5,2 1.6139,0 1.8532,0.91589 0.893,3.41821 -0.7791,2.03021 -5.9828,2.09322 -6.7547,0.0818 -0.405,-1.05557 -2.0516,-1.5 -5.5573,-1.5 -3.0676,0 -5.2889,-0.50925 -5.7813,-1.32541 -0.4399,-0.72898 -1.5543,-1.6022 -2.4765,-1.9405 -2.0315,-0.74524 -6.8046,1.30853 -6.8154,2.93258 0,0.64166 -0.5703,1.39364 -1.2578,1.67105 -1.1587,0.46753 8.2089,1.09796 10.9887,0.73952 0.6812,-0.0878 2.2079,0.35901 3.3925,0.99302 1.1847,0.634 4.9952,1.13634 8.4678,1.11631 5.4535,-0.0315 6.4004,0.23615 6.9487,1.96386 0.8056,2.53821 0.5024,2.8049 -4.0239,3.53942 -2.6228,0.42562 -3.9776,0.19398 -4.5816,-0.78336 -0.7162,-1.15873 -1.358,-1.09213 -3.8902,0.40368 -4.3934,2.59526 -14.0299,1.43919 -17.5779,-2.10877 -1.4688,-1.46883 -2.2814,-1.86263 -1.9245,-0.93274 0.4739,1.23512 -0.2158,1.76568 -2.9661,2.28164 -3.4783,0.65255 -4.7135,2.63332 -2.4964,4.00354 0.5979,0.36953 0.8744,1.48523 0.6144,2.47934 -0.747,2.85671 3.7708,3.47871 7.2538,0.99865 3.023,-2.15262 4.8764,-2.41547 9.9197,-1.40683 3.1723,0.63446 4.4334,3.375 1.553,3.375 -0.8645,0 -3.452,1.07403 -5.75,2.38673 -4.3047,2.45907 -10.1756,3.2353 -11.2554,1.48815 z m -27.4226,-2.87488 c 0,-0.55 -0.7875,-0.99311 -1.75,-0.98469 -1.4956,0.0131 -1.5319,0.15626 -0.25,0.98469 1.8872,1.21961 2,1.21961 2,0 z m 39.4677,-2.86561 c -0.6763,-0.67629 -5.4677,2.0325 -5.4677,3.09113 0,0.48815 1.3361,0.0983 2.9692,-0.86642 1.6331,-0.96468 2.7574,-1.9658 2.4985,-2.22471 z m -16.4814,1.16498 c -0.026,-3.40429 -1.2221,-6.29937 -2.603,-6.29937 -0.7608,0 -1.3833,-0.45 -1.3833,-1 0,-0.55 -0.675,-1 -1.5,-1 -0.825,0 -1.5,-0.675 -1.5,-1.5 0,-1.8106 2.6457,-2.01155 3.2916,-0.25 0.3667,1 0.7234,1 1.7834,0 0.7287,-0.6875 2.36,-1.25 3.625,-1.25 1.3777,0 2.3,-0.60145 2.3,-1.5 0,-0.825 0.7875,-1.51368 1.75,-1.53041 1.5558,-0.027 1.534,-0.15569 -0.1968,-1.15979 -1.4571,-0.84532 -2.0439,-0.83767 -2.3333,0.0304 -0.6452,1.93565 -3.5087,1.37118 -2.994,-0.59021 0.4102,-1.56355 -0.3165,-1.7248 -6.8203,-1.51352 -6.4971,0.21107 -7.3472,0.023 -7.9099,-1.75 -0.4015,-1.26477 -1.5143,-1.98647 -3.0631,-1.98647 -3.0588,0 -3.129,1.88657 -0.2823,7.58656 2.0286,4.06185 2.0569,4.44823 0.5,6.82435 -2.2782,3.47703 -2.0712,5.00997 0.3497,2.58909 2.8882,-2.88823 6,-2.6388 6,0.48095 0,1.81235 -0.6738,2.65004 -2.5,3.10841 -4.5252,1.13575 -2.6053,1.9061 5.5079,2.21001 7.1433,0.26758 7.9906,0.10828 7.9784,-1.5 z m -18.9863,0.30762 c 0,-0.21616 -0.6984,-0.661 -1.552,-0.98855 -0.8899,-0.34149 -1.2913,-0.17385 -0.941,0.39301 0.5873,0.95021 2.493,1.40545 2.493,0.59554 z m 43.5023,-9.98504 c 1.7655,-1.29095 1.6763,-1.42379 -1.4101,-2.1017 -1.8122,-0.39801 -5.542,-0.82462 -8.2887,-0.94802 -4.9823,-0.22385 -4.9884,-0.22028 -2.6487,1.55169 1.2899,0.97683 3.9202,1.94792 5.8452,2.15797 1.925,0.21005 3.7515,0.45755 4.0588,0.55001 0.3074,0.0924 1.407,-0.45202 2.4435,-1.20995 z m 11.4977,-0.62195 c 0.825,-0.53316 1.05,-0.96937 0.5,-0.96937 -0.55,0 -1.675,0.43621 -2.5,0.96937 -0.825,0.53316 -1.05,0.96937 -0.5,0.96937 0.55,0 1.675,-0.43621 2.5,-0.96937 z m -27.35,-12 c 0.3319,-1.65971 1.2406,-3 2.034,-3 0.7887,0 1.182,-0.40775 0.874,-0.90612 -0.308,-0.49837 -1.4386,-0.67637 -2.5124,-0.39555 -2.4853,0.64991 -8.0456,-1.76994 -8.0456,-3.50146 0,-2.83397 -1.773,-0.0179 -2.3805,3.78097 -0.4633,2.89752 -1.1292,4.02644 -2.3814,4.03747 -1.492,0.0131 -1.5258,0.15624 -0.2381,1.01062 0.825,0.54741 3.1413,0.73377 5.1473,0.41412 2.143,-0.34145 3.9203,-0.1396 4.3091,0.48939 1.2038,1.94789 2.585,1.11345 3.1936,-1.92944 z m 19.2952,1.43406 c -2.5212,-3.03796 -6.747,-4.54353 -10.199,-3.63378 l -3.2462,0.85553 3.6534,0.69929 c 2.0094,0.38462 3.9078,1.36206 4.2186,2.1721 0.3324,0.86627 1.864,1.4728 3.719,1.4728 2.7491,0 2.9871,-0.20098 1.8542,-1.56594 z m 6.0548,0.56594 c 0,-0.55 -0.45,-1 -1,-1 -0.55,0 -1,0.45 -1,1 0,0.55 0.45,1 1,1 0.55,0 1,-0.45 1,-1 z m -72.00003,18.5 c 0,-0.83333 0.88889,-1.5 2,-1.5 1.11111,0 2,0.66667 2,1.5 0,0.83333 -0.88889,1.5 -2,1.5 -1.11111,0 -2,-0.66667 -2,-1.5 z m -8.9682,-2.75 c 0.0501,-1.97059 2.53502,-4.75 4.24666,-4.75 4.58856,0 6.31571,3.07646 2.78728,4.96482 -2.67738,1.43289 -7.07244,1.29866 -7.03394,-0.21482 z m 87.96823,-6.25 c 0,-0.825 0.675,-1.5 1.5,-1.5 0.825,0 1.5,0.675 1.5,1.5 0,0.825 -0.675,1.5 -1.5,1.5 -0.825,0 -1.5,-0.675 -1.5,-1.5 z m 6.3603,-1.00335 c -0.886,-2.30885 0.9106,-3.70847 4.2678,-3.32483 2.0958,0.2395 2.8719,0.86864 2.8719,2.32818 0,2.64994 -6.1745,3.51186 -7.1397,0.99665 z m -2.3603,-9.4776 c 0,-2.45278 4.3581,-3.79662 6.513,-2.00827 2.7934,2.31835 1.7408,3.98922 -2.513,3.98922 -3.3205,0 -4,-0.33651 -4,-1.98095 z m 117,-12.89124 c 0,-1.96811 -0.5263,-2.12781 -7.0119,-2.12781 l -7.0118,0 0.6448,-4.25 c 0.3547,-2.3375 1.26,-4.96043 2.0118,-5.82874 0.7519,-0.86831 1.3671,-2.23928 1.3671,-3.04661 0,-0.80733 0.7875,-2.52101 1.75,-3.80818 2.867,-3.83413 10.8704,-12.06647 11.7309,-12.06647 0.4392,0 1.3843,-0.7875 2.1003,-1.75 1.0242,-1.377 1.6839,-1.51567 3.095,-0.6506 2.4492,1.50145 4.6614,9.26386 3.4278,12.02793 -1.099,2.4627 0.267,4.37267 3.1273,4.37267 2.8658,0 3.4787,3.11663 0.9438,4.79968 -1.1963,0.79434 -2.1751,2.48782 -2.1751,3.76328 0,1.27545 -0.45,2.59712 -1,2.93704 -0.55,0.33992 -1,1.47564 -1,2.52383 0,2.30992 -2.3841,3.69414 -7.8748,4.57213 -3.7478,0.59931 -4.1252,0.465 -4.1252,-1.46815 z m 10,-4.96299 c 0,-0.97065 0.3905,-2.19232 0.8677,-2.71482 0.4773,-0.5225 1.135,-2.38242 1.4617,-4.13317 0.5256,-2.81743 0.2536,-3.33378 -2.3678,-4.49411 -2.7549,-1.21945 -4.1367,-3.82272 -2.029,-3.82272 1.4596,0 2.2829,-3.74199 1.5538,-7.06189 -0.5554,-2.52846 -1.0127,-2.90886 -2.8245,-2.34935 -3.7526,1.15882 -14.6619,13.42998 -14.6619,16.49219 0,0.92079 -0.675,2.23436 -1.5,2.91905 -1.6745,1.38966 -2.0587,6 -0.5,6 0.55,0 1,-0.675 1,-1.5 0,-0.825 0.6891,-1.5 1.5313,-1.5 0.8423,0 1.7905,0.675 2.107,1.5 0.3408,0.88795 1.8581,1.50602 3.7187,1.51474 1.7286,0.008 4.268,0.61091 5.643,1.33955 2.9484,1.56242 6,0.44885 6,-2.18947 z m -173,-87.16482 c 0,-1.33333 0.6666,-2 2,-2 1.3333,0 2,0.66667 2,2 0,1.33333 -0.6667,2 -2,2 -1.3334,0 -2,-0.66667 -2,-2 z m -54.00003,-7.5 c 0,-0.825 0.675,-1.5 1.5,-1.5 0.825,0 1.5,0.675 1.5,1.5 0,0.825 -0.675,1.5 -1.5,1.5 -0.825,0 -1.5,-0.675 -1.5,-1.5 z m -16.75,-3.99583 c -1.6313,-1.85284 -1.57978,-3.31725 0.17857,-5.0756 1.53513,-1.53513 4.17527,-1.90113 4.89482,-0.67857 0.24278,0.4125 0.75509,2.2125 1.13847,4 0.65855,3.07047 0.54075,3.2479 -2.1324,3.21196 -1.55621,-0.0209 -3.39196,-0.67692 -4.07946,-1.45779 z m 70.40893,-2.55782 c -2.2545,-1.77335 -3.1259,-1.9106 -6.3849,-1.00558 -4.3759,1.21521 -11.273,1.40434 -11.2764,0.30923 -0.001,-0.4125 -1.3502,-2.325 -2.9976,-4.25 -1.6475,-1.925 -2.9964,-4.0625 -2.9977,-4.75 0,-1.54154 -1.239,-1.61334 -2.6957,-0.15659 -0.6014,0.60138 -2.82892,1.08238 -4.95004,1.0689 -2.12113,-0.0135 -6.21909,-0.0333 -9.10659,-0.044 -4.77153,-0.0177 -5.26057,-0.22902 -5.366,-2.3189 -0.0854,-1.69294 -0.23659,-1.83804 -0.57319,-0.55011 -0.49536,1.89536 -4.42692,3.30384 -6.74219,2.41539 -1.1101,-0.42599 -1.30574,-1.81167 -0.86233,-6.10785 l 0.57352,-5.55684 -3.27966,0 c -3.63487,0 -5.91816,2.19976 -5.96835,5.75 -0.0267,1.89125 -0.58045,2.25 -3.47278,2.25 -1.89254,0 -3.68757,-0.39899 -3.98896,-0.88664 -0.30138,-0.48765 -2.12794,-1.18304 -4.05901,-1.54531 -3.03857,-0.57004 -3.51105,-1.04189 -3.51105,-3.50637 0,-1.6088 -0.65258,-3.09812 -1.5,-3.42331 -0.825,-0.31658 -1.5,-0.13972 -1.5,0.39301 0,0.53274 0.45,0.96862 1,0.96862 1.61404,0 1.14594,2.73002 -0.58179,3.39301 -3.47,1.33157 -5.41821,0.6672 -5.41821,-1.8477 0,-1.98751 -0.63089,-2.57304 -3.31488,-3.07656 -1.82318,-0.34203 -4.73325,-0.24992 -6.46682,0.20469 -4.46268,1.17029 -2.74728,3.27489 3.3784,4.1449 l 4.9033,0.6964 0.31423,4.38048 0.31424,4.38047 -3.26616,-0.65323 c -3.86585,-0.77317 -7.86231,-4.22801 -7.86231,-6.79677 0,-1.19482 -0.7343,-1.82569 -2.125,-1.82569 -1.82778,0 -2.04108,-0.41961 -1.525,-3 0.33846,-1.69231 0.175,-3 -0.375,-3 -0.53625,0 -0.975,0.675 -0.975,1.5 0,2.20253 -4.38947,1.87938 -10.10822,-0.74415 -3.01132,-1.38147 -4.89178,-2.88708 -4.89178,-3.91666 0,-0.91989 -0.55721,-1.85826 -1.23824,-2.08527 -0.97812,-0.32604 -0.98263,-0.97375 -0.0214,-3.08333 1.27022,-2.78784 4.04054,-3.48973 6.00806,-1.52221 1.38942,1.38942 6.09365,1.71986 8.50162,0.59717 0.97266,-0.45349 1.75,-1.91078 1.75,-3.28073 0,-2.49585 -1.36756,-3.29714 -2.5,-1.46482 -0.33992,0.55 -2.61648,1 -5.05902,1 -3.74785,0 -4.44102,-0.30668 -4.44102,-1.96482 0,-3.14397 -3.38636,-4.37073 -5.52912,-2.003 -2.39877,2.65061 -10.8869,2.79983 -12.39078,0.21782 -0.97075,-1.66667 -1.02073,-1.66667 -1.04969,0 -0.0186,1.0732 -0.8039,1.75 -2.03041,1.75 -1.46667,0 -2,-0.66667 -2,-2.5 0,-2.32304 -3.04145,-6.49003 -4.75,-6.5078 -0.99656,-0.0104 -3.25,-4.94005 -3.25,-7.10978 0,-2.79361 -1.11533,-4.88242 -2.60699,-4.88242 -0.76615,0 -1.39301,-0.87682 -1.39301,-1.94848 0,-1.07166 -1.16509,-3.20563 -2.58909,-4.74215 -2.16005,-2.33073 -2.48951,-3.41638 -1.98818,-6.55152 0.52732,-3.29767 0.35454,-3.75785 -1.41091,-3.75785 -1.1065,0 -2.01182,-0.62686 -2.01182,-1.39301 0,-0.76616 -0.675,-1.65203 -1.5,-1.96862 -0.825,-0.31658 -1.5,-1.38148 -1.5,-2.36644 0,-0.98496 -0.87984,-2.3403 -1.9552,-3.01188 -1.66809,-1.04174 -1.86763,-1.96036 -1.35889,-6.25588 0.4691,-3.960798 0.22699,-5.442928 -1.13494,-6.947848 -1.06602,-1.17794 -1.48896,-2.67635 -1.1007,-3.899646 0.44387,-1.39849 -0.0476,-2.46166 -1.65986,-3.59107 -2.07464,-1.45326 -2.29296,-2.39802 -2.31751,-10.02877 -0.0149,-4.63341 -0.35241,-8.74968 -0.75,-9.14727 -0.3976,-0.39759 -0.7229,-1.5479 -0.7229,-2.55623 0,-1.00833 -0.45,-1.83333 -1,-1.83333 -0.55,0 -1,-0.9 -1,-2 0,-1.1 0.5034,-2 1.11866,-2 0.61526,0 -0.28474,-1.43543 -2,-3.18984 -3.26191,-3.33636 -3.75279,-4.77397 -2.17173,-6.36016 0.59612,-0.59806 0.35298,-2.75221 -0.6563,-5.8147 -1.49405,-4.53341 -1.48206,-5.20167 0.17605,-9.81272 1.32631,-3.68834 1.58659,-6.14131 1.02236,-9.6353 -0.4163,-2.57801 -0.86243,-6.93728 -0.99138,-9.68728 -0.12896,-2.75 -0.55334,-5.7523404 -0.94307,-6.6718604 -0.38973,-0.91953 -0.22395,-2.57744 0.36841,-3.68426 0.59235,-1.10682 1.077,-2.92615002 1.077,-4.04295982 0,-1.72917998 2.56453,-4.10092398 4.43426,-4.10092398 1.17713,0 0.50179,2.326274 -0.99256,3.418974 -1.95171,1.42711978 -2.31813,15.4651402 -0.61086,23.4028702 0.97822,4.54808 0.87991,6.106 -0.67615,10.7152 -1.59876,4.7357 -1.65693,5.85486 -0.47707,9.17815 0.73904,2.08165 1.24034,4.93532 1.11401,6.34151 -0.13573,1.51065 0.67819,3.53122 1.98933,4.93856 1.46242,1.56972 2.21904,3.64246 2.21904,6.07899 0,2.03342 0.67223,4.98607 1.49384,6.56144 1.77907,3.4112 1.92333,5.98845 0.38831,6.93714 -1.81111,1.11933 -0.21511,9.50565 2.12032,11.14145 1.17126,0.82038 1.99753,2.53387 1.99753,4.14242 0,1.508806 0.43851,3.181806 0.97447,3.717766 0.53596,0.53596 1.12987,3.63643 1.31981,6.88994 0.19697,3.373948 0.8524,6.084478 1.52553,6.308858 0.64911,0.21637 1.18019,1.27886 1.18019,2.36109 0,1.31121 1.192,2.46574 3.57283,3.46052 3.43214,1.43404 3.56179,1.67249 3.29226,6.05533 -0.2238,3.63941 0.1998,5.09738 2.09372,7.20615 3.59452,4.00231 5.7861,8.13937 7.09518,13.39364 0.65089,2.6125 1.5645,4.75 2.03025,4.75 0.46574,0 2.22783,1.35 3.91576,3 1.68793,1.65 3.69094,3 4.45114,3 0.76021,0 1.53219,0.37867 1.71553,0.84149 0.18333,0.46281 1.7454,1.11648 3.47125,1.45258 2.37074,0.46169 3.56995,0.13371 4.90499,-1.34149 2.8808,-3.18324 8.31652,-1.91443 12.17583,2.84211 0.92981,1.14596 1.54444,1.23178 2.5925,0.36196 0.75557,-0.62706 3.58213,-1.25633 6.28126,-1.39838 4.68413,-0.24651 4.9219,-0.1331 5.22392,2.49173 0.27245,2.36784 -0.0402,2.75 -2.25,2.75 -1.84756,0 -2.56642,0.52799 -2.56642,1.88499 0,3.2351 -4.33467,5.27458 -8.98823,4.22899 -3.28624,-0.73837 -4.1934,-0.61183 -4.91985,0.68625 -1.16097,2.07455 2.63727,4.16536 6.29629,3.46589 2.03696,-0.38939 2.63732,-0.0885 2.72779,1.3673 0.10418,1.67628 0.16263,1.68817 0.57333,0.11658 0.25152,-0.9625 1.09932,-1.75 1.88399,-1.75 0.78468,0 1.42668,-0.45 1.42668,-1 0,-0.55 0.675,-1 1.5,-1 0.85872,0 1.5,0.90078 1.5,2.10699 0,1.64367 0.38482,1.93169 1.75,1.30982 0.9625,-0.43844 3.6625,-0.70734 6,-0.59755 2.3375,0.10979 4.25,-0.25463 4.25,-0.80982 0,-0.55519 0.59385,-1.00944 1.31966,-1.00944 0.72582,0 2.29784,-1.125 3.49339,-2.5 2.39469,-2.75414 6.18695,-3.36708 6.18695,-1 0,0.825 -0.675,1.5 -1.5,1.5 -0.84106,0 -1.5,0.89238 -1.5,2.03138 0,1.11727 0.675,2.29041 1.5,2.60699 0.825,0.31659 1.5,1.57642 1.5,2.79964 0,1.44372 0.96484,2.68111 2.75,3.52681 8.32654,3.94458 7.87436,3.94705 8.38665,-0.0458 0.22604,-1.76179 -0.48089,-3.34878 -2.22727,-5 -1.40712,-1.33046 -2.84825,-3.20652 -3.20251,-4.16902 -0.35425,-0.9625 -1.33322,-1.75 -2.17549,-1.75 -0.84226,0 -1.53138,-0.675 -1.53138,-1.5 0,-1.07959 1.10455,-1.5 3.94098,-1.5 2.16754,0 4.2191,-0.45 4.55902,-1 0.8981,-1.45316 4.16257,-1.22585 7.54966,0.52568 2.6446,1.36757 2.95034,1.36757 2.95034,0 0,-0.83912 0.675,-1.52568 1.5,-1.52568 2.69271,0 1.84217,5.79476 -1.25,8.51636 l -2.75,2.42044 2.75,0.0316 c 2.0728,0.0238 2.75,0.52411 2.75,2.0316 0,2.34164 0.3332,2.42281 3.0787,0.75 1.78165,-1.08555 2.31694,-0.92604 4.06875,1.21244 1.2567,1.53409 1.86975,3.467 1.62611,5.12701 l -0.39107,2.66457 7.36131,-0.22956 c 4.04872,-0.12626 7.87763,-0.74592 8.50873,-1.37701 0.8633,-0.86327 0.7264,-1.14745 -0.5525,-1.14745 -1.03336,0 -1.70003,-0.78431 -1.70003,-2 0,-1.30491 0.66667,-2 1.91823,-2 3.5009,0 4.8865,-1.03069 4.3164,-3.21076 -0.4673,-1.78706 -0.1816,-2.01226 2.0192,-1.59154 1.8647,0.35645 2.423,0.12368 2.0479,-0.85382 -0.2837,-0.73914 -1.1426,-1.34388 -1.9087,-1.34388 -1.978,0 -1.7248,-1.66821 0.607,-4 3.328,-3.32799 6.652,-2.60239 8.9796,1.96016 2.6775,5.24832 2.5596,6.03984 -0.9002,6.03984 -2.4455,0 -3.03,0.49836 -3.5935,3.06405 -0.4118,1.87502 -1.622,3.49644 -3.1184,4.17828 -2.8952,1.31912 -2.7468,3.86543 0.3034,5.20825 1.2098,0.53256 2.4117,2.21276 2.7333,3.82083 0.4295,2.14747 1.0175,2.74146 2.3349,2.35883 0.9685,-0.28128 4.3657,-0.81718 7.5495,-1.19088 4.6421,-0.54488 6.1484,-0.35382 7.6054,0.9647 1.964,1.7774 4.6206,1.30314 5.4973,-0.98138 0.3002,-0.78247 1.4922,-1.42268 2.6487,-1.42268 4.2944,0 6.7838,-5.2898 2.96,-6.28975 -1.2995,-0.33983 -2,-1.36401 -2,-2.92418 0,-1.85147 0.9413,-2.8165 4.112,-4.21538 2.2616,-0.99782 3.6789,-2.09692 3.1497,-2.44245 -0.5293,-0.34553 -1.4955,-1.64074 -2.1472,-2.87824 -0.6517,-1.2375 -2.0203,-2.25 -3.0413,-2.25 -2.0866,0 -3.5248,-4.00182 -2.5462,-7.08504 0.4449,-1.40198 1.5942,-1.94166 4.2904,-2.01464 3.6322,-0.0983 9.86,-1.60707 7.4326,-1.80064 -0.6875,-0.0548 -1.25,-1.06853 -1.25,-2.25269 l 0,-2.15301 -1.8673,2.15301 c -4.0513,4.67111 -7.2869,1.97646 -8.6655,-7.21667 l -0.6943,-4.63032 3.1135,0 c 2.5622,0 3.1136,0.39843 3.1136,2.25 0,1.70951 0.5776,2.25 2.4045,2.25 1.3225,0 2.1959,-0.3375 1.941,-0.75 -0.255,-0.4125 -1.112,-0.75 -1.9046,-0.75 -2.0194,0 -1.7959,-3.24192 0.385,-5.58275 1.3097,-1.40587 1.7028,-3.01387 1.3906,-5.68856 -0.2716,-2.32585 -0.018,-3.72869 0.6741,-3.72869 0.6101,0 1.1094,-0.60526 1.1094,-1.34501 0,-0.73976 0.8382,-2.10365 1.8628,-3.03087 2.3474,-2.12439 11.5785,-3.33263 13.4698,-1.76303 1.1439,0.94936 1.233,0.28094 0.5439,-4.07832 -1.0294,-6.512 0.3414,-8.93228 6.0231,-10.63455 4.0842,-1.22367 4.1004,-1.24803 4.1004,-6.18836 l 0,-4.959858 3.8786,0 c 3.3907,0 4.0395,-0.3882 5.1566,-3.08517 0.7029,-1.69685 1.9289,-3.73608 2.7244,-4.53162 0.9129,-0.912916 1.4234,-3.373736 1.384,-6.671556 -0.034,-2.87381 0.2568,-5.67208 0.647,-6.21838 1.1512,-1.61193 5.0266,-3.49327 7.1958,-3.49327 1.3469,0 2.0136,-0.66218 2.0136,-2 0,-1.60524 -0.6667,-2 -3.3776,-2 -3.6965,0 -5.9745,-1.93355 -5.455,-4.63005 0.3593,-1.86469 5.2424,-3.66473 8.0826,-2.97944 1.125,0.27146 1.7613,-0.16926 1.7818,-1.23413 0.089,-4.63553 6.852,-7.41014 7.0842,-2.90638 0.1035,2.00797 0.1628,2.03486 0.5515,0.25 0.7334,-3.36743 2.6056,-6.5 3.8848,-6.5 0.6679,0 1.4513,-0.90602 1.7409,-2.01337 0.2896,-1.10736 2.1617,-2.69658 4.1602,-3.5316 1.9985,-0.83503 3.8872,-2.17901 4.1971,-2.98663 0.3099,-0.80762 1.1279,-1.4684 1.8178,-1.4684 1.393,0 0.9024,-4.65286 -0.5877,-5.5738 -1.7123,-1.05822 -0.858,-3.4262 1.236,-3.4262 1.6248,0 1.995,0.46506 1.5933,2.00138 -0.2879,1.10076 -0.1154,1.7492 0.3833,1.44098 0.4987,-0.30822 0.9068,-1.26132 0.9068,-2.11801 0,-1.06529 0.6321,-1.3923 2,-1.0346 1.7539,0.45867 2,0.0307 2,-3.479 0,-2.48483 0.8102,-5.13995 2.1373,-7.00366 1.9736,-2.77166 2.0447,-3.4156 0.9283,-8.40437 -0.7723,-3.45084 -1.7251,-5.4027204 -2.6374,-5.4027204 -0.7855,0 -1.4282,-0.9 -1.4282,-2 0,-1.1 0.4953,-2 1.1007,-2 0.6908,0 0.9674,-1.67545 0.7428,-4.50000002 -0.2406,-3.02433978 0.034,-4.50000378 0.838,-4.50000378 1.1039,0 2.119,5.05851378 2.1893,10.9100238 0.016,1.32551 0.5787,2.74975 1.2505,3.16497 0.6718,0.41521 1.2569,2.2953704 1.3001,4.1781304 0.063,2.74766 0.4239,3.33344 1.8286,2.9684 2.7635,-0.71817 2.0585,2.02046 -1.178,4.57648 -1.6004,1.2639 -3.3681,3.61259 -3.9282,5.2193 -0.9475,2.71788 -0.8867,2.83903 0.8734,1.73986 2.3396,-1.46108 2.9201,-0.91805 3.6183,3.38449 0.5114,3.15094 0.3038,3.47851 -2.9496,4.65495 -1.9248,0.69602 -3.8791,1.19823 -4.3428,1.11602 -3.1872,-0.56502 -4.3431,0.25666 -4.3431,3.08738 0,1.89759 -0.5119,3 -1.393,3 -0.7662,0 -1.6466,0.66078 -1.9565,1.4684 -0.3099,0.80762 -2.1581,2.13465 -4.107,2.94897 -1.949,0.81432 -3.5435,2.16816 -3.5435,3.00855 0,0.84038 -1.125,2.2651 -2.5,3.16603 -1.375,0.90094 -2.5017,2.37381 -2.5038,3.27306 0,0.89924 -0.902,3.10836 -2,4.90916 -1.0979,1.80079 -1.9962,4.17741 -1.9962,5.28138 0,2.79498 -2.7833,3.60839 -4.5163,1.31987 -1.2991,-1.71566 -1.4228,-1.51337 -1.4519,2.37458 -0.025,3.4147 -0.3857,4.25 -1.8325,4.25 -4.6463,0 -9.7517,4.42255 -7.0401,6.09843 0.9585,0.59237 0.9659,1.33147 0.034,3.37701 -0.6562,1.44026 -1.1931,3.30463 -1.1931,4.14304 0,0.838396 -0.6971,2.221466 -1.5491,3.073476 -0.8521,0.85201 -1.8083,2.84487 -2.125,4.42858 -0.3168,1.5837 -0.8975,2.87946 -1.2904,2.87946 -0.393,0 -1.2271,1.124998 -1.8536,2.499998 -0.698,1.53195 -1.9669,2.5 -3.2771,2.5 -1.7413,0 -2.0493,-0.46385 -1.6601,-2.5 0.2629,-1.375 0.09,-2.499998 -0.3834,-2.499998 -0.4737,0 -0.8613,2.215098 -0.8613,4.922448 0,4.80676 -0.088,4.95083 -3.75,6.13032 -6.1957,1.99562 -6.5608,2.60932 -5.8252,9.79004 0.6552,6.39493 0.6522,6.40506 -1.793,5.93765 -1.7617,-0.33679 -2.3045,-0.091 -1.9336,0.87566 0.3636,0.94747 -0.4007,1.34388 -2.5912,1.34388 -3.391,0 -4.4361,-2.53443 -1.357,-3.29076 0.9625,-0.23642 0.175,-0.22964 -1.75,0.0151 -1.925,0.2447 -4.262,1.1285 -5.1934,1.964 -2.1911,1.96564 -3.3449,7.17338 -1.9078,8.61053 1.7525,1.75249 1.2793,3.70113 -0.8988,3.70113 -2.3157,0 -2.3221,0.0226 -0.995,3.51325 0.8725,2.2949 1.3999,2.55671 4,1.98564 2.3401,-0.51398 2.995,-0.31246 2.995,0.92165 0,0.86871 -0.675,1.57946 -1.5,1.57946 -0.825,0 -1.5,0.50008 -1.5,1.11129 0,0.72924 1.2077,0.88471 3.513,0.45224 2.7748,-0.52055 3.6496,-0.3034 4.1625,1.03332 0.4001,1.04268 -0.018,2.18 -1.0878,2.96262 -1.4774,1.08031 -1.1278,1.18853 2.3376,0.72372 4.3273,-0.58041 4.6759,-0.12841 3.4444,4.46681 -0.7268,2.7118 -3.8887,2.97568 -7.2708,0.60677 -2.0008,-1.40142 -3.0748,-1.475 -7.2988,-0.5 -2.724,0.62878 -6.2684,1.14323 -7.8764,1.14323 -2.452,0 -2.9237,0.40339 -2.9237,2.5 0,1.84217 0.5319,2.5 2.0214,2.5 1.1858,0 2.4923,1.03349 3.1605,2.5 0.6265,1.375 1.7419,2.5 2.4786,2.5 1.4833,0 1.7372,1.82547 0.5205,3.74136 -0.4336,0.68275 -2.5642,2.13348 -4.7347,3.22385 -3.6369,1.82703 -3.7699,2.03288 -1.6963,2.62527 1.7703,0.50574 2.25,1.37305 2.25,4.06796 0,3.78515 -3.0617,7.91559 -5.2461,7.07736 -0.747,-0.28663 -2.3944,0.55556 -3.661,1.87153 -2.8156,2.92541 -4.0731,2.98275 -7.434,0.33902 z m -89.36918,-13.94635 c -0.28766,-1.1 -0.92053,-2 -1.40638,-2 -0.48585,0 -0.88337,0.9 -0.88337,2 0,1.1 0.63287,2 1.40638,2 0.91405,0 1.22329,-0.70014 0.88337,-2 z m 40.71025,-1 c 0,-1.1 -0.45,-2 -1,-2 -0.55,0 -1,0.9 -1,2 0,1.1 0.45,2 1,2 0.55,0 1,-0.9 1,-2 z m 28.18753,-1.68311 c -0.7219,-0.28887 -1.5844,-0.25335 -1.9167,0.0789 -0.3323,0.33229 0.2583,0.56864 1.3125,0.52522 1.1649,-0.048 1.4019,-0.28494 0.6042,-0.60416 z m -37.18753,-11.27909 c 0,-0.95269 -1.0125,-2.19172 -2.25,-2.75339 -1.76555,-0.80135 -2.85094,-0.59799 -5.04103,0.94449 l -2.79102,1.96571 2.58578,2.39643 c 2.44729,2.26807 2.71728,2.31026 5.04102,0.78768 1.35039,-0.88481 2.45525,-2.38822 2.45525,-3.34092 z m 43.50003,1.9622 c -1.7301,-3.34552 -3.5,-3.95236 -3.5,-1.2 0,2.11704 1.8477,4.2 3.7256,4.2 1.0508,0 1.004,-0.62215 -0.2256,-3 z m 49.5,-9.46862 c 0,-0.92914 -0.5818,-1.24535 -1.5839,-0.86083 -1.2752,0.48935 -1.3239,0.77253 -0.25,1.4533 1.7761,1.12588 1.8339,1.10723 1.8339,-0.59247 z m -18.5165,-8.37516 c -2.2693,-0.45999 -3.6999,1.11644 -2.9014,3.19712 0.5754,1.49957 0.8678,1.43458 2.6224,-0.58278 1.7922,-2.06055 1.818,-2.30236 0.279,-2.61434 z m 7.5165,3.84378 c 0,-0.55 -0.45,-1 -1,-1 -0.55,0 -1,0.45 -1,1 0,0.55 0.45,1 1,1 0.55,0 1,-0.45 1,-1 z m -11,-7.5 c 0,-0.825 -0.4359,-1.5 -0.9687,-1.5 -0.5327,0 -0.7095,0.675 -0.393,1.5 0.3166,0.825 0.7525,1.5 0.9687,1.5 0.2161,0 0.393,-0.675 0.393,-1.5 z m 56,-78.999994 c 0,-0.93334 -0.9445,-1.5 -2.5,-1.5 -2.4279,0 -3.193,0.97372 -1.8334,2.33333 1.258,1.25798 4.3334,0.66656 4.3334,-0.83333 z m 4.5,-1.5 c -0.34,-0.55 -1.0415,-1 -1.5591,-1 -0.5175,0 -0.9409,0.45 -0.9409,1 0,0.55 0.7015,1 1.559,1 0.8574,0 1.2809,-0.45 0.941,-1 z m 1.9899,-4.01632 c -0.3455,-0.55897 -1.047,-0.75741 -1.559,-0.44098 -1.3871,0.85724 -1.1284,1.4573 0.6281,1.4573 0.8574,0 1.2763,-0.45734 0.9309,-1.01632 z m -73.4899,116.016314 c 0,-1.11111 0.6666,-2 1.5,-2 0.8333,0 1.5,0.88889 1.5,2 0,1.11111 -0.6667,2 -1.5,2 -0.8334,0 -1.5,-0.88889 -1.5,-2 z m -40.00003,-7.06955 c 0,-1.57185 0.53864,-1.9927 2.23978,-1.75 3.32375,0.4742 3.61588,3.81955 0.33354,3.81955 -1.93548,0 -2.57332,-0.51297 -2.57332,-2.06955 z m 40.00003,0.56955 c 0,-0.83333 0.8889,-1.5 2,-1.5 1.1111,0 2,0.66667 2,1.5 0,0.83333 -0.8889,1.5 -2,1.5 -1.1111,0 -2,-0.66667 -2,-1.5 z m -2.75,-6.16228 c -0.6875,-0.27741 -1.25,-1.39678 -1.25,-2.48748 0,-3.01056 5.3823,-2.17839 5.8195,0.89976 0.3188,2.24467 -1.433,2.85335 -4.5695,1.58772 z m -19.25,-23.33772 c 0,-2.22222 0.4666,-3 1.8,-3 2.3038,0 4.2,1.89613 4.2,4.2 0,1.33333 -0.7778,1.8 -3,1.8 -2.6667,0 -3,-0.33333 -3,-3 z m 62,1 c 0,-1.11111 0.6666,-2 1.5,-2 0.8333,0 1.5,0.88889 1.5,2 0,1.11111 -0.6667,2 -1.5,2 -0.8334,0 -1.5,-0.88889 -1.5,-2 z m -16,-5.5 c 0,-0.83333 0.8889,-1.5 2,-1.5 1.1111,0 2,0.66667 2,1.5 0,0.83333 -0.8889,1.5 -2,1.5 -1.1111,0 -2,-0.66667 -2,-1.5 z m -16,-2 c 0,-0.825 0.675,-1.5 1.5,-1.5 0.825,0 1.5,0.675 1.5,1.5 0,0.825 -0.675,1.5 -1.5,1.5 -0.825,0 -1.5,-0.675 -1.5,-1.5 z m 17,-3 c 0,-0.825 0.675,-1.5 1.5,-1.5 0.825,0 1.5,0.675 1.5,1.5 0,0.825 -0.675,1.5 -1.5,1.5 -0.825,0 -1.5,-0.675 -1.5,-1.5 z m -33.75,-3.20573 c -1.2877,-0.24801 -2.2364,-1.15212 -2.2182,-2.11382 0.039,-2.05229 2.3003,-5.18045 3.7451,-5.18045 0.581,0 1.2334,-0.53096 1.4497,-1.17991 0.2196,-0.65876 1.1398,-0.89346 2.0833,-0.53138 1.2427,0.47685 1.6901,1.84805 1.6901,5.17991 0,4.84395 -0.3711,5.05428 -6.75,3.82565 z m 3.75,-3.79427 c 0,-0.825 -0.4019,-1.5 -0.893,-1.5 -0.4912,0 -1.1521,0.675 -1.4687,1.5 -0.3506,0.91371 0,1.5 0.893,1.5 0.8078,0 1.4687,-0.675 1.4687,-1.5 z m 45,0.5 c 0,-1.11111 0.6666,-2 1.5,-2 0.8333,0 1.5,0.88889 1.5,2 0,1.11111 -0.6667,2 -1.5,2 -0.8334,0 -1.5,-0.88889 -1.5,-2 z m 4,-2.5 c 0,-0.83333 0.8889,-1.5 2,-1.5 1.1111,0 2,0.66667 2,1.5 0,0.83333 -0.8889,1.5 -2,1.5 -1.1111,0 -2,-0.66667 -2,-1.5 z m -13.3334,-1.16667 c -1.492,-1.49204 -0.6178,-4.33333 1.3334,-4.33333 1.4666,0 2,0.66667 2,2.5 0,2.35301 -1.8153,3.35141 -3.3334,1.83333 z m -18.6666,-4.33333 c 0,-1.55556 0.6666,-2 3,-2 2.3333,0 3,0.44444 3,2 0,1.55556 -0.6667,2 -3,2 -2.3334,0 -3,-0.44444 -3,-2 z m 12,-4.07332 c 0,-1.4311 0.5385,-1.96962 1.7385,-1.73852 2.6067,0.50201 2.8974,3.81184 0.3348,3.81184 -1.4311,0 -2.0733,-0.64223 -2.0733,-2.07332 z m 64,-95.426674 c 0,-0.825 0.675,-1.5 1.5,-1.5 0.825,0 1.5,0.675 1.5,1.5 0,0.825 -0.675,1.5 -1.5,1.5 -0.825,0 -1.5,-0.675 -1.5,-1.5 z m 19,-6 c 0,-0.8250004 0.45,-1.5000004 1,-1.5000004 0.55,0 1,-0.9 1,-2 0,-1.34364 0.6666,-2 2.0313,-2 2.9274,0 3.4604,2.50828 1.046,4.9226804 -2.4263,2.42625 -5.0773,2.72769 -5.0773,0.57732 z m -24.1272,-4.4711104 c -3.4105,-3.25924 -3.3173,-6.02889002 0.2028,-6.02889002 1.4123,0 1.9577,0.47084 1.6062,1.38681002 -0.3755,0.9784 0.044,1.23602 1.4259,0.87477 2.0947,-0.54779 5.8923,2.21479 5.8923,4.28642 0,1.29681 -2.1629,2.452 -4.5909,2.452 -0.785,0 -2.8264,-1.337 -4.5363,-2.97111 z m 37.398,-10.6330598 c 0.3323,-0.332292 1.1948,-0.367818 1.9167,-0.079 0.7977,0.31923 0.5607,0.55619 -0.6042,0.60417 -1.0542,0.0434 -1.6448,-0.19293 -1.3125,-0.52522 z"
     id="path2995"
     style="fill:#000000" />
</svg>
